<svg version="1.1" viewBox="0.0 0.0 654.0 371.0" fill="none" stroke="none" stroke-linecap="square" stroke-miterlimit="10" width="654" height="371" xmlns:xlink="http://www.w3.org/1999/xlink" xmlns="http://www.w3.org/2000/svg"><path fill="#ffffff" d="M0 0L654.0 0L654.0 371.0L0 371.0L0 0Z" fill-rule="nonzero"/><path fill="#4285f4" d="M327.0 18.55C334.52625 18.55 342.04388 19.058933 349.50146 20.073318L343.8761 61.42999C338.2829 60.6692 332.64468 60.2875 327.0 60.2875Z" fill-rule="nonzero"/><path fill="#ea4335" d="M349.50146 20.073318C375.70264 23.63722 400.68256 33.37378 422.38434 48.481274L398.53824 82.735954C382.2619 71.405334 363.52698 64.10291 343.8761 61.42999Z" fill-rule="nonzero"/><path fill="#fbbc04" d="M422.38434 48.481274C448.159 66.42408 468.35013 91.27301 480.6386 120.17406L442.22897 136.50554C433.01257 114.82976 417.86926 96.193054 398.53824 82.735954Z" fill-rule="nonzero"/><path fill="#34a853" d="M480.6386 120.17406C490.2699 142.82562 494.77332 167.32661 493.82642 191.92252L452.1198 190.3169C452.83 171.86996 449.45242 153.49422 442.22897 136.50554Z" fill-rule="nonzero"/><path fill="#ff994d" d="M313.0244 19.135984C317.6727 18.7455 322.33533 18.55 327.0 18.55L327.0 60.2875C323.5015 60.2875 320.00455 60.434124 316.5183 60.72699Z" fill-rule="nonzero"/><path fill="#71c287" d="M249.70026 37.523476C269.37595 27.245317 290.90384 20.994247 313.0244 19.135984L316.5183 60.72699C299.9279 62.120686 283.78195 66.80899 269.0252 74.51761Z" fill-rule="nonzero"/><path fill="#fcd04f" d="M208.79361 67.60364C220.81573 55.549896 234.6108 45.405884 249.70026 37.523476L269.0252 74.51761C257.7081 80.42941 247.3618 88.03742 238.34521 97.07773Z" fill-rule="nonzero"/><path fill="#f07b72" d="M171.13214 245.31233C147.54005 183.83255 162.29112 114.2284 208.79361 67.60364L238.34521 97.07773C203.46835 132.04631 192.40504 184.2494 210.0991 230.35924Z" fill-rule="nonzero"/><path fill="#7baaf7" d="M261.9022 339.2354C220.14575 321.55405 187.37791 287.64798 171.13214 245.31233L210.0991 230.35924C222.28343 262.11096 246.85931 287.54053 278.17664 300.80157Z" fill-rule="nonzero"/><path fill="#46bdc6" d="M299.4477 350.1608C286.5478 348.00226 273.9462 344.33533 261.9022 339.2354L278.17664 300.80157C287.20966 304.6265 296.66083 307.3767 306.3358 308.99557Z" fill-rule="nonzero"/><path fill="#ff6d01" d="M493.82642 191.92252C491.98093 239.85954 469.60352 284.68622 432.4 314.97256C395.19647 345.2589 346.76245 358.07785 299.4477 350.1608L306.3358 308.99557C341.82184 314.93338 378.14737 305.31918 406.05 282.60443C433.95264 259.88968 450.7357 226.26965 452.1198 190.3169Z" fill-rule="nonzero"/><path fill="#000000" d="M19.89375 35.55L19.89375 22.659374L22.45625 22.659374L25.503124 31.784374Q25.925 33.065624 26.1125 33.690624Q26.33125 32.9875 26.8 31.628124L29.89375 22.659374L32.175 22.659374L32.175 35.55L30.534374 35.55L30.534374 24.76875L26.8 35.55L25.253124 35.55L21.534374 24.58125L21.534374 35.55L19.89375 35.55ZM40.83125 34.39375Q39.95625 35.14375 39.128124 35.45625Q38.315624 35.76875 37.39375 35.76875Q35.846874 35.76875 35.01875 35.01875Q34.20625 34.253124 34.20625 33.08125Q34.20625 32.409374 34.51875 31.846874Q34.83125 31.26875 35.33125 30.925Q35.83125 30.58125 36.471874 30.409374Q36.940624 30.284374 37.878124 30.175Q39.784374 29.940624 40.690624 29.628124Q40.70625 29.3 40.70625 29.20625Q40.70625 28.253124 40.253124 27.846874Q39.64375 27.315624 38.45625 27.315624Q37.33125 27.315624 36.8 27.70625Q36.26875 28.096874 36.01875 29.096874L34.471874 28.878124Q34.690624 27.878124 35.159374 27.26875Q35.64375 26.659374 36.55 26.33125Q37.471874 26.003124 38.690624 26.003124Q39.878124 26.003124 40.628124 26.284374Q41.378124 26.565624 41.721874 27.003124Q42.08125 27.425 42.221874 28.065624Q42.3 28.471874 42.3 29.534374L42.3 31.64375Q42.3 33.846874 42.39375 34.440624Q42.503124 35.01875 42.8 35.55L41.14375 35.55Q40.89375 35.05 40.83125 34.39375ZM40.690624 30.8625Q39.83125 31.221874 38.1125 31.45625Q37.14375 31.596874 36.7375 31.784374Q36.33125 31.95625 36.1125 32.3Q35.89375 32.628124 35.89375 33.05Q35.89375 33.675 36.3625 34.096874Q36.846874 34.51875 37.76875 34.51875Q38.690624 34.51875 39.39375 34.128124Q40.1125 33.721874 40.440624 33.034374Q40.690624 32.4875 40.690624 31.440624L40.690624 30.8625ZM44.7375 35.55L44.7375 26.221874L46.159374 26.221874L46.159374 27.55Q47.190624 26.003124 49.128124 26.003124Q49.971874 26.003124 50.675 26.315624Q51.39375 26.6125 51.7375 27.1125Q52.096874 27.596874 52.2375 28.26875Q52.315624 28.70625 52.315624 29.815624L52.315624 35.55L50.7375 35.55L50.7375 29.878124Q50.7375 28.909374 50.55 28.425Q50.378124 27.940624 49.89375 27.659374Q49.425 27.378124 48.8 27.378124Q47.784374 27.378124 47.05 28.01875Q46.315624 28.659374 46.315624 30.45625L46.315624 35.55L44.7375 35.55ZM54.753124 24.4875L54.753124 22.659374L56.33125 22.659374L56.33125 24.4875L54.753124 24.4875ZM54.753124 35.55L54.753124 26.221874L56.33125 26.221874L56.33125 35.55L54.753124 35.55ZM58.7375 39.128124L58.7375 26.221874L60.175 26.221874L60.175 27.425Q60.690624 26.721874 61.33125 26.3625Q61.971874 26.003124 62.878124 26.003124Q64.08125 26.003124 64.9875 26.628124Q65.90938 27.2375 66.37813 28.3625Q66.84688 29.471874 66.84688 30.815624Q66.84688 32.2375 66.33125 33.39375Q65.81563 34.534374 64.83125 35.159374Q63.846874 35.76875 62.76875 35.76875Q61.9875 35.76875 61.346874 35.440624Q60.721874 35.096874 60.315624 34.58125L60.315624 39.128124L58.7375 39.128124ZM60.175 30.940624Q60.175 32.7375 60.89375 33.596874Q61.628124 34.45625 62.659374 34.45625Q63.721874 34.45625 64.47188 33.565624Q65.22188 32.675 65.22188 30.8Q65.22188 29.01875 64.4875 28.128124Q63.753124 27.2375 62.7375 27.2375Q61.721874 27.2375 60.940624 28.190624Q60.175 29.128124 60.175 30.940624ZM74.84688 35.55L74.84688 34.175Q73.76875 35.76875 71.89375 35.76875Q71.06563 35.76875 70.34688 35.45625Q69.62813 35.128124 69.28438 34.659374Q68.94063 34.175 68.8 33.471874Q68.70625 33.003124 68.70625 32.003124L68.70625 26.221874L70.28438 26.221874L70.28438 31.39375Q70.28438 32.628124 70.37813 33.065624Q70.53438 33.690624 71.01875 34.05Q71.50313 34.39375 72.20625 34.39375Q72.925 34.39375 73.55 34.034374Q74.175 33.675 74.425 33.05Q74.69063 32.409374 74.69063 31.221874L74.69063 26.221874L76.26875 26.221874L76.26875 35.55L74.84688 35.55ZM78.70625 35.55L78.70625 22.659374L80.28438 22.659374L80.28438 35.55L78.70625 35.55ZM88.83125 34.39375Q87.95625 35.14375 87.12813 35.45625Q86.31563 35.76875 85.39375 35.76875Q83.84688 35.76875 83.01875 35.01875Q82.20625 34.253124 82.20625 33.08125Q82.20625 32.409374 82.51875 31.846874Q82.83125 31.26875 83.33125 30.925Q83.83125 30.58125 84.47188 30.409374Q84.94063 30.284374 85.87813 30.175Q87.78438 29.940624 88.69063 29.628124Q88.70625 29.3 88.70625 29.20625Q88.70625 28.253124 88.25313 27.846874Q87.64375 27.315624 86.45625 27.315624Q85.33125 27.315624 84.8 27.70625Q84.26875 28.096874 84.01875 29.096874L82.47188 28.878124Q82.69063 27.878124 83.15938 27.26875Q83.64375 26.659374 84.55 26.33125Q85.47188 26.003124 86.69063 26.003124Q87.87813 26.003124 88.62813 26.284374Q89.37813 26.565624 89.72188 27.003124Q90.08125 27.425 90.22188 28.065624Q90.3 28.471874 90.3 29.534374L90.3 31.64375Q90.3 33.846874 90.39375 34.440624Q90.50313 35.01875 90.8 35.55L89.14375 35.55Q88.89375 35.05 88.83125 34.39375ZM88.69063 30.8625Q87.83125 31.221874 86.1125 31.45625Q85.14375 31.596874 84.7375 31.784374Q84.33125 31.95625 84.1125 32.3Q83.89375 32.628124 83.89375 33.05Q83.89375 33.675 84.3625 34.096874Q84.84688 34.51875 85.76875 34.51875Q86.69063 34.51875 87.39375 34.128124Q88.1125 33.721874 88.44063 33.034374Q88.69063 32.4875 88.69063 31.440624L88.69063 30.8625ZM96.19063 34.128124L96.425 35.534374Q95.75313 35.675 95.22188 35.675Q94.3625 35.675 93.87813 35.409374Q93.40938 35.128124 93.22188 34.690624Q93.03438 34.2375 93.03438 32.815624L93.03438 27.440624L91.8625 27.440624L91.8625 26.221874L93.03438 26.221874L93.03438 23.909374L94.59688 22.95625L94.59688 26.221874L96.19063 26.221874L96.19063 27.440624L94.59688 27.440624L94.59688 32.909374Q94.59688 33.58125 94.675 33.784374Q94.76875 33.971874 94.95625 34.08125Q95.14375 34.190624 95.50313 34.190624Q95.75313 34.190624 96.19063 34.128124ZM97.75313 24.4875L97.75313 22.659374L99.33125 22.659374L99.33125 24.4875L97.75313 24.4875ZM97.75313 35.55L97.75313 26.221874L99.33125 26.221874L99.33125 35.55L97.75313 35.55ZM101.14375 30.878124Q101.14375 28.284374 102.59688 27.034374Q103.8 26.003124 105.51875 26.003124Q107.45625 26.003124 108.675 27.26875Q109.89375 28.534374 109.89375 30.753124Q109.89375 32.55 109.34688 33.58125Q108.81563 34.6125 107.78438 35.190624Q106.75313 35.76875 105.51875 35.76875Q103.56563 35.76875 102.34688 34.51875Q101.14375 33.253124 101.14375 30.878124ZM102.76875 30.878124Q102.76875 32.675 103.55 33.565624Q104.33125 34.45625 105.51875 34.45625Q106.70625 34.45625 107.4875 33.565624Q108.26875 32.659374 108.26875 30.83125Q108.26875 29.096874 107.47188 28.20625Q106.69063 27.315624 105.51875 27.315624Q104.33125 27.315624 103.55 28.20625Q102.76875 29.096874 102.76875 30.878124ZM111.7375 35.55L111.7375 26.221874L113.15938 26.221874L113.15938 27.55Q114.19063 26.003124 116.12813 26.003124Q116.97188 26.003124 117.675 26.315624Q118.39375 26.6125 118.7375 27.1125Q119.09688 27.596874 119.2375 28.26875Q119.31563 28.70625 119.31563 29.815624L119.31563 35.55L117.7375 35.55L117.7375 29.878124Q117.7375 28.909374 117.55 28.425Q117.37813 27.940624 116.89375 27.659374Q116.425 27.378124 115.8 27.378124Q114.78438 27.378124 114.05 28.01875Q113.31563 28.659374 113.31563 30.45625L113.31563 35.55L111.7375 35.55Z" fill-rule="nonzero"/><path fill="#9e9e9e" d="M27.503124 50.815624L25.940624 50.940624Q25.721874 50.01875 25.33125 49.596874Q24.690624 48.909374 23.753124 48.909374Q23.003124 48.909374 22.425 49.33125Q21.675 49.878124 21.2375 50.925Q20.815624 51.971874 20.8 53.909374Q21.378124 53.034374 22.190624 52.6125Q23.01875 52.190624 23.925 52.190624Q25.51875 52.190624 26.628124 53.3625Q27.7375 54.51875 27.7375 56.3625Q27.7375 57.58125 27.20625 58.628124Q26.690624 59.659374 25.76875 60.221874Q24.8625 60.76875 23.70625 60.76875Q21.721874 60.76875 20.471874 59.315624Q19.221874 57.8625 19.221874 54.51875Q19.221874 50.784374 20.6125 49.08125Q21.815624 47.6125 23.846874 47.6125Q25.378124 47.6125 26.346874 48.471874Q27.315624 49.315624 27.503124 50.815624ZM21.05 56.378124Q21.05 57.190624 21.39375 57.940624Q21.7375 58.690624 22.3625 59.08125Q22.9875 59.471874 23.675 59.471874Q24.675 59.471874 25.39375 58.659374Q26.1125 57.846874 26.1125 56.45625Q26.1125 55.128124 25.39375 54.3625Q24.690624 53.58125 23.6125 53.58125Q22.534374 53.58125 21.784374 54.3625Q21.05 55.128124 21.05 56.378124ZM30.190624 60.55L30.190624 58.753124L31.9875 58.753124L31.9875 60.55L30.190624 60.55ZM34.3 57.14375L35.89375 56.940624Q36.159374 58.284374 36.815624 58.878124Q37.471874 59.471874 38.409374 59.471874Q39.534374 59.471874 40.3 58.70625Q41.065624 57.925 41.065624 56.784374Q41.065624 55.690624 40.346874 54.9875Q39.64375 54.26875 38.55 54.26875Q38.096874 54.26875 37.425 54.45625L37.596874 53.065624Q37.753124 53.08125 37.8625 53.08125Q38.8625 53.08125 39.675 52.55Q40.4875 52.01875 40.4875 50.925Q40.4875 50.05 39.89375 49.4875Q39.3 48.909374 38.378124 48.909374Q37.45625 48.909374 36.83125 49.4875Q36.221874 50.065624 36.05 51.2375L34.471874 50.95625Q34.753124 49.3625 35.784374 48.4875Q36.815624 47.6125 38.346874 47.6125Q39.39375 47.6125 40.284374 48.065624Q41.175 48.51875 41.64375 49.3Q42.1125 50.08125 42.1125 50.95625Q42.1125 51.8 41.659374 52.4875Q41.221874 53.159374 40.33125 53.565624Q41.471874 53.83125 42.096874 54.675Q42.7375 55.503124 42.7375 56.7375Q42.7375 58.425 41.503124 59.6125Q40.284374 60.784374 38.409374 60.784374Q36.70625 60.784374 35.58125 59.76875Q34.471874 58.753124 34.3 57.14375ZM44.596874 50.753124Q44.596874 49.378124 45.284374 48.409374Q45.9875 47.440624 47.3 47.440624Q48.51875 47.440624 49.315624 48.315624Q50.1125 49.175 50.1125 50.8625Q50.1125 52.4875 49.3 53.378124Q48.503124 54.253124 47.315624 54.253124Q46.159374 54.253124 45.378124 53.39375Q44.596874 52.51875 44.596874 50.753124ZM47.346874 48.534374Q46.753124 48.534374 46.3625 49.05Q45.971874 49.55 45.971874 50.909374Q45.971874 52.159374 46.3625 52.659374Q46.76875 53.159374 47.346874 53.159374Q47.940624 53.159374 48.33125 52.659374Q48.721874 52.14375 48.721874 50.8Q48.721874 49.55 48.33125 49.05Q47.940624 48.534374 47.346874 48.534374ZM47.3625 61.01875L54.409374 47.440624L55.690624 47.440624L48.659374 61.01875L47.3625 61.01875ZM52.925 57.51875Q52.925 56.14375 53.6125 55.175Q54.315624 54.20625 55.64375 54.20625Q56.8625 54.20625 57.64375 55.08125Q58.440624 55.940624 58.440624 57.628124Q58.440624 59.253124 57.64375 60.14375Q56.846874 61.01875 55.659374 61.01875Q54.4875 61.01875 53.70625 60.14375Q52.925 59.26875 52.925 57.51875ZM55.690624 55.3Q55.096874 55.3 54.70625 55.815624Q54.315624 56.315624 54.315624 57.690624Q54.315624 58.909374 54.70625 59.425Q55.096874 59.940624 55.675 59.940624Q56.284374 59.940624 56.675 59.425Q57.065624 58.909374 57.065624 57.565624Q57.065624 56.315624 56.675 55.815624Q56.284374 55.3 55.690624 55.3Z" fill-rule="nonzero"/><path stroke="#757575" stroke-width="1.0" stroke-linecap="butt" d="M18.55 42.05L154.05 42.05L282.77322 33.188656" fill-rule="nonzero"/><path fill="#9e9e9e" d="M284.77322 33.188656C284.77322 32.084087 283.8778 31.188656 282.77322 31.188656C281.66867 31.188656 280.77322 32.084087 280.77322 33.188656C280.77322 34.293224 281.66867 35.188656 282.77322 35.188656C283.8778 35.188656 284.77322 34.293224 284.77322 33.188656" fill-rule="nonzero"/><path fill="#000000" d="M19.8625 82.55L19.8625 69.65938L21.58125 69.65938L21.58125 81.03438L27.925 81.03438L27.925 82.55L19.8625 82.55ZM29.14375 77.87813Q29.14375 75.28438 30.596874 74.03438Q31.8 73.00313 33.51875 73.00313Q35.45625 73.00313 36.675 74.26875Q37.89375 75.53438 37.89375 77.75313Q37.89375 79.55 37.346874 80.58125Q36.815624 81.6125 35.784374 82.19063Q34.753124 82.76875 33.51875 82.76875Q31.565624 82.76875 30.346874 81.51875Q29.14375 80.25313 29.14375 77.87813ZM30.76875 77.87813Q30.76875 79.675 31.55 80.56563Q32.33125 81.45625 33.51875 81.45625Q34.70625 81.45625 35.4875 80.56563Q36.26875 79.65938 36.26875 77.83125Q36.26875 76.09688 35.471874 75.20625Q34.690624 74.31563 33.51875 74.31563Q32.33125 74.31563 31.55 75.20625Q30.76875 76.09688 30.76875 77.87813ZM45.83125 79.12813L47.378124 79.33125Q47.128124 80.94063 46.08125 81.8625Q45.034374 82.76875 43.503124 82.76875Q41.58125 82.76875 40.409374 81.51875Q39.253124 80.25313 39.253124 77.925Q39.253124 76.40938 39.753124 75.28438Q40.253124 74.14375 41.26875 73.58125Q42.3 73.00313 43.503124 73.00313Q45.034374 73.00313 45.9875 73.78438Q46.95625 74.55 47.2375 75.95625L45.690624 76.19063Q45.471874 75.25313 44.909374 74.78438Q44.3625 74.3 43.565624 74.3Q42.378124 74.3 41.628124 75.15938Q40.878124 76.01875 40.878124 77.87813Q40.878124 79.75313 41.596874 80.6125Q42.315624 81.45625 43.4875 81.45625Q44.409374 81.45625 45.034374 80.89375Q45.659374 80.31563 45.83125 79.12813ZM48.14375 77.87813Q48.14375 75.28438 49.596874 74.03438Q50.8 73.00313 52.51875 73.00313Q54.45625 73.00313 55.675 74.26875Q56.89375 75.53438 56.89375 77.75313Q56.89375 79.55 56.346874 80.58125Q55.815624 81.6125 54.784374 82.19063Q53.753124 82.76875 52.51875 82.76875Q50.565624 82.76875 49.346874 81.51875Q48.14375 80.25313 48.14375 77.87813ZM49.76875 77.87813Q49.76875 79.675 50.55 80.56563Q51.33125 81.45625 52.51875 81.45625Q53.70625 81.45625 54.4875 80.56563Q55.26875 79.65938 55.26875 77.83125Q55.26875 76.09688 54.471874 75.20625Q53.690624 74.31563 52.51875 74.31563Q51.33125 74.31563 50.55 75.20625Q49.76875 76.09688 49.76875 77.87813ZM58.7375 82.55L58.7375 73.22188L60.159374 73.22188L60.159374 74.51875Q60.596874 73.84688 61.315624 73.425Q62.05 73.00313 62.9875 73.00313Q64.01875 73.00313 64.675 73.44063Q65.34688 73.8625 65.6125 74.64375Q66.72188 73.00313 68.50313 73.00313Q69.89375 73.00313 70.62813 73.78438Q71.37813 74.55 71.37813 76.14375L71.37813 82.55L69.81563 82.55L69.81563 76.675Q69.81563 75.72188 69.65938 75.3Q69.50313 74.87813 69.09688 74.62813Q68.69063 74.37813 68.14375 74.37813Q67.15938 74.37813 66.50313 75.03438Q65.8625 75.69063 65.8625 77.12813L65.8625 82.55L64.28438 82.55L64.28438 76.4875Q64.28438 75.425 63.89375 74.90938Q63.503124 74.37813 62.628124 74.37813Q61.95625 74.37813 61.39375 74.7375Q60.83125 75.08125 60.565624 75.75313Q60.315624 76.425 60.315624 77.70625L60.315624 82.55L58.7375 82.55ZM72.14375 77.87813Q72.14375 75.28438 73.59688 74.03438Q74.8 73.00313 76.51875 73.00313Q78.45625 73.00313 79.675 74.26875Q80.89375 75.53438 80.89375 77.75313Q80.89375 79.55 80.34688 80.58125Q79.81563 81.6125 78.78438 82.19063Q77.75313 82.76875 76.51875 82.76875Q74.56563 82.76875 73.34688 81.51875Q72.14375 80.25313 72.14375 77.87813ZM73.76875 77.87813Q73.76875 79.675 74.55 80.56563Q75.33125 81.45625 76.51875 81.45625Q77.70625 81.45625 78.4875 80.56563Q79.26875 79.65938 79.26875 77.83125Q79.26875 76.09688 78.47188 75.20625Q77.69063 74.31563 76.51875 74.31563Q75.33125 74.31563 74.55 75.20625Q73.76875 76.09688 73.76875 77.87813ZM86.19063 81.12813L86.425 82.53438Q85.75313 82.675 85.22188 82.675Q84.3625 82.675 83.87813 82.40938Q83.40938 82.12813 83.22188 81.69063Q83.03438 81.2375 83.03438 79.81563L83.03438 74.44063L81.8625 74.44063L81.8625 73.22188L83.03438 73.22188L83.03438 70.90938L84.59688 69.95625L84.59688 73.22188L86.19063 73.22188L86.19063 74.44063L84.59688 74.44063L84.59688 79.90938Q84.59688 80.58125 84.675 80.78438Q84.76875 80.97188 84.95625 81.08125Q85.14375 81.19063 85.50313 81.19063Q85.75313 81.19063 86.19063 81.12813ZM87.75313 71.4875L87.75313 69.65938L89.33125 69.65938L89.33125 71.4875L87.75313 71.4875ZM87.75313 82.55L87.75313 73.22188L89.33125 73.22188L89.33125 82.55L87.75313 82.55ZM91.14375 77.87813Q91.14375 75.28438 92.59688 74.03438Q93.8 73.00313 95.51875 73.00313Q97.45625 73.00313 98.675 74.26875Q99.89375 75.53438 99.89375 77.75313Q99.89375 79.55 99.34688 80.58125Q98.81563 81.6125 97.78438 82.19063Q96.75313 82.76875 95.51875 82.76875Q93.56563 82.76875 92.34688 81.51875Q91.14375 80.25313 91.14375 77.87813ZM92.76875 77.87813Q92.76875 79.675 93.55 80.56563Q94.33125 81.45625 95.51875 81.45625Q96.70625 81.45625 97.4875 80.56563Q98.26875 79.65938 98.26875 77.83125Q98.26875 76.09688 97.47188 75.20625Q96.69063 74.31563 95.51875 74.31563Q94.33125 74.31563 93.55 75.20625Q92.76875 76.09688 92.76875 77.87813ZM101.7375 82.55L101.7375 73.22188L103.15938 73.22188L103.15938 74.55Q104.19063 73.00313 106.12813 73.00313Q106.97188 73.00313 107.675 73.31563Q108.39375 73.6125 108.7375 74.1125Q109.09688 74.59688 109.2375 75.26875Q109.31563 75.70625 109.31563 76.81563L109.31563 82.55L107.7375 82.55L107.7375 76.87813Q107.7375 75.90938 107.55 75.425Q107.37813 74.94063 106.89375 74.65938Q106.425 74.37813 105.8 74.37813Q104.78438 74.37813 104.05 75.01875Q103.31563 75.65938 103.31563 77.45625L103.31563 82.55L101.7375 82.55Z" fill-rule="nonzero"/><path fill="#9e9e9e" d="M24.3625 107.55L24.3625 104.47188L18.784374 104.47188L18.784374 103.01875L24.659374 94.65938L25.95625 94.65938L25.95625 103.01875L27.690624 103.01875L27.690624 104.47188L25.95625 104.47188L25.95625 107.55L24.3625 107.55ZM24.3625 103.01875L24.3625 97.20625L20.33125 103.01875L24.3625 103.01875ZM30.190624 107.55L30.190624 105.75313L31.9875 105.75313L31.9875 107.55L30.190624 107.55ZM34.534374 104.56563L36.05 104.425Q36.253124 105.50313 36.784374 105.9875Q37.33125 106.47188 38.190624 106.47188Q38.925 106.47188 39.471874 106.14375Q40.01875 105.8 40.3625 105.25313Q40.721874 104.69063 40.95625 103.7375Q41.190624 102.78438 41.190624 101.8Q41.190624 101.69063 41.190624 101.4875Q40.70625 102.2375 39.878124 102.70625Q39.065624 103.175 38.1125 103.175Q36.51875 103.175 35.409374 102.01875Q34.3 100.8625 34.3 98.95625Q34.3 97.00313 35.45625 95.81563Q36.6125 94.6125 38.346874 94.6125Q39.6125 94.6125 40.64375 95.3Q41.690624 95.97188 42.221874 97.22188Q42.76875 98.47188 42.76875 100.84688Q42.76875 103.31563 42.221874 104.78438Q41.690624 106.2375 40.628124 107.00313Q39.58125 107.76875 38.159374 107.76875Q36.64375 107.76875 35.675 106.94063Q34.721874 106.09688 34.534374 104.56563ZM41.01875 98.87813Q41.01875 97.51875 40.284374 96.72188Q39.565624 95.925 38.55 95.925Q37.4875 95.925 36.70625 96.78438Q35.925 97.64375 35.925 99.01875Q35.925 100.25313 36.659374 101.01875Q37.409374 101.78438 38.503124 101.78438Q39.596874 101.78438 40.3 101.01875Q41.01875 100.25313 41.01875 98.87813ZM44.596874 97.75313Q44.596874 96.37813 45.284374 95.40938Q45.9875 94.44063 47.3 94.44063Q48.51875 94.44063 49.315624 95.31563Q50.1125 96.175 50.1125 97.8625Q50.1125 99.4875 49.3 100.37813Q48.503124 101.25313 47.315624 101.25313Q46.159374 101.25313 45.378124 100.39375Q44.596874 99.51875 44.596874 97.75313ZM47.346874 95.53438Q46.753124 95.53438 46.3625 96.05Q45.971874 96.55 45.971874 97.90938Q45.971874 99.15938 46.3625 99.65938Q46.76875 100.15938 47.346874 100.15938Q47.940624 100.15938 48.33125 99.65938Q48.721874 99.14375 48.721874 97.8Q48.721874 96.55 48.33125 96.05Q47.940624 95.53438 47.346874 95.53438ZM47.3625 108.01875L54.409374 94.44063L55.690624 94.44063L48.659374 108.01875L47.3625 108.01875ZM52.925 104.51875Q52.925 103.14375 53.6125 102.175Q54.315624 101.20625 55.64375 101.20625Q56.8625 101.20625 57.64375 102.08125Q58.440624 102.94063 58.440624 104.62813Q58.440624 106.25313 57.64375 107.14375Q56.846874 108.01875 55.659374 108.01875Q54.4875 108.01875 53.70625 107.14375Q52.925 106.26875 52.925 104.51875ZM55.690624 102.3Q55.096874 102.3 54.70625 102.81563Q54.315624 103.31563 54.315624 104.69063Q54.315624 105.90938 54.70625 106.425Q55.096874 106.94063 55.675 106.94063Q56.284374 106.94063 56.675 106.425Q57.065624 105.90938 57.065624 104.56563Q57.065624 103.31563 56.675 102.81563Q56.284374 102.3 55.690624 102.3Z" fill-rule="nonzero"/><path stroke="#757575" stroke-width="1.0" stroke-linecap="butt" d="M18.55 89.05L154.05 89.05L233.04185 57.724342" fill-rule="nonzero"/><path fill="#9e9e9e" d="M235.04185 57.724342C235.04185 56.61977 234.14642 55.724342 233.04185 55.724342C231.93729 55.724342 231.04185 56.61977 231.04185 57.724342C231.04185 58.82891 231.93729 59.724342 233.04185 59.724342C234.14642 59.724342 235.04185 58.82891 235.04185 57.724342" fill-rule="nonzero"/><path fill="#000000" d="M20.034374 146.11798L20.034374 133.22736L28.721874 133.22736L28.721874 134.7586L21.7375 134.7586L21.7375 138.74298L27.784374 138.74298L27.784374 140.2586L21.7375 140.2586L21.7375 146.11798L20.034374 146.11798ZM30.753124 135.05548L30.753124 133.22736L32.33125 133.22736L32.33125 135.05548L30.753124 135.05548ZM30.753124 146.11798L30.753124 136.78986L32.33125 136.78986L32.33125 146.11798L30.753124 146.11798ZM34.7375 146.11798L34.7375 136.78986L36.159374 136.78986L36.159374 138.11798Q37.190624 136.5711 39.128124 136.5711Q39.971874 136.5711 40.675 136.8836Q41.39375 137.18048 41.7375 137.68048Q42.096874 138.16486 42.2375 138.83673Q42.315624 139.27423 42.315624 140.3836L42.315624 146.11798L40.7375 146.11798L40.7375 140.4461Q40.7375 139.47736 40.55 138.99298Q40.378124 138.5086 39.89375 138.22736Q39.425 137.9461 38.8 137.9461Q37.784374 137.9461 37.05 138.58673Q36.315624 139.22736 36.315624 141.02423L36.315624 146.11798L34.7375 146.11798ZM50.8 146.11798L50.8 144.9461Q49.909374 146.33673 48.175 146.33673Q47.065624 146.33673 46.128124 145.72736Q45.190624 145.10236 44.675 144.0086Q44.159374 142.89923 44.159374 141.46173Q44.159374 140.05548 44.628124 138.93048Q45.096874 137.78986 46.01875 137.18048Q46.95625 136.5711 48.1125 136.5711Q48.95625 136.5711 49.6125 136.93048Q50.26875 137.28986 50.690624 137.85236L50.690624 133.22736L52.253124 133.22736L52.253124 146.11798L50.8 146.11798ZM45.784374 141.46173Q45.784374 143.2586 46.534374 144.14923Q47.3 145.02423 48.33125 145.02423Q49.3625 145.02423 50.08125 144.18048Q50.815624 143.33673 50.815624 141.58673Q50.815624 139.68048 50.08125 138.78986Q49.346874 137.8836 48.26875 137.8836Q47.20625 137.8836 46.4875 138.74298Q45.784374 139.60236 45.784374 141.46173Z" fill-rule="nonzero"/><path fill="#9e9e9e" d="M25.253124 171.11798L23.675 171.11798L23.675 161.03986Q23.096874 161.58673 22.175 162.1336Q21.253124 162.66486 20.503124 162.9461L20.503124 161.41486Q21.83125 160.78986 22.83125 159.89923Q23.83125 159.0086 24.2375 158.18048L25.253124 158.18048L25.253124 171.11798ZM31.7375 164.1336Q30.753124 163.77423 30.26875 163.10236Q29.8 162.43048 29.8 161.5086Q29.8 160.10236 30.8 159.14923Q31.815624 158.18048 33.503124 158.18048Q35.190624 158.18048 36.20625 159.16486Q37.2375 160.1336 37.2375 161.53986Q37.2375 162.4461 36.76875 163.11798Q36.3 163.77423 35.346874 164.1336Q36.534374 164.52423 37.14375 165.3836Q37.76875 166.24298 37.76875 167.43048Q37.76875 169.08673 36.596874 170.21173Q35.425 171.33673 33.51875 171.33673Q31.6125 171.33673 30.440624 170.21173Q29.284374 169.0711 29.284374 167.3836Q29.284374 166.1336 29.909374 165.28986Q30.55 164.43048 31.7375 164.1336ZM31.409374 161.4461Q31.409374 162.36798 32.003124 162.9461Q32.596874 163.52423 33.534374 163.52423Q34.440624 163.52423 35.01875 162.9461Q35.6125 162.36798 35.6125 161.53986Q35.6125 160.66486 35.003124 160.0711Q34.409374 159.47736 33.51875 159.47736Q32.6125 159.47736 32.003124 160.05548Q31.409374 160.6336 31.409374 161.4461ZM30.909374 167.39923Q30.909374 168.0711 31.221874 168.71173Q31.55 169.33673 32.175 169.6961Q32.815624 170.03986 33.55 170.03986Q34.675 170.03986 35.409374 169.30548Q36.159374 168.5711 36.159374 167.4461Q36.159374 166.30548 35.39375 165.5711Q34.628124 164.8211 33.4875 164.8211Q32.378124 164.8211 31.64375 165.55548Q30.909374 166.28986 30.909374 167.39923ZM40.190624 171.11798L40.190624 169.3211L41.9875 169.3211L41.9875 171.11798L40.190624 171.11798ZM44.3 167.71173L45.89375 167.5086Q46.159374 168.85236 46.815624 169.4461Q47.471874 170.03986 48.409374 170.03986Q49.534374 170.03986 50.3 169.27423Q51.065624 168.49298 51.065624 167.35236Q51.065624 166.2586 50.346874 165.55548Q49.64375 164.83673 48.55 164.83673Q48.096874 164.83673 47.425 165.02423L47.596874 163.6336Q47.753124 163.64923 47.8625 163.64923Q48.8625 163.64923 49.675 163.11798Q50.4875 162.58673 50.4875 161.49298Q50.4875 160.61798 49.89375 160.05548Q49.3 159.47736 48.378124 159.47736Q47.45625 159.47736 46.83125 160.05548Q46.221874 160.6336 46.05 161.80548L44.471874 161.52423Q44.753124 159.93048 45.784374 159.05548Q46.815624 158.18048 48.346874 158.18048Q49.39375 158.18048 50.284374 158.6336Q51.175 159.08673 51.64375 159.86798Q52.1125 160.64923 52.1125 161.52423Q52.1125 162.36798 51.659374 163.05548Q51.221874 163.72736 50.33125 164.1336Q51.471874 164.39923 52.096874 165.24298Q52.7375 166.0711 52.7375 167.30548Q52.7375 168.99298 51.503124 170.18048Q50.284374 171.35236 48.409374 171.35236Q46.70625 171.35236 45.58125 170.33673Q44.471874 169.3211 44.3 167.71173ZM54.596874 161.3211Q54.596874 159.9461 55.284374 158.97736Q55.9875 158.0086 57.3 158.0086Q58.51875 158.0086 59.315624 158.8836Q60.1125 159.74298 60.1125 161.43048Q60.1125 163.05548 59.3 163.9461Q58.503124 164.8211 57.315624 164.8211Q56.159374 164.8211 55.378124 163.96173Q54.596874 163.08673 54.596874 161.3211ZM57.346874 159.10236Q56.753124 159.10236 56.3625 159.61798Q55.971874 160.11798 55.971874 161.47736Q55.971874 162.72736 56.3625 163.22736Q56.76875 163.72736 57.346874 163.72736Q57.940624 163.72736 58.33125 163.22736Q58.721874 162.71173 58.721874 161.36798Q58.721874 160.11798 58.33125 159.61798Q57.940624 159.10236 57.346874 159.10236ZM57.3625 171.58673L64.40938 158.0086L65.69063 158.0086L58.659374 171.58673L57.3625 171.58673ZM62.925 168.08673Q62.925 166.71173 63.6125 165.74298Q64.31563 164.77423 65.64375 164.77423Q66.8625 164.77423 67.64375 165.64923Q68.44063 166.5086 68.44063 168.1961Q68.44063 169.8211 67.64375 170.71173Q66.84688 171.58673 65.65938 171.58673Q64.4875 171.58673 63.70625 170.71173Q62.925 169.83673 62.925 168.08673ZM65.69063 165.86798Q65.09688 165.86798 64.70625 166.3836Q64.31563 166.8836 64.31563 168.2586Q64.31563 169.47736 64.70625 169.99298Q65.09688 170.5086 65.675 170.5086Q66.28438 170.5086 66.675 169.99298Q67.06563 169.47736 67.06563 168.1336Q67.06563 166.8836 66.675 166.3836Q66.28438 165.86798 65.69063 165.86798Z" fill-rule="nonzero"/><path stroke="#757575" stroke-width="1.0" stroke-linecap="butt" d="M18.55 152.61798L154.05 152.61798L171.84354 152.61798" fill-rule="nonzero"/><path fill="#9e9e9e" d="M173.84354 152.61798C173.84354 151.51341 172.94812 150.61798 171.84354 150.61798C170.73897 150.61798 169.84354 151.51341 169.84354 152.61798C169.84354 153.72255 170.73897 154.61798 171.84354 154.61798C172.94812 154.61798 173.84354 153.72255 173.84354 152.61798" fill-rule="nonzero"/><path fill="#000000" d="M23.221874 275.45L23.221874 264.09064L18.971874 264.09064L18.971874 262.5594L29.190624 262.5594L29.190624 264.09064L24.925 264.09064L24.925 275.45L23.221874 275.45ZM37.83125 274.29376Q36.95625 275.04376 36.128124 275.35626Q35.315624 275.66876 34.39375 275.66876Q32.846874 275.66876 32.01875 274.91876Q31.20625 274.15314 31.20625 272.98126Q31.20625 272.3094 31.51875 271.7469Q31.83125 271.16876 32.33125 270.825Q32.83125 270.48126 33.471874 270.3094Q33.940624 270.1844 34.878124 270.075Q36.784374 269.84064 37.690624 269.52814Q37.70625 269.2 37.70625 269.10626Q37.70625 268.15314 37.253124 267.7469Q36.64375 267.21564 35.45625 267.21564Q34.33125 267.21564 33.8 267.60626Q33.26875 267.9969 33.01875 268.9969L31.471874 268.77814Q31.690624 267.77814 32.159374 267.16876Q32.64375 266.5594 33.55 266.23126Q34.471874 265.90314 35.690624 265.90314Q36.878124 265.90314 37.628124 266.1844Q38.378124 266.46564 38.721874 266.90314Q39.08125 267.325 39.221874 267.96564Q39.3 268.3719 39.3 269.4344L39.3 271.54376Q39.3 273.7469 39.39375 274.34064Q39.503124 274.91876 39.8 275.45L38.14375 275.45Q37.89375 274.95 37.83125 274.29376ZM37.690624 270.7625Q36.83125 271.1219 35.1125 271.35626Q34.14375 271.4969 33.7375 271.6844Q33.33125 271.85626 33.1125 272.2Q32.89375 272.52814 32.89375 272.95Q32.89375 273.575 33.3625 273.9969Q33.846874 274.41876 34.76875 274.41876Q35.690624 274.41876 36.39375 274.02814Q37.1125 273.6219 37.440624 272.9344Q37.690624 272.3875 37.690624 271.34064L37.690624 270.7625ZM41.70625 275.45L41.70625 262.5594L43.284374 262.5594L43.284374 275.45L41.70625 275.45ZM45.753124 275.45L45.753124 262.5594L47.33125 262.5594L47.33125 269.91876L51.065624 266.1219L53.1125 266.1219L49.55 269.575L53.4875 275.45L51.534374 275.45L48.440624 270.6844L47.33125 271.7469L47.33125 275.45L45.753124 275.45Z" fill-rule="nonzero"/><path fill="#9e9e9e" d="M25.253124 300.45L23.675 300.45L23.675 290.3719Q23.096874 290.91876 22.175 291.46564Q21.253124 291.9969 20.503124 292.27814L20.503124 290.7469Q21.83125 290.1219 22.83125 289.23126Q23.83125 288.34064 24.2375 287.5125L25.253124 287.5125L25.253124 300.45ZM37.6125 298.9344L37.6125 300.45L29.096874 300.45Q29.08125 299.8719 29.284374 299.35626Q29.6125 298.48126 30.315624 297.6375Q31.034374 296.79376 32.39375 295.6844Q34.4875 293.96564 35.221874 292.96564Q35.971874 291.95 35.971874 291.0594Q35.971874 290.10626 35.3 289.46564Q34.628124 288.825 33.55 288.825Q32.39375 288.825 31.70625 289.5125Q31.034374 290.2 31.01875 291.40314L29.39375 291.23126Q29.565624 289.41876 30.64375 288.46564Q31.7375 287.5125 33.58125 287.5125Q35.425 287.5125 36.503124 288.54376Q37.596874 289.575 37.596874 291.09064Q37.596874 291.85626 37.26875 292.60626Q36.95625 293.35626 36.221874 294.1844Q35.4875 295.0125 33.784374 296.45Q32.3625 297.65314 31.95625 298.075Q31.55 298.4969 31.3 298.9344L37.6125 298.9344ZM40.190624 300.45L40.190624 298.65314L41.9875 298.65314L41.9875 300.45L40.190624 300.45ZM46.7375 293.46564Q45.753124 293.10626 45.26875 292.4344Q44.8 291.7625 44.8 290.84064Q44.8 289.4344 45.8 288.48126Q46.815624 287.5125 48.503124 287.5125Q50.190624 287.5125 51.20625 288.4969Q52.2375 289.46564 52.2375 290.8719Q52.2375 291.77814 51.76875 292.45Q51.3 293.10626 50.346874 293.46564Q51.534374 293.85626 52.14375 294.71564Q52.76875 295.575 52.76875 296.7625Q52.76875 298.41876 51.596874 299.54376Q50.425 300.66876 48.51875 300.66876Q46.6125 300.66876 45.440624 299.54376Q44.284374 298.40314 44.284374 296.71564Q44.284374 295.46564 44.909374 294.6219Q45.55 293.7625 46.7375 293.46564ZM46.409374 290.77814Q46.409374 291.7 47.003124 292.27814Q47.596874 292.85626 48.534374 292.85626Q49.440624 292.85626 50.01875 292.27814Q50.6125 291.7 50.6125 290.8719Q50.6125 289.9969 50.003124 289.40314Q49.409374 288.8094 48.51875 288.8094Q47.6125 288.8094 47.003124 289.3875Q46.409374 289.96564 46.409374 290.77814ZM45.909374 296.73126Q45.909374 297.40314 46.221874 298.04376Q46.55 298.66876 47.175 299.02814Q47.815624 299.3719 48.55 299.3719Q49.675 299.3719 50.409374 298.6375Q51.159374 297.90314 51.159374 296.77814Q51.159374 295.6375 50.39375 294.90314Q49.628124 294.15314 48.4875 294.15314Q47.378124 294.15314 46.64375 294.8875Q45.909374 295.6219 45.909374 296.73126ZM54.596874 290.65314Q54.596874 289.27814 55.284374 288.3094Q55.9875 287.34064 57.3 287.34064Q58.51875 287.34064 59.315624 288.21564Q60.1125 289.075 60.1125 290.7625Q60.1125 292.3875 59.3 293.27814Q58.503124 294.15314 57.315624 294.15314Q56.159374 294.15314 55.378124 293.29376Q54.596874 292.41876 54.596874 290.65314ZM57.346874 288.4344Q56.753124 288.4344 56.3625 288.95Q55.971874 289.45 55.971874 290.8094Q55.971874 292.0594 56.3625 292.5594Q56.76875 293.0594 57.346874 293.0594Q57.940624 293.0594 58.33125 292.5594Q58.721874 292.04376 58.721874 290.7Q58.721874 289.45 58.33125 288.95Q57.940624 288.4344 57.346874 288.4344ZM57.3625 300.91876L64.40938 287.34064L65.69063 287.34064L58.659374 300.91876L57.3625 300.91876ZM62.925 297.41876Q62.925 296.04376 63.6125 295.075Q64.31563 294.10626 65.64375 294.10626Q66.8625 294.10626 67.64375 294.98126Q68.44063 295.84064 68.44063 297.52814Q68.44063 299.15314 67.64375 300.04376Q66.84688 300.91876 65.65938 300.91876Q64.4875 300.91876 63.70625 300.04376Q62.925 299.16876 62.925 297.41876ZM65.69063 295.2Q65.09688 295.2 64.70625 295.71564Q64.31563 296.21564 64.31563 297.59064Q64.31563 298.8094 64.70625 299.325Q65.09688 299.84064 65.675 299.84064Q66.28438 299.84064 66.675 299.325Q67.06563 298.8094 67.06563 297.46564Q67.06563 296.21564 66.675 295.71564Q66.28438 295.2 65.69063 295.2Z" fill-rule="nonzero"/><path stroke="#757575" stroke-width="1.0" stroke-linecap="butt" d="M18.55 281.95L154.05 281.95L212.95312 295.71826" fill-rule="nonzero"/><path fill="#9e9e9e" d="M214.95312 295.71826C214.95312 294.61368 214.0577 293.71826 212.95312 293.71826C211.84856 293.71826 210.95312 294.61368 210.95312 295.71826C210.95312 296.8228 211.84856 297.71826 212.95312 297.71826C214.0577 297.71826 214.95312 296.8228 214.95312 295.71826" fill-rule="nonzero"/><path fill="#000000" d="M19.940624 322.45L19.940624 309.5594L24.378124 309.5594Q25.878124 309.5594 26.675 309.7469Q27.784374 309.9969 28.565624 310.66876Q29.58125 311.52814 30.08125 312.8719Q30.596874 314.21564 30.596874 315.9344Q30.596874 317.40314 30.253124 318.54376Q29.909374 319.66876 29.3625 320.41876Q28.83125 321.15314 28.190624 321.59064Q27.565624 322.0125 26.659374 322.23126Q25.753124 322.45 24.58125 322.45L19.940624 322.45ZM21.64375 320.9344L24.39375 320.9344Q25.675 320.9344 26.39375 320.7Q27.1125 320.45 27.55 320.02814Q28.159374 319.41876 28.4875 318.40314Q28.83125 317.3719 28.83125 315.90314Q28.83125 313.8875 28.159374 312.8094Q27.503124 311.71564 26.55 311.35626Q25.878124 311.09064 24.346874 311.09064L21.64375 311.09064L21.64375 320.9344ZM39.128124 319.45L40.76875 319.65314Q40.378124 321.075 39.33125 321.8719Q38.284374 322.66876 36.659374 322.66876Q34.6125 322.66876 33.409374 321.40314Q32.20625 320.1375 32.20625 317.85626Q32.20625 315.5125 33.409374 314.21564Q34.628124 312.90314 36.565624 312.90314Q38.440624 312.90314 39.628124 314.1844Q40.815624 315.45 40.815624 317.7625Q40.815624 317.90314 40.8 318.1844L33.846874 318.1844Q33.925 319.73126 34.70625 320.54376Q35.503124 321.35626 36.659374 321.35626Q37.534374 321.35626 38.14375 320.90314Q38.76875 320.45 39.128124 319.45ZM33.925 316.8875L39.14375 316.8875Q39.034374 315.71564 38.55 315.1219Q37.784374 314.2 36.58125 314.2Q35.503124 314.2 34.753124 314.9344Q34.01875 315.66876 33.925 316.8875ZM42.096874 319.66876L43.675 319.41876Q43.8 320.35626 44.39375 320.85626Q45.003124 321.35626 46.08125 321.35626Q47.175 321.35626 47.70625 320.91876Q48.2375 320.46564 48.2375 319.8719Q48.2375 319.34064 47.76875 319.02814Q47.440624 318.825 46.14375 318.4969Q44.409374 318.0594 43.7375 317.7469Q43.065624 317.41876 42.70625 316.85626Q42.3625 316.27814 42.3625 315.59064Q42.3625 314.96564 42.64375 314.4344Q42.940624 313.90314 43.425 313.5594Q43.8 313.27814 44.440624 313.09064Q45.08125 312.90314 45.8 312.90314Q46.909374 312.90314 47.7375 313.23126Q48.565624 313.54376 48.95625 314.09064Q49.3625 314.6219 49.503124 315.52814L47.95625 315.73126Q47.846874 315.0125 47.346874 314.60626Q46.846874 314.2 45.925 314.2Q44.83125 314.2 44.3625 314.5594Q43.89375 314.91876 43.89375 315.40314Q43.89375 315.71564 44.096874 315.96564Q44.284374 316.21564 44.690624 316.3875Q44.940624 316.46564 46.096874 316.79376Q47.76875 317.23126 48.425 317.52814Q49.096874 317.8094 49.471874 318.35626Q49.8625 318.90314 49.8625 319.7Q49.8625 320.4969 49.39375 321.2Q48.940624 321.90314 48.065624 322.29376Q47.190624 322.66876 46.096874 322.66876Q44.26875 322.66876 43.315624 321.91876Q42.3625 321.15314 42.096874 319.66876ZM57.83125 319.02814L59.378124 319.23126Q59.128124 320.84064 58.08125 321.7625Q57.034374 322.66876 55.503124 322.66876Q53.58125 322.66876 52.409374 321.41876Q51.253124 320.15314 51.253124 317.825Q51.253124 316.3094 51.753124 315.1844Q52.253124 314.04376 53.26875 313.48126Q54.3 312.90314 55.503124 312.90314Q57.034374 312.90314 57.9875 313.6844Q58.95625 314.45 59.2375 315.85626L57.690624 316.09064Q57.471874 315.15314 56.909374 314.6844Q56.3625 314.2 55.565624 314.2Q54.378124 314.2 53.628124 315.0594Q52.878124 315.91876 52.878124 317.77814Q52.878124 319.65314 53.596874 320.5125Q54.315624 321.35626 55.4875 321.35626Q56.409374 321.35626 57.034374 320.79376Q57.659374 320.21564 57.83125 319.02814ZM60.721874 322.45L60.721874 313.1219L62.14375 313.1219L62.14375 314.52814Q62.690624 313.54376 63.14375 313.23126Q63.6125 312.90314 64.15938 312.90314Q64.97188 312.90314 65.78438 313.41876L65.25313 314.8875Q64.65938 314.54376 64.08125 314.54376Q63.565624 314.54376 63.14375 314.85626Q62.7375 315.16876 62.565624 315.71564Q62.3 316.5594 62.3 317.5594L62.3 322.45L60.721874 322.45ZM66.75313 311.3875L66.75313 309.5594L68.33125 309.5594L68.33125 311.3875L66.75313 311.3875ZM66.75313 322.45L66.75313 313.1219L68.33125 313.1219L68.33125 322.45L66.75313 322.45ZM72.19063 322.45L70.72188 322.45L70.72188 309.5594L72.31563 309.5594L72.31563 314.16876Q73.31563 312.90314 74.8625 312.90314Q75.72188 312.90314 76.4875 313.2625Q77.26875 313.60626 77.75313 314.23126Q78.25313 314.85626 78.53438 315.7469Q78.81563 316.6375 78.81563 317.6375Q78.81563 320.04376 77.62813 321.35626Q76.45625 322.66876 74.78438 322.66876Q73.14375 322.66876 72.19063 321.27814L72.19063 322.45ZM72.175 317.71564Q72.175 319.3875 72.62813 320.1375Q73.37813 321.35626 74.65938 321.35626Q75.69063 321.35626 76.44063 320.46564Q77.20625 319.5594 77.20625 317.77814Q77.20625 315.95 76.47188 315.075Q75.75313 314.2 74.72188 314.2Q73.69063 314.2 72.925 315.10626Q72.175 316.0125 72.175 317.71564ZM87.12813 319.45L88.76875 319.65314Q88.37813 321.075 87.33125 321.8719Q86.28438 322.66876 84.65938 322.66876Q82.6125 322.66876 81.40938 321.40314Q80.20625 320.1375 80.20625 317.85626Q80.20625 315.5125 81.40938 314.21564Q82.62813 312.90314 84.56563 312.90314Q86.44063 312.90314 87.62813 314.1844Q88.81563 315.45 88.81563 317.7625Q88.81563 317.90314 88.8 318.1844L81.84688 318.1844Q81.925 319.73126 82.70625 320.54376Q83.50313 321.35626 84.65938 321.35626Q85.53438 321.35626 86.14375 320.90314Q86.76875 320.45 87.12813 319.45ZM81.925 316.8875L87.14375 316.8875Q87.03438 315.71564 86.55 315.1219Q85.78438 314.2 84.58125 314.2Q83.50313 314.2 82.75313 314.9344Q82.01875 315.66876 81.925 316.8875Z" fill-rule="nonzero"/><path fill="#9e9e9e" d="M19.3 344.04376L20.89375 343.84064Q21.159374 345.1844 21.815624 345.77814Q22.471874 346.3719 23.409374 346.3719Q24.534374 346.3719 25.3 345.60626Q26.065624 344.825 26.065624 343.6844Q26.065624 342.59064 25.346874 341.8875Q24.64375 341.16876 23.55 341.16876Q23.096874 341.16876 22.425 341.35626L22.596874 339.96564Q22.753124 339.98126 22.8625 339.98126Q23.8625 339.98126 24.675 339.45Q25.4875 338.91876 25.4875 337.825Q25.4875 336.95 24.89375 336.3875Q24.3 335.8094 23.378124 335.8094Q22.45625 335.8094 21.83125 336.3875Q21.221874 336.96564 21.05 338.1375L19.471874 337.85626Q19.753124 336.2625 20.784374 335.3875Q21.815624 334.5125 23.346874 334.5125Q24.39375 334.5125 25.284374 334.96564Q26.175 335.41876 26.64375 336.2Q27.1125 336.98126 27.1125 337.85626Q27.1125 338.7 26.659374 339.3875Q26.221874 340.0594 25.33125 340.46564Q26.471874 340.73126 27.096874 341.575Q27.7375 342.40314 27.7375 343.6375Q27.7375 345.325 26.503124 346.5125Q25.284374 347.6844 23.409374 347.6844Q21.70625 347.6844 20.58125 346.66876Q19.471874 345.65314 19.3 344.04376ZM30.190624 347.45L30.190624 345.65314L31.9875 345.65314L31.9875 347.45L30.190624 347.45ZM34.409374 336.2469L34.409374 334.73126L42.7375 334.73126L42.7375 335.96564Q41.51875 337.27814 40.3 339.45Q39.096874 341.60626 38.440624 343.90314Q37.95625 345.52814 37.83125 347.45L36.20625 347.45Q36.2375 345.9344 36.8 343.77814Q37.378124 341.6219 38.440624 339.6219Q39.503124 337.6219 40.70625 336.2469L34.409374 336.2469ZM44.596874 337.65314Q44.596874 336.27814 45.284374 335.3094Q45.9875 334.34064 47.3 334.34064Q48.51875 334.34064 49.315624 335.21564Q50.1125 336.075 50.1125 337.7625Q50.1125 339.3875 49.3 340.27814Q48.503124 341.15314 47.315624 341.15314Q46.159374 341.15314 45.378124 340.29376Q44.596874 339.41876 44.596874 337.65314ZM47.346874 335.4344Q46.753124 335.4344 46.3625 335.95Q45.971874 336.45 45.971874 337.8094Q45.971874 339.0594 46.3625 339.5594Q46.76875 340.0594 47.346874 340.0594Q47.940624 340.0594 48.33125 339.5594Q48.721874 339.04376 48.721874 337.7Q48.721874 336.45 48.33125 335.95Q47.940624 335.4344 47.346874 335.4344ZM47.3625 347.91876L54.409374 334.34064L55.690624 334.34064L48.659374 347.91876L47.3625 347.91876ZM52.925 344.41876Q52.925 343.04376 53.6125 342.075Q54.315624 341.10626 55.64375 341.10626Q56.8625 341.10626 57.64375 341.98126Q58.440624 342.84064 58.440624 344.52814Q58.440624 346.15314 57.64375 347.04376Q56.846874 347.91876 55.659374 347.91876Q54.4875 347.91876 53.70625 347.04376Q52.925 346.16876 52.925 344.41876ZM55.690624 342.2Q55.096874 342.2 54.70625 342.71564Q54.315624 343.21564 54.315624 344.59064Q54.315624 345.8094 54.70625 346.325Q55.096874 346.84064 55.675 346.84064Q56.284374 346.84064 56.675 346.325Q57.065624 345.8094 57.065624 344.46564Q57.065624 343.21564 56.675 342.71564Q56.284374 342.2 55.690624 342.2Z" fill-rule="nonzero"/><path stroke="#757575" stroke-width="1.0" stroke-linecap="butt" d="M18.55 328.95L154.05 328.95L282.68628 337.78607" fill-rule="nonzero"/><path fill="#9e9e9e" d="M284.68628 337.78607C284.68628 336.6815 283.79083 335.78607 282.68628 335.78607C281.5817 335.78607 280.68628 336.6815 280.68628 337.78607C280.68628 338.89062 281.5817 339.78607 282.68628 339.78607C283.79083 339.78607 284.68628 338.89062 284.68628 337.78607" fill-rule="nonzero"/><path fill="#000000" d="M584.9344 35.55L584.9344 22.659374L593.6219 22.659374L593.6219 24.190624L586.6375 24.190624L586.6375 28.175L592.6844 28.175L592.6844 29.690624L586.6375 29.690624L586.6375 35.55L584.9344 35.55ZM595.04376 30.878124Q595.04376 28.284374 596.4969 27.034374Q597.7 26.003124 599.41876 26.003124Q601.35626 26.003124 602.575 27.26875Q603.79376 28.534374 603.79376 30.753124Q603.79376 32.55 603.2469 33.58125Q602.71564 34.6125 601.6844 35.190624Q600.65314 35.76875 599.41876 35.76875Q597.46564 35.76875 596.2469 34.51875Q595.04376 33.253124 595.04376 30.878124ZM596.66876 30.878124Q596.66876 32.675 597.45 33.565624Q598.23126 34.45625 599.41876 34.45625Q600.60626 34.45625 601.3875 33.565624Q602.16876 32.659374 602.16876 30.83125Q602.16876 29.096874 601.3719 28.20625Q600.59064 27.315624 599.41876 27.315624Q598.23126 27.315624 597.45 28.20625Q596.66876 29.096874 596.66876 30.878124ZM605.60626 35.55L605.60626 22.659374L607.1844 22.659374L607.1844 35.55L605.60626 35.55ZM609.60626 35.55L609.60626 22.659374L611.1844 22.659374L611.1844 35.55L609.60626 35.55ZM613.04376 30.878124Q613.04376 28.284374 614.4969 27.034374Q615.7 26.003124 617.41876 26.003124Q619.35626 26.003124 620.575 27.26875Q621.79376 28.534374 621.79376 30.753124Q621.79376 32.55 621.2469 33.58125Q620.71564 34.6125 619.6844 35.190624Q618.65314 35.76875 617.41876 35.76875Q615.46564 35.76875 614.2469 34.51875Q613.04376 33.253124 613.04376 30.878124ZM614.66876 30.878124Q614.66876 32.675 615.45 33.565624Q616.23126 34.45625 617.41876 34.45625Q618.60626 34.45625 619.3875 33.565624Q620.16876 32.659374 620.16876 30.83125Q620.16876 29.096874 619.3719 28.20625Q618.59064 27.315624 617.41876 27.315624Q616.23126 27.315624 615.45 28.20625Q614.66876 29.096874 614.66876 30.878124ZM625.35626 35.55L622.4969 26.221874L624.1375 26.221874L625.6219 31.596874L626.1844 33.6125Q626.21564 33.45625 626.65314 31.675L628.15314 26.221874L629.77814 26.221874L631.16876 31.628124L631.6375 33.409374L632.16876 31.6125L633.77814 26.221874L635.3094 26.221874L632.3875 35.55L630.7469 35.55L629.2625 29.95625L628.90314 28.3625L627.0125 35.55L625.35626 35.55Z" fill-rule="nonzero"/><path fill="#9e9e9e" d="M603.5125 59.034374L603.5125 60.55L594.9969 60.55Q594.98126 59.971874 595.1844 59.45625Q595.5125 58.58125 596.21564 57.7375Q596.9344 56.89375 598.29376 55.784374Q600.3875 54.065624 601.1219 53.065624Q601.8719 52.05 601.8719 51.159374Q601.8719 50.20625 601.2 49.565624Q600.52814 48.925 599.45 48.925Q598.29376 48.925 597.60626 49.6125Q596.9344 50.3 596.91876 51.503124L595.29376 51.33125Q595.46564 49.51875 596.54376 48.565624Q597.6375 47.6125 599.48126 47.6125Q601.325 47.6125 602.40314 48.64375Q603.4969 49.675 603.4969 51.190624Q603.4969 51.95625 603.16876 52.70625Q602.85626 53.45625 602.1219 54.284374Q601.3875 55.1125 599.6844 56.55Q598.2625 57.753124 597.85626 58.175Q597.45 58.596874 597.2 59.034374L603.5125 59.034374ZM606.09064 60.55L606.09064 58.753124L607.8875 58.753124L607.8875 60.55L606.09064 60.55ZM618.5125 59.034374L618.5125 60.55L609.9969 60.55Q609.98126 59.971874 610.1844 59.45625Q610.5125 58.58125 611.21564 57.7375Q611.9344 56.89375 613.29376 55.784374Q615.3875 54.065624 616.1219 53.065624Q616.8719 52.05 616.8719 51.159374Q616.8719 50.20625 616.2 49.565624Q615.52814 48.925 614.45 48.925Q613.29376 48.925 612.60626 49.6125Q611.9344 50.3 611.91876 51.503124L610.29376 51.33125Q610.46564 49.51875 611.54376 48.565624Q612.6375 47.6125 614.48126 47.6125Q616.325 47.6125 617.40314 48.64375Q618.4969 49.675 618.4969 51.190624Q618.4969 51.95625 618.16876 52.70625Q617.85626 53.45625 617.1219 54.284374Q616.3875 55.1125 614.6844 56.55Q613.2625 57.753124 612.85626 58.175Q612.45 58.596874 612.2 59.034374L618.5125 59.034374ZM620.4969 50.753124Q620.4969 49.378124 621.1844 48.409374Q621.8875 47.440624 623.2 47.440624Q624.41876 47.440624 625.21564 48.315624Q626.0125 49.175 626.0125 50.8625Q626.0125 52.4875 625.2 53.378124Q624.40314 54.253124 623.21564 54.253124Q622.0594 54.253124 621.27814 53.39375Q620.4969 52.51875 620.4969 50.753124ZM623.2469 48.534374Q622.65314 48.534374 622.2625 49.05Q621.8719 49.55 621.8719 50.909374Q621.8719 52.159374 622.2625 52.659374Q622.66876 53.159374 623.2469 53.159374Q623.84064 53.159374 624.23126 52.659374Q624.6219 52.14375 624.6219 50.8Q624.6219 49.55 624.23126 49.05Q623.84064 48.534374 623.2469 48.534374ZM623.2625 61.01875L630.3094 47.440624L631.59064 47.440624L624.5594 61.01875L623.2625 61.01875ZM628.825 57.51875Q628.825 56.14375 629.5125 55.175Q630.21564 54.20625 631.54376 54.20625Q632.7625 54.20625 633.54376 55.08125Q634.34064 55.940624 634.34064 57.628124Q634.34064 59.253124 633.54376 60.14375Q632.7469 61.01875 631.5594 61.01875Q630.3875 61.01875 629.60626 60.14375Q628.825 59.26875 628.825 57.51875ZM631.59064 55.3Q630.9969 55.3 630.60626 55.815624Q630.21564 56.315624 630.21564 57.690624Q630.21564 58.909374 630.60626 59.425Q630.9969 59.940624 631.575 59.940624Q632.1844 59.940624 632.575 59.425Q632.96564 58.909374 632.96564 57.565624Q632.96564 56.315624 632.575 55.815624Q632.1844 55.3 631.59064 55.3Z" fill-rule="nonzero"/><path stroke="#757575" stroke-width="1.0" stroke-linecap="butt" d="M635.45 42.05L499.95 42.05L337.71265 27.2597" fill-rule="nonzero"/><path fill="#9e9e9e" d="M339.71265 27.2597C339.71265 26.155132 338.81723 25.2597 337.71265 25.2597C336.6081 25.2597 335.71265 26.155132 335.71265 27.2597C335.71265 28.364271 336.6081 29.2597 337.71265 29.2597C338.81723 29.2597 339.71265 28.364271 339.71265 27.2597" fill-rule="nonzero"/><path fill="#000000" d="M594.8719 77.50313L594.8719 75.9875L600.325 75.97188L600.325 80.75313Q599.075 81.75313 597.73126 82.26875Q596.40314 82.76875 594.9969 82.76875Q593.09064 82.76875 591.54376 81.95625Q589.9969 81.14375 589.2 79.6125Q588.40314 78.06563 588.40314 76.175Q588.40314 74.28438 589.1844 72.65938Q589.98126 71.03438 591.45 70.2375Q592.9344 69.44063 594.85626 69.44063Q596.2625 69.44063 597.3875 69.89375Q598.5125 70.34688 599.15314 71.15938Q599.79376 71.97188 600.1375 73.26875L598.59064 73.69063Q598.3094 72.70625 597.8719 72.14375Q597.45 71.58125 596.6375 71.25313Q595.84064 70.90938 594.8719 70.90938Q593.7 70.90938 592.84064 71.26875Q591.9969 71.6125 591.46564 72.19063Q590.95 72.76875 590.65314 73.47188Q590.16876 74.65938 590.16876 76.06563Q590.16876 77.78438 590.7625 78.95625Q591.35626 80.1125 592.48126 80.675Q593.6219 81.2375 594.8875 81.2375Q595.9969 81.2375 597.04376 80.81563Q598.10626 80.37813 598.65314 79.89375L598.65314 77.50313L594.8719 77.50313ZM608.7469 82.55L608.7469 81.175Q607.66876 82.76875 605.79376 82.76875Q604.96564 82.76875 604.2469 82.45625Q603.52814 82.12813 603.1844 81.65938Q602.84064 81.175 602.7 80.47188Q602.60626 80.00313 602.60626 79.00313L602.60626 73.22188L604.1844 73.22188L604.1844 78.39375Q604.1844 79.62813 604.27814 80.06563Q604.4344 80.69063 604.91876 81.05Q605.40314 81.39375 606.10626 81.39375Q606.825 81.39375 607.45 81.03438Q608.075 80.675 608.325 80.05Q608.59064 79.40938 608.59064 78.22188L608.59064 73.22188L610.16876 73.22188L610.16876 82.55L608.7469 82.55ZM612.65314 71.4875L612.65314 69.65938L614.23126 69.65938L614.23126 71.4875L612.65314 71.4875ZM612.65314 82.55L612.65314 73.22188L614.23126 73.22188L614.23126 82.55L612.65314 82.55ZM622.7 82.55L622.7 81.37813Q621.8094 82.76875 620.075 82.76875Q618.96564 82.76875 618.02814 82.15938Q617.09064 81.53438 616.575 80.44063Q616.0594 79.33125 616.0594 77.89375Q616.0594 76.4875 616.52814 75.3625Q616.9969 74.22188 617.91876 73.6125Q618.85626 73.00313 620.0125 73.00313Q620.85626 73.00313 621.5125 73.3625Q622.16876 73.72188 622.59064 74.28438L622.59064 69.65938L624.15314 69.65938L624.15314 82.55L622.7 82.55ZM617.6844 77.89375Q617.6844 79.69063 618.4344 80.58125Q619.2 81.45625 620.23126 81.45625Q621.2625 81.45625 621.98126 80.6125Q622.71564 79.76875 622.71564 78.01875Q622.71564 76.1125 621.98126 75.22188Q621.2469 74.31563 620.16876 74.31563Q619.10626 74.31563 618.3875 75.175Q617.6844 76.03438 617.6844 77.89375ZM633.02814 79.55L634.66876 79.75313Q634.27814 81.175 633.23126 81.97188Q632.1844 82.76875 630.5594 82.76875Q628.5125 82.76875 627.3094 81.50313Q626.10626 80.2375 626.10626 77.95625Q626.10626 75.6125 627.3094 74.31563Q628.52814 73.00313 630.46564 73.00313Q632.34064 73.00313 633.52814 74.28438Q634.71564 75.55 634.71564 77.8625Q634.71564 78.00313 634.7 78.28438L627.7469 78.28438Q627.825 79.83125 628.60626 80.64375Q629.40314 81.45625 630.5594 81.45625Q631.4344 81.45625 632.04376 81.00313Q632.66876 80.55 633.02814 79.55ZM627.825 76.9875L633.04376 76.9875Q632.9344 75.81563 632.45 75.22188Q631.6844 74.3 630.48126 74.3Q629.40314 74.3 628.65314 75.03438Q627.91876 75.76875 627.825 76.9875Z" fill-rule="nonzero"/><path fill="#9e9e9e" d="M595.3094 96.34688L595.3094 94.83125L603.6375 94.83125L603.6375 96.06563Q602.41876 97.37813 601.2 99.55Q599.9969 101.70625 599.34064 104.00313Q598.85626 105.62813 598.73126 107.55L597.10626 107.55Q597.1375 106.03438 597.7 103.87813Q598.27814 101.72188 599.34064 99.72188Q600.40314 97.72188 601.60626 96.34688L595.3094 96.34688ZM606.09064 107.55L606.09064 105.75313L607.8875 105.75313L607.8875 107.55L606.09064 107.55ZM610.2 104.175L611.85626 104.03438Q612.04376 105.25313 612.71564 105.8625Q613.3875 106.47188 614.34064 106.47188Q615.48126 106.47188 616.2625 105.6125Q617.0594 104.75313 617.0594 103.31563Q617.0594 101.97188 616.29376 101.19063Q615.54376 100.40938 614.3094 100.40938Q613.54376 100.40938 612.91876 100.75313Q612.3094 101.09688 611.96564 101.65938L610.48126 101.45625L611.73126 94.84688L618.1375 94.84688L618.1375 96.34688L612.9969 96.34688L612.29376 99.81563Q613.46564 99.00313 614.73126 99.00313Q616.41876 99.00313 617.575 100.175Q618.7469 101.34688 618.7469 103.175Q618.7469 104.925 617.71564 106.20625Q616.48126 107.76875 614.34064 107.76875Q612.575 107.76875 611.46564 106.78438Q610.35626 105.8 610.2 104.175ZM620.4969 97.75313Q620.4969 96.37813 621.1844 95.40938Q621.8875 94.44063 623.2 94.44063Q624.41876 94.44063 625.21564 95.31563Q626.0125 96.175 626.0125 97.8625Q626.0125 99.4875 625.2 100.37813Q624.40314 101.25313 623.21564 101.25313Q622.0594 101.25313 621.27814 100.39375Q620.4969 99.51875 620.4969 97.75313ZM623.2469 95.53438Q622.65314 95.53438 622.2625 96.05Q621.8719 96.55 621.8719 97.90938Q621.8719 99.15938 622.2625 99.65938Q622.66876 100.15938 623.2469 100.15938Q623.84064 100.15938 624.23126 99.65938Q624.6219 99.14375 624.6219 97.8Q624.6219 96.55 624.23126 96.05Q623.84064 95.53438 623.2469 95.53438ZM623.2625 108.01875L630.3094 94.44063L631.59064 94.44063L624.5594 108.01875L623.2625 108.01875ZM628.825 104.51875Q628.825 103.14375 629.5125 102.175Q630.21564 101.20625 631.54376 101.20625Q632.7625 101.20625 633.54376 102.08125Q634.34064 102.94063 634.34064 104.62813Q634.34064 106.25313 633.54376 107.14375Q632.7469 108.01875 631.5594 108.01875Q630.3875 108.01875 629.60626 107.14375Q628.825 106.26875 628.825 104.51875ZM631.59064 102.3Q630.9969 102.3 630.60626 102.81563Q630.21564 103.31563 630.21564 104.69063Q630.21564 105.90938 630.60626 106.425Q630.9969 106.94063 631.575 106.94063Q632.1844 106.94063 632.575 106.425Q632.96564 105.90938 632.96564 104.56563Q632.96564 103.31563 632.575 102.81563Q632.1844 102.3 631.59064 102.3Z" fill-rule="nonzero"/><path stroke="#757575" stroke-width="1.0" stroke-linecap="butt" d="M635.45 89.05L499.95 89.05L384.59866 37.72603" fill-rule="nonzero"/><path fill="#9e9e9e" d="M386.59866 37.72603C386.59866 36.621456 385.70322 35.72603 384.59866 35.72603C383.49408 35.72603 382.59866 36.621456 382.59866 37.72603C382.59866 38.830597 383.49408 39.72603 384.59866 39.72603C385.70322 39.72603 386.59866 38.830597 386.59866 37.72603" fill-rule="nonzero"/><path fill="#000000" d="M598.02814 125.03438L599.73126 125.45625Q599.2 127.56563 597.8094 128.675Q596.41876 129.76875 594.40314 129.76875Q592.325 129.76875 591.0125 128.925Q589.71564 128.06563 589.02814 126.47188Q588.34064 124.8625 588.34064 123.00313Q588.34064 121.00313 589.10626 119.50313Q589.8875 118.00313 591.3094 117.22188Q592.73126 116.44063 594.4344 116.44063Q596.35626 116.44063 597.66876 117.425Q598.9969 118.40938 599.5125 120.19063L597.84064 120.59688Q597.3875 119.19063 596.52814 118.55Q595.6844 117.90938 594.3875 117.90938Q592.90314 117.90938 591.90314 118.62813Q590.91876 119.33125 590.5125 120.53438Q590.10626 121.72188 590.10626 123.00313Q590.10626 124.64375 590.575 125.87813Q591.0594 127.09688 592.075 127.70625Q593.09064 128.31563 594.2625 128.31563Q595.7 128.31563 596.6844 127.4875Q597.6844 126.65938 598.02814 125.03438ZM601.04376 124.87813Q601.04376 122.28438 602.4969 121.03438Q603.7 120.00313 605.41876 120.00313Q607.35626 120.00313 608.575 121.26875Q609.79376 122.53438 609.79376 124.75313Q609.79376 126.55 609.2469 127.58125Q608.71564 128.6125 607.6844 129.19063Q606.65314 129.76875 605.41876 129.76875Q603.46564 129.76875 602.2469 128.51875Q601.04376 127.25313 601.04376 124.87813ZM602.66876 124.87813Q602.66876 126.675 603.45 127.56563Q604.23126 128.45625 605.41876 128.45625Q606.60626 128.45625 607.3875 127.56563Q608.16876 126.65938 608.16876 124.83125Q608.16876 123.09688 607.3719 122.20625Q606.59064 121.31563 605.41876 121.31563Q604.23126 121.31563 603.45 122.20625Q602.66876 123.09688 602.66876 124.87813ZM617.7469 129.55L617.7469 128.175Q616.66876 129.76875 614.79376 129.76875Q613.96564 129.76875 613.2469 129.45625Q612.52814 129.12813 612.1844 128.65938Q611.84064 128.175 611.7 127.47188Q611.60626 127.00313 611.60626 126.00313L611.60626 120.22188L613.1844 120.22188L613.1844 125.39375Q613.1844 126.62813 613.27814 127.06563Q613.4344 127.69063 613.91876 128.05Q614.40314 128.39375 615.10626 128.39375Q615.825 128.39375 616.45 128.03438Q617.075 127.675 617.325 127.05Q617.59064 126.40938 617.59064 125.22188L617.59064 120.22188L619.16876 120.22188L619.16876 129.55L617.7469 129.55ZM621.6375 129.55L621.6375 120.22188L623.0594 120.22188L623.0594 121.55Q624.09064 120.00313 626.02814 120.00313Q626.8719 120.00313 627.575 120.31563Q628.29376 120.6125 628.6375 121.1125Q628.9969 121.59688 629.1375 122.26875Q629.21564 122.70625 629.21564 123.81563L629.21564 129.55L627.6375 129.55L627.6375 123.87813Q627.6375 122.90938 627.45 122.425Q627.27814 121.94063 626.79376 121.65938Q626.325 121.37813 625.7 121.37813Q624.6844 121.37813 623.95 122.01875Q623.21564 122.65938 623.21564 124.45625L623.21564 129.55L621.6375 129.55ZM635.09064 128.12813L635.325 129.53438Q634.65314 129.675 634.1219 129.675Q633.2625 129.675 632.77814 129.40938Q632.3094 129.12813 632.1219 128.69063Q631.9344 128.2375 631.9344 126.81563L631.9344 121.44063L630.7625 121.44063L630.7625 120.22188L631.9344 120.22188L631.9344 117.90938L633.4969 116.95625L633.4969 120.22188L635.09064 120.22188L635.09064 121.44063L633.4969 121.44063L633.4969 126.90938Q633.4969 127.58125 633.575 127.78438Q633.66876 127.97188 633.85626 128.08125Q634.04376 128.19063 634.40314 128.19063Q634.65314 128.19063 635.09064 128.12813Z" fill-rule="nonzero"/><path fill="#9e9e9e" d="M597.6375 147.56563Q596.65314 147.20625 596.16876 146.53438Q595.7 145.8625 595.7 144.94063Q595.7 143.53438 596.7 142.58125Q597.71564 141.6125 599.40314 141.6125Q601.09064 141.6125 602.10626 142.59688Q603.1375 143.56563 603.1375 144.97188Q603.1375 145.87813 602.66876 146.55Q602.2 147.20625 601.2469 147.56563Q602.4344 147.95625 603.04376 148.81563Q603.66876 149.675 603.66876 150.8625Q603.66876 152.51875 602.4969 153.64375Q601.325 154.76875 599.41876 154.76875Q597.5125 154.76875 596.34064 153.64375Q595.1844 152.50313 595.1844 150.81563Q595.1844 149.56563 595.8094 148.72188Q596.45 147.8625 597.6375 147.56563ZM597.3094 144.87813Q597.3094 145.8 597.90314 146.37813Q598.4969 146.95625 599.4344 146.95625Q600.34064 146.95625 600.91876 146.37813Q601.5125 145.8 601.5125 144.97188Q601.5125 144.09688 600.90314 143.50313Q600.3094 142.90938 599.41876 142.90938Q598.5125 142.90938 597.90314 143.4875Q597.3094 144.06563 597.3094 144.87813ZM596.8094 150.83125Q596.8094 151.50313 597.1219 152.14375Q597.45 152.76875 598.075 153.12813Q598.71564 153.47188 599.45 153.47188Q600.575 153.47188 601.3094 152.7375Q602.0594 152.00313 602.0594 150.87813Q602.0594 149.7375 601.29376 149.00313Q600.52814 148.25313 599.3875 148.25313Q598.27814 148.25313 597.54376 148.9875Q596.8094 149.72188 596.8094 150.83125ZM606.09064 154.55L606.09064 152.75313L607.8875 152.75313L607.8875 154.55L606.09064 154.55ZM610.4344 151.56563L611.95 151.425Q612.15314 152.50313 612.6844 152.9875Q613.23126 153.47188 614.09064 153.47188Q614.825 153.47188 615.3719 153.14375Q615.91876 152.8 616.2625 152.25313Q616.6219 151.69063 616.85626 150.7375Q617.09064 149.78438 617.09064 148.8Q617.09064 148.69063 617.09064 148.4875Q616.60626 149.2375 615.77814 149.70625Q614.96564 150.175 614.0125 150.175Q612.41876 150.175 611.3094 149.01875Q610.2 147.8625 610.2 145.95625Q610.2 144.00313 611.35626 142.81563Q612.5125 141.6125 614.2469 141.6125Q615.5125 141.6125 616.54376 142.3Q617.59064 142.97188 618.1219 144.22188Q618.66876 145.47188 618.66876 147.84688Q618.66876 150.31563 618.1219 151.78438Q617.59064 153.2375 616.52814 154.00313Q615.48126 154.76875 614.0594 154.76875Q612.54376 154.76875 611.575 153.94063Q610.6219 153.09688 610.4344 151.56563ZM616.91876 145.87813Q616.91876 144.51875 616.1844 143.72188Q615.46564 142.925 614.45 142.925Q613.3875 142.925 612.60626 143.78438Q611.825 144.64375 611.825 146.01875Q611.825 147.25313 612.5594 148.01875Q613.3094 148.78438 614.40314 148.78438Q615.4969 148.78438 616.2 148.01875Q616.91876 147.25313 616.91876 145.87813ZM620.4969 144.75313Q620.4969 143.37813 621.1844 142.40938Q621.8875 141.44063 623.2 141.44063Q624.41876 141.44063 625.21564 142.31563Q626.0125 143.175 626.0125 144.8625Q626.0125 146.4875 625.2 147.37813Q624.40314 148.25313 623.21564 148.25313Q622.0594 148.25313 621.27814 147.39375Q620.4969 146.51875 620.4969 144.75313ZM623.2469 142.53438Q622.65314 142.53438 622.2625 143.05Q621.8719 143.55 621.8719 144.90938Q621.8719 146.15938 622.2625 146.65938Q622.66876 147.15938 623.2469 147.15938Q623.84064 147.15938 624.23126 146.65938Q624.6219 146.14375 624.6219 144.8Q624.6219 143.55 624.23126 143.05Q623.84064 142.53438 623.2469 142.53438ZM623.2625 155.01875L630.3094 141.44063L631.59064 141.44063L624.5594 155.01875L623.2625 155.01875ZM628.825 151.51875Q628.825 150.14375 629.5125 149.175Q630.21564 148.20625 631.54376 148.20625Q632.7625 148.20625 633.54376 149.08125Q634.34064 149.94063 634.34064 151.62813Q634.34064 153.25313 633.54376 154.14375Q632.7469 155.01875 631.5594 155.01875Q630.3875 155.01875 629.60626 154.14375Q628.825 153.26875 628.825 151.51875ZM631.59064 149.3Q630.9969 149.3 630.60626 149.81563Q630.21564 150.31563 630.21564 151.69063Q630.21564 152.90938 630.60626 153.425Q630.9969 153.94063 631.575 153.94063Q632.1844 153.94063 632.575 153.425Q632.96564 152.90938 632.96564 151.56563Q632.96564 150.31563 632.575 149.81563Q632.1844 149.3 631.59064 149.3Z" fill-rule="nonzero"/><path stroke="#757575" stroke-width="1.0" stroke-linecap="butt" d="M635.45 136.05L499.95 136.05L450.09036 85.48241" fill-rule="nonzero"/><path fill="#9e9e9e" d="M452.09036 85.48241C452.09036 84.37784 451.19492 83.48241 450.09036 83.48241C448.98578 83.48241 448.09036 84.37784 448.09036 85.48241C448.09036 86.586975 448.98578 87.48241 450.09036 87.48241C451.19492 87.48241 452.09036 86.586975 452.09036 85.48241" fill-rule="nonzero"/><path fill="#000000" d="M596.79376 176.55L596.79376 163.65938L599.35626 163.65938L602.40314 172.78438Q602.825 174.06563 603.0125 174.69063Q603.23126 173.9875 603.7 172.62813L606.79376 163.65938L609.075 163.65938L609.075 176.55L607.4344 176.55L607.4344 165.76875L603.7 176.55L602.15314 176.55L598.4344 165.58125L598.4344 176.55L596.79376 176.55ZM618.02814 173.55L619.66876 173.75313Q619.27814 175.175 618.23126 175.97188Q617.1844 176.76875 615.5594 176.76875Q613.5125 176.76875 612.3094 175.50313Q611.10626 174.2375 611.10626 171.95625Q611.10626 169.6125 612.3094 168.31563Q613.52814 167.00313 615.46564 167.00313Q617.34064 167.00313 618.52814 168.28438Q619.71564 169.55 619.71564 171.8625Q619.71564 172.00313 619.7 172.28438L612.7469 172.28438Q612.825 173.83125 613.60626 174.64375Q614.40314 175.45625 615.5594 175.45625Q616.4344 175.45625 617.04376 175.00313Q617.66876 174.55 618.02814 173.55ZM612.825 170.9875L618.04376 170.9875Q617.9344 169.81563 617.45 169.22188Q616.6844 168.3 615.48126 168.3Q614.40314 168.3 613.65314 169.03438Q612.91876 169.76875 612.825 170.9875ZM628.02814 173.55L629.66876 173.75313Q629.27814 175.175 628.23126 175.97188Q627.1844 176.76875 625.5594 176.76875Q623.5125 176.76875 622.3094 175.50313Q621.10626 174.2375 621.10626 171.95625Q621.10626 169.6125 622.3094 168.31563Q623.52814 167.00313 625.46564 167.00313Q627.34064 167.00313 628.52814 168.28438Q629.71564 169.55 629.71564 171.8625Q629.71564 172.00313 629.7 172.28438L622.7469 172.28438Q622.825 173.83125 623.60626 174.64375Q624.40314 175.45625 625.5594 175.45625Q626.4344 175.45625 627.04376 175.00313Q627.66876 174.55 628.02814 173.55ZM622.825 170.9875L628.04376 170.9875Q627.9344 169.81563 627.45 169.22188Q626.6844 168.3 625.48126 168.3Q624.40314 168.3 623.65314 169.03438Q622.91876 169.76875 622.825 170.9875ZM635.09064 175.12813L635.325 176.53438Q634.65314 176.675 634.1219 176.675Q633.2625 176.675 632.77814 176.40938Q632.3094 176.12813 632.1219 175.69063Q631.9344 175.2375 631.9344 173.81563L631.9344 168.44063L630.7625 168.44063L630.7625 167.22188L631.9344 167.22188L631.9344 164.90938L633.4969 163.95625L633.4969 167.22188L635.09064 167.22188L635.09064 168.44063L633.4969 168.44063L633.4969 173.90938Q633.4969 174.58125 633.575 174.78438Q633.66876 174.97188 633.85626 175.08125Q634.04376 175.19063 634.40314 175.19063Q634.65314 175.19063 635.09064 175.12813Z" fill-rule="nonzero"/><path fill="#9e9e9e" d="M595.3094 190.34688L595.3094 188.83125L603.6375 188.83125L603.6375 190.06563Q602.41876 191.37813 601.2 193.55Q599.9969 195.70625 599.34064 198.00313Q598.85626 199.62813 598.73126 201.55L597.10626 201.55Q597.1375 200.03438 597.7 197.87813Q598.27814 195.72188 599.34064 193.72188Q600.40314 191.72188 601.60626 190.34688L595.3094 190.34688ZM606.09064 201.55L606.09064 199.75313L607.8875 199.75313L607.8875 201.55L606.09064 201.55ZM610.2 195.19063Q610.2 192.90938 610.66876 191.51875Q611.1375 190.12813 612.0594 189.37813Q612.9969 188.6125 614.40314 188.6125Q615.4344 188.6125 616.21564 189.03438Q616.9969 189.44063 617.4969 190.2375Q618.0125 191.01875 618.3094 192.15938Q618.60626 193.28438 618.60626 195.19063Q618.60626 197.45625 618.1375 198.8625Q617.66876 200.25313 616.73126 201.01875Q615.8094 201.76875 614.40314 201.76875Q612.52814 201.76875 611.46564 200.44063Q610.2 198.83125 610.2 195.19063ZM611.825 195.19063Q611.825 198.3625 612.5594 199.425Q613.3094 200.47188 614.40314 200.47188Q615.48126 200.47188 616.23126 199.425Q616.98126 198.3625 616.98126 195.19063Q616.98126 192.01875 616.23126 190.97188Q615.48126 189.925 614.3875 189.925Q613.29376 189.925 612.6375 190.84688Q611.825 192.01875 611.825 195.19063ZM620.4969 191.75313Q620.4969 190.37813 621.1844 189.40938Q621.8875 188.44063 623.2 188.44063Q624.41876 188.44063 625.21564 189.31563Q626.0125 190.175 626.0125 191.8625Q626.0125 193.4875 625.2 194.37813Q624.40314 195.25313 623.21564 195.25313Q622.0594 195.25313 621.27814 194.39375Q620.4969 193.51875 620.4969 191.75313ZM623.2469 189.53438Q622.65314 189.53438 622.2625 190.05Q621.8719 190.55 621.8719 191.90938Q621.8719 193.15938 622.2625 193.65938Q622.66876 194.15938 623.2469 194.15938Q623.84064 194.15938 624.23126 193.65938Q624.6219 193.14375 624.6219 191.8Q624.6219 190.55 624.23126 190.05Q623.84064 189.53438 623.2469 189.53438ZM623.2625 202.01875L630.3094 188.44063L631.59064 188.44063L624.5594 202.01875L623.2625 202.01875ZM628.825 198.51875Q628.825 197.14375 629.5125 196.175Q630.21564 195.20625 631.54376 195.20625Q632.7625 195.20625 633.54376 196.08125Q634.34064 196.94063 634.34064 198.62813Q634.34064 200.25313 633.54376 201.14375Q632.7469 202.01875 631.5594 202.01875Q630.3875 202.01875 629.60626 201.14375Q628.825 200.26875 628.825 198.51875ZM631.59064 196.3Q630.9969 196.3 630.60626 196.81563Q630.21564 197.31563 630.21564 198.69063Q630.21564 199.90938 630.60626 200.425Q630.9969 200.94063 631.575 200.94063Q632.1844 200.94063 632.575 200.425Q632.96564 199.90938 632.96564 198.56563Q632.96564 197.31563 632.575 196.81563Q632.1844 196.3 631.59064 196.3Z" fill-rule="nonzero"/><path stroke="#757575" stroke-width="1.0" stroke-linecap="butt" d="M635.45 183.05L499.95 183.05L482.98935 156.8282" fill-rule="nonzero"/><path fill="#9e9e9e" d="M484.98935 156.8282C484.98935 155.72363 484.09393 154.8282 482.98935 154.8282C481.8848 154.8282 480.98935 155.72363 480.98935 156.8282C480.98935 157.93277 481.8848 158.8282 482.98935 158.8282C484.09393 158.8282 484.98935 157.93277 484.98935 156.8282" fill-rule="nonzero"/><path fill="#000000" d="M597.8719 296.95206L597.8719 295.43643L603.325 295.4208L603.325 300.20206Q602.075 301.20206 600.73126 301.71768Q599.40314 302.21768 597.9969 302.21768Q596.09064 302.21768 594.54376 301.40518Q592.9969 300.59268 592.2 299.06143Q591.40314 297.51456 591.40314 295.62393Q591.40314 293.7333 592.1844 292.1083Q592.98126 290.4833 594.45 289.68643Q595.9344 288.88956 597.85626 288.88956Q599.2625 288.88956 600.3875 289.34268Q601.5125 289.7958 602.15314 290.6083Q602.79376 291.4208 603.1375 292.71768L601.59064 293.13956Q601.3094 292.15518 600.8719 291.59268Q600.45 291.03018 599.6375 290.70206Q598.84064 290.3583 597.8719 290.3583Q596.7 290.3583 595.84064 290.71768Q594.9969 291.06143 594.46564 291.63956Q593.95 292.21768 593.65314 292.9208Q593.16876 294.1083 593.16876 295.51456Q593.16876 297.2333 593.7625 298.40518Q594.35626 299.56143 595.48126 300.12393Q596.6219 300.68643 597.8875 300.68643Q598.9969 300.68643 600.04376 300.26456Q601.10626 299.82706 601.65314 299.34268L601.65314 296.95206L597.8719 296.95206ZM605.6219 301.99893L605.6219 292.6708L607.04376 292.6708L607.04376 294.07706Q607.59064 293.09268 608.04376 292.78018Q608.5125 292.45206 609.0594 292.45206Q609.8719 292.45206 610.6844 292.96768L610.15314 294.43643Q609.5594 294.09268 608.98126 294.09268Q608.46564 294.09268 608.04376 294.40518Q607.6375 294.71768 607.46564 295.26456Q607.2 296.1083 607.2 297.1083L607.2 301.99893L605.6219 301.99893ZM618.02814 298.99893L619.66876 299.20206Q619.27814 300.62393 618.23126 301.4208Q617.1844 302.21768 615.5594 302.21768Q613.5125 302.21768 612.3094 300.95206Q611.10626 299.68643 611.10626 297.40518Q611.10626 295.06143 612.3094 293.76456Q613.52814 292.45206 615.46564 292.45206Q617.34064 292.45206 618.52814 293.7333Q619.71564 294.99893 619.71564 297.31143Q619.71564 297.45206 619.7 297.7333L612.7469 297.7333Q612.825 299.28018 613.60626 300.09268Q614.40314 300.90518 615.5594 300.90518Q616.4344 300.90518 617.04376 300.45206Q617.66876 299.99893 618.02814 298.99893ZM612.825 296.43643L618.04376 296.43643Q617.9344 295.26456 617.45 294.6708Q616.6844 293.74893 615.48126 293.74893Q614.40314 293.74893 613.65314 294.4833Q612.91876 295.21768 612.825 296.43643ZM628.02814 298.99893L629.66876 299.20206Q629.27814 300.62393 628.23126 301.4208Q627.1844 302.21768 625.5594 302.21768Q623.5125 302.21768 622.3094 300.95206Q621.10626 299.68643 621.10626 297.40518Q621.10626 295.06143 622.3094 293.76456Q623.52814 292.45206 625.46564 292.45206Q627.34064 292.45206 628.52814 293.7333Q629.71564 294.99893 629.71564 297.31143Q629.71564 297.45206 629.7 297.7333L622.7469 297.7333Q622.825 299.28018 623.60626 300.09268Q624.40314 300.90518 625.5594 300.90518Q626.4344 300.90518 627.04376 300.45206Q627.66876 299.99893 628.02814 298.99893ZM622.825 296.43643L628.04376 296.43643Q627.9344 295.26456 627.45 294.6708Q626.6844 293.74893 625.48126 293.74893Q624.40314 293.74893 623.65314 294.4833Q622.91876 295.21768 622.825 296.43643ZM635.09064 300.57706L635.325 301.9833Q634.65314 302.12393 634.1219 302.12393Q633.2625 302.12393 632.77814 301.8583Q632.3094 301.57706 632.1219 301.13956Q631.9344 300.68643 631.9344 299.26456L631.9344 293.88956L630.7625 293.88956L630.7625 292.6708L631.9344 292.6708L631.9344 290.3583L633.4969 289.40518L633.4969 292.6708L635.09064 292.6708L635.09064 293.88956L633.4969 293.88956L633.4969 299.3583Q633.4969 300.03018 633.575 300.2333Q633.66876 300.4208 633.85626 300.53018Q634.04376 300.63956 634.40314 300.63956Q634.65314 300.63956 635.09064 300.57706Z" fill-rule="nonzero"/><path fill="#9e9e9e" d="M593.5125 325.4833L593.5125 326.99893L584.9969 326.99893Q584.98126 326.4208 585.1844 325.90518Q585.5125 325.03018 586.21564 324.18643Q586.9344 323.34268 588.29376 322.2333Q590.3875 320.51456 591.1219 319.51456Q591.8719 318.49893 591.8719 317.6083Q591.8719 316.65518 591.2 316.01456Q590.52814 315.37393 589.45 315.37393Q588.29376 315.37393 587.60626 316.06143Q586.9344 316.74893 586.91876 317.95206L585.29376 317.78018Q585.46564 315.96768 586.54376 315.01456Q587.6375 314.06143 589.48126 314.06143Q591.325 314.06143 592.40314 315.09268Q593.4969 316.12393 593.4969 317.63956Q593.4969 318.40518 593.16876 319.15518Q592.85626 319.90518 592.1219 320.7333Q591.3875 321.56143 589.6844 322.99893Q588.2625 324.20206 587.85626 324.62393Q587.45 325.0458 587.2 325.4833L593.5125 325.4833ZM595.3094 315.7958L595.3094 314.28018L603.6375 314.28018L603.6375 315.51456Q602.41876 316.82706 601.2 318.99893Q599.9969 321.15518 599.34064 323.45206Q598.85626 325.07706 598.73126 326.99893L597.10626 326.99893Q597.1375 325.4833 597.7 323.32706Q598.27814 321.1708 599.34064 319.1708Q600.40314 317.1708 601.60626 315.7958L595.3094 315.7958ZM606.09064 326.99893L606.09064 325.20206L607.8875 325.20206L607.8875 326.99893L606.09064 326.99893ZM610.2 320.63956Q610.2 318.3583 610.66876 316.96768Q611.1375 315.57706 612.0594 314.82706Q612.9969 314.06143 614.40314 314.06143Q615.4344 314.06143 616.21564 314.4833Q616.9969 314.88956 617.4969 315.68643Q618.0125 316.46768 618.3094 317.6083Q618.60626 318.7333 618.60626 320.63956Q618.60626 322.90518 618.1375 324.31143Q617.66876 325.70206 616.73126 326.46768Q615.8094 327.21768 614.40314 327.21768Q612.52814 327.21768 611.46564 325.88956Q610.2 324.28018 610.2 320.63956ZM611.825 320.63956Q611.825 323.81143 612.5594 324.87393Q613.3094 325.9208 614.40314 325.9208Q615.48126 325.9208 616.23126 324.87393Q616.98126 323.81143 616.98126 320.63956Q616.98126 317.46768 616.23126 316.4208Q615.48126 315.37393 614.3875 315.37393Q613.29376 315.37393 612.6375 316.2958Q611.825 317.46768 611.825 320.63956ZM620.4969 317.20206Q620.4969 315.82706 621.1844 314.8583Q621.8875 313.88956 623.2 313.88956Q624.41876 313.88956 625.21564 314.76456Q626.0125 315.62393 626.0125 317.31143Q626.0125 318.93643 625.2 319.82706Q624.40314 320.70206 623.21564 320.70206Q622.0594 320.70206 621.27814 319.84268Q620.4969 318.96768 620.4969 317.20206ZM623.2469 314.9833Q622.65314 314.9833 622.2625 315.49893Q621.8719 315.99893 621.8719 317.3583Q621.8719 318.6083 622.2625 319.1083Q622.66876 319.6083 623.2469 319.6083Q623.84064 319.6083 624.23126 319.1083Q624.6219 318.59268 624.6219 317.24893Q624.6219 315.99893 624.23126 315.49893Q623.84064 314.9833 623.2469 314.9833ZM623.2625 327.46768L630.3094 313.88956L631.59064 313.88956L624.5594 327.46768L623.2625 327.46768ZM628.825 323.96768Q628.825 322.59268 629.5125 321.62393Q630.21564 320.65518 631.54376 320.65518Q632.7625 320.65518 633.54376 321.53018Q634.34064 322.38956 634.34064 324.07706Q634.34064 325.70206 633.54376 326.59268Q632.7469 327.46768 631.5594 327.46768Q630.3875 327.46768 629.60626 326.59268Q628.825 325.71768 628.825 323.96768ZM631.59064 321.74893Q630.9969 321.74893 630.60626 322.26456Q630.21564 322.76456 630.21564 324.13956Q630.21564 325.3583 630.60626 325.87393Q630.9969 326.38956 631.575 326.38956Q632.1844 326.38956 632.575 325.87393Q632.96564 325.3583 632.96564 324.01456Q632.96564 322.76456 632.575 322.26456Q632.1844 321.74893 631.59064 321.74893Z" fill-rule="nonzero"/><path stroke="#757575" stroke-width="1.0" stroke-linecap="butt" d="M635.45 308.49893L499.95 308.49893L427.12997 308.49893" fill-rule="nonzero"/><path fill="#9e9e9e" d="M429.12997 308.49893C429.12997 307.39438 428.23456 306.49893 427.12997 306.49893C426.02542 306.49893 425.12997 307.39438 425.12997 308.49893C425.12997 309.60352 426.02542 310.49893 427.12997 310.49893C428.23456 310.49893 429.12997 309.60352 429.12997 308.49893" fill-rule="nonzero"/></svg>