<svg version="1.1" viewBox="0.0 0.0 728.0 378.0" fill="none" stroke="none" stroke-linecap="square" stroke-miterlimit="10" width="728" height="378" xmlns:xlink="http://www.w3.org/1999/xlink" xmlns="http://www.w3.org/2000/svg"><path fill="#ffffff" d="M0 0L728.0 0L728.0 378.0L0 378.0L0 0Z" fill-rule="nonzero"/><path stroke="#333333" stroke-width="1.0" stroke-linecap="butt" d="M45.5 313.5L709.5 313.5" fill-rule="nonzero"/><path stroke="#cccccc" stroke-width="1.0" stroke-linecap="butt" d="M45.5 227.5L709.5 227.5" fill-rule="nonzero"/><path stroke="#cccccc" stroke-width="1.0" stroke-linecap="butt" d="M45.5 142.5L709.5 142.5" fill-rule="nonzero"/><path stroke="#cccccc" stroke-width="1.0" stroke-linecap="butt" d="M45.5 57.5L709.5 57.5" fill-rule="nonzero"/><clipPath id="id_0"><path d="M45.9 57.5L709.1 57.5L709.1 313.1L45.9 313.1L45.9 57.5Z" clip-rule="nonzero"/></clipPath><path stroke="#000000" stroke-width="2.0" stroke-linecap="butt" stroke-opacity="0.0" clip-path="url(#id_0)" d="M598.0 313.0L587.0 313.0L587.0 211.0C587.0 209.89543 587.89545 209.0 589.0 209.0L596.0 209.0C597.10455 209.0 598.0 209.89543 598.0 211.0Z" fill-rule="nonzero"/><path fill="#3c78d8" clip-path="url(#id_0)" d="M598.0 313.0L587.0 313.0L587.0 211.0C587.0 209.89543 587.89545 209.0 589.0 209.0L596.0 209.0C597.10455 209.0 598.0 209.89543 598.0 211.0Z" fill-rule="nonzero"/><path stroke="#000000" stroke-width="2.0" stroke-linecap="butt" stroke-opacity="0.0" clip-path="url(#id_0)" d="M474.0 313.0L463.0 313.0L463.0 221.0C463.0 219.89543 463.89542 219.0 465.0 219.0L472.0 219.0C473.10458 219.0 474.0 219.89543 474.0 221.0Z" fill-rule="nonzero"/><path fill="#3c78d8" clip-path="url(#id_0)" d="M474.0 313.0L463.0 313.0L463.0 221.0C463.0 219.89543 463.89542 219.0 465.0 219.0L472.0 219.0C473.10458 219.0 474.0 219.89543 474.0 221.0Z" fill-rule="nonzero"/><path stroke="#000000" stroke-width="2.0" stroke-linecap="butt" stroke-opacity="0.0" clip-path="url(#id_0)" d="M351.0 313.0L340.0 313.0L340.0 218.0C340.0 216.89543 340.89542 216.0 342.0 216.0L349.0 216.0C350.10458 216.0 351.0 216.89543 351.0 218.0Z" fill-rule="nonzero"/><path fill="#3c78d8" clip-path="url(#id_0)" d="M351.0 313.0L340.0 313.0L340.0 218.0C340.0 216.89543 340.89542 216.0 342.0 216.0L349.0 216.0C350.10458 216.0 351.0 216.89543 351.0 218.0Z" fill-rule="nonzero"/><path stroke="#000000" stroke-width="2.0" stroke-linecap="butt" stroke-opacity="0.0" clip-path="url(#id_0)" d="M227.0 313.0L216.0 313.0L216.0 246.0C216.0 244.89543 216.89543 244.0 218.0 244.0L225.0 244.0C226.10457 244.0 227.0 244.89543 227.0 246.0Z" fill-rule="nonzero"/><path fill="#3c78d8" clip-path="url(#id_0)" d="M227.0 313.0L216.0 313.0L216.0 246.0C216.0 244.89543 216.89543 244.0 218.0 244.0L225.0 244.0C226.10457 244.0 227.0 244.89543 227.0 246.0Z" fill-rule="nonzero"/><path stroke="#000000" stroke-width="2.0" stroke-linecap="butt" stroke-opacity="0.0" clip-path="url(#id_0)" d="M611.0 313.0L600.0 313.0L600.0 130.0C600.0 128.89543 600.89545 128.0 602.0 128.0L609.0 128.0C610.10455 128.0 611.0 128.89543 611.0 130.0Z" fill-rule="nonzero"/><path fill="#3c78d8" fill-opacity="0.5019608" clip-path="url(#id_0)" d="M611.0 313.0L600.0 313.0L600.0 130.0C600.0 128.89543 600.89545 128.0 602.0 128.0L609.0 128.0C610.10455 128.0 611.0 128.89543 611.0 130.0Z" fill-rule="nonzero"/><path stroke="#000000" stroke-width="2.0" stroke-linecap="butt" stroke-opacity="0.0" clip-path="url(#id_0)" d="M487.0 313.0L476.0 313.0L476.0 186.0C476.0 184.89543 476.89542 184.0 478.0 184.0L485.0 184.0C486.10458 184.0 487.0 184.89543 487.0 186.0Z" fill-rule="nonzero"/><path fill="#3c78d8" fill-opacity="0.5019608" clip-path="url(#id_0)" d="M487.0 313.0L476.0 313.0L476.0 186.0C476.0 184.89543 476.89542 184.0 478.0 184.0L485.0 184.0C486.10458 184.0 487.0 184.89543 487.0 186.0Z" fill-rule="nonzero"/><path stroke="#000000" stroke-width="2.0" stroke-linecap="butt" stroke-opacity="0.0" clip-path="url(#id_0)" d="M364.0 313.0L353.0 313.0L353.0 180.0C353.0 178.89543 353.89542 178.0 355.0 178.0L362.0 178.0C363.10458 178.0 364.0 178.89543 364.0 180.0Z" fill-rule="nonzero"/><path fill="#3c78d8" fill-opacity="0.5019608" clip-path="url(#id_0)" d="M364.0 313.0L353.0 313.0L353.0 180.0C353.0 178.89543 353.89542 178.0 355.0 178.0L362.0 178.0C363.10458 178.0 364.0 178.89543 364.0 180.0Z" fill-rule="nonzero"/><path stroke="#000000" stroke-width="2.0" stroke-linecap="butt" stroke-opacity="0.0" clip-path="url(#id_0)" d="M240.0 313.0L229.0 313.0L229.0 238.0C229.0 236.89543 229.89543 236.0 231.0 236.0L238.0 236.0C239.10457 236.0 240.0 236.89543 240.0 238.0Z" fill-rule="nonzero"/><path fill="#3c78d8" fill-opacity="0.5019608" clip-path="url(#id_0)" d="M240.0 313.0L229.0 313.0L229.0 238.0C229.0 236.89543 229.89543 236.0 231.0 236.0L238.0 236.0C239.10457 236.0 240.0 236.89543 240.0 238.0Z" fill-rule="nonzero"/><path stroke="#000000" stroke-width="2.0" stroke-linecap="butt" stroke-opacity="0.0" clip-path="url(#id_0)" d="M624.0 313.0L613.0 313.0L613.0 180.0C613.0 178.89543 613.89545 178.0 615.0 178.0L622.0 178.0C623.10455 178.0 624.0 178.89543 624.0 180.0Z" fill-rule="nonzero"/><path fill="#fbbc04" clip-path="url(#id_0)" d="M624.0 313.0L613.0 313.0L613.0 180.0C613.0 178.89543 613.89545 178.0 615.0 178.0L622.0 178.0C623.10455 178.0 624.0 178.89543 624.0 180.0Z" fill-rule="nonzero"/><path stroke="#000000" stroke-width="2.0" stroke-linecap="butt" stroke-opacity="0.0" clip-path="url(#id_0)" d="M500.0 313.0L489.0 313.0L489.0 205.0C489.0 203.89543 489.89542 203.0 491.0 203.0L498.0 203.0C499.10458 203.0 500.0 203.89543 500.0 205.0Z" fill-rule="nonzero"/><path fill="#fbbc04" clip-path="url(#id_0)" d="M500.0 313.0L489.0 313.0L489.0 205.0C489.0 203.89543 489.89542 203.0 491.0 203.0L498.0 203.0C499.10458 203.0 500.0 203.89543 500.0 205.0Z" fill-rule="nonzero"/><path stroke="#000000" stroke-width="2.0" stroke-linecap="butt" stroke-opacity="0.0" clip-path="url(#id_0)" d="M377.0 313.0L366.0 313.0L366.0 213.0C366.0 211.89543 366.89542 211.0 368.0 211.0L375.0 211.0C376.10458 211.0 377.0 211.89543 377.0 213.0Z" fill-rule="nonzero"/><path fill="#fbbc04" clip-path="url(#id_0)" d="M377.0 313.0L366.0 313.0L366.0 213.0C366.0 211.89543 366.89542 211.0 368.0 211.0L375.0 211.0C376.10458 211.0 377.0 211.89543 377.0 213.0Z" fill-rule="nonzero"/><path stroke="#000000" stroke-width="2.0" stroke-linecap="butt" stroke-opacity="0.0" clip-path="url(#id_0)" d="M253.0 313.0L242.0 313.0L242.0 239.0C242.0 237.89543 242.89543 237.0 244.0 237.0L251.0 237.0C252.10457 237.0 253.0 237.89543 253.0 239.0Z" fill-rule="nonzero"/><path fill="#fbbc04" clip-path="url(#id_0)" d="M253.0 313.0L242.0 313.0L242.0 239.0C242.0 237.89543 242.89543 237.0 244.0 237.0L251.0 237.0C252.10457 237.0 253.0 237.89543 253.0 239.0Z" fill-rule="nonzero"/><path stroke="#000000" stroke-width="2.0" stroke-linecap="butt" stroke-opacity="0.0" clip-path="url(#id_0)" d="M637.0 313.0L626.0 313.0L626.0 113.0C626.0 111.89543 626.89545 111.0 628.0 111.0L635.0 111.0C636.10455 111.0 637.0 111.89543 637.0 113.0Z" fill-rule="nonzero"/><path fill="#f1c232" fill-opacity="0.5019608" clip-path="url(#id_0)" d="M637.0 313.0L626.0 313.0L626.0 113.0C626.0 111.89543 626.89545 111.0 628.0 111.0L635.0 111.0C636.10455 111.0 637.0 111.89543 637.0 113.0Z" fill-rule="nonzero"/><path stroke="#000000" stroke-width="2.0" stroke-linecap="butt" stroke-opacity="0.0" clip-path="url(#id_0)" d="M513.0 313.0L502.0 313.0L502.0 180.0C502.0 178.89543 502.89542 178.0 504.0 178.0L511.0 178.0C512.10455 178.0 513.0 178.89543 513.0 180.0Z" fill-rule="nonzero"/><path fill="#f1c232" fill-opacity="0.5019608" clip-path="url(#id_0)" d="M513.0 313.0L502.0 313.0L502.0 180.0C502.0 178.89543 502.89542 178.0 504.0 178.0L511.0 178.0C512.10455 178.0 513.0 178.89543 513.0 180.0Z" fill-rule="nonzero"/><path stroke="#000000" stroke-width="2.0" stroke-linecap="butt" stroke-opacity="0.0" clip-path="url(#id_0)" d="M390.0 313.0L379.0 313.0L379.0 174.0C379.0 172.89543 379.89542 172.0 381.0 172.0L388.0 172.0C389.10458 172.0 390.0 172.89543 390.0 174.0Z" fill-rule="nonzero"/><path fill="#f1c232" fill-opacity="0.5019608" clip-path="url(#id_0)" d="M390.0 313.0L379.0 313.0L379.0 174.0C379.0 172.89543 379.89542 172.0 381.0 172.0L388.0 172.0C389.10458 172.0 390.0 172.89543 390.0 174.0Z" fill-rule="nonzero"/><path stroke="#000000" stroke-width="2.0" stroke-linecap="butt" stroke-opacity="0.0" clip-path="url(#id_0)" d="M266.0 313.0L255.0 313.0L255.0 180.0C255.0 178.89543 255.89543 178.0 257.0 178.0L264.0 178.0C265.10458 178.0 266.0 178.89543 266.0 180.0Z" fill-rule="nonzero"/><path fill="#f1c232" fill-opacity="0.5019608" clip-path="url(#id_0)" d="M266.0 313.0L255.0 313.0L255.0 180.0C255.0 178.89543 255.89543 178.0 257.0 178.0L264.0 178.0C265.10458 178.0 266.0 178.89543 266.0 180.0Z" fill-rule="nonzero"/><path stroke="#000000" stroke-width="2.0" stroke-linecap="butt" stroke-opacity="0.0" clip-path="url(#id_0)" d="M650.0 313.0L639.0 313.0L639.0 177.0C639.0 175.89543 639.89545 175.0 641.0 175.0L648.0 175.0C649.10455 175.0 650.0 175.89543 650.0 177.0Z" fill-rule="nonzero"/><path fill="#ff0000" clip-path="url(#id_0)" d="M650.0 313.0L639.0 313.0L639.0 177.0C639.0 175.89543 639.89545 175.0 641.0 175.0L648.0 175.0C649.10455 175.0 650.0 175.89543 650.0 177.0Z" fill-rule="nonzero"/><path stroke="#000000" stroke-width="2.0" stroke-linecap="butt" stroke-opacity="0.0" clip-path="url(#id_0)" d="M526.0 313.0L515.0 313.0L515.0 180.0C515.0 178.89543 515.89545 178.0 517.0 178.0L524.0 178.0C525.10455 178.0 526.0 178.89543 526.0 180.0Z" fill-rule="nonzero"/><path fill="#ff0000" clip-path="url(#id_0)" d="M526.0 313.0L515.0 313.0L515.0 180.0C515.0 178.89543 515.89545 178.0 517.0 178.0L524.0 178.0C525.10455 178.0 526.0 178.89543 526.0 180.0Z" fill-rule="nonzero"/><path stroke="#000000" stroke-width="2.0" stroke-linecap="butt" stroke-opacity="0.0" clip-path="url(#id_0)" d="M403.0 313.0L392.0 313.0L392.0 175.0C392.0 173.89543 392.89542 173.0 394.0 173.0L401.0 173.0C402.10458 173.0 403.0 173.89543 403.0 175.0Z" fill-rule="nonzero"/><path fill="#ff0000" clip-path="url(#id_0)" d="M403.0 313.0L392.0 313.0L392.0 175.0C392.0 173.89543 392.89542 173.0 394.0 173.0L401.0 173.0C402.10458 173.0 403.0 173.89543 403.0 175.0Z" fill-rule="nonzero"/><path stroke="#000000" stroke-width="2.0" stroke-linecap="butt" stroke-opacity="0.0" clip-path="url(#id_0)" d="M279.0 313.0L268.0 313.0L268.0 211.0C268.0 209.89543 268.89542 209.0 270.0 209.0L277.0 209.0C278.10458 209.0 279.0 209.89543 279.0 211.0Z" fill-rule="nonzero"/><path fill="#ff0000" clip-path="url(#id_0)" d="M279.0 313.0L268.0 313.0L268.0 211.0C268.0 209.89543 268.89542 209.0 270.0 209.0L277.0 209.0C278.10458 209.0 279.0 209.89543 279.0 211.0Z" fill-rule="nonzero"/><path stroke="#000000" stroke-width="2.0" stroke-linecap="butt" stroke-opacity="0.0" clip-path="url(#id_0)" d="M155.0 313.0L144.0 313.0L144.0 251.0C144.0 249.89543 144.89543 249.0 146.0 249.0L153.0 249.0C154.10457 249.0 155.0 249.89543 155.0 251.0Z" fill-rule="nonzero"/><path fill="#ff0000" clip-path="url(#id_0)" d="M155.0 313.0L144.0 313.0L144.0 251.0C144.0 249.89543 144.89543 249.0 146.0 249.0L153.0 249.0C154.10457 249.0 155.0 249.89543 155.0 251.0Z" fill-rule="nonzero"/><path stroke="#000000" stroke-width="2.0" stroke-linecap="butt" stroke-opacity="0.0" clip-path="url(#id_0)" d="M663.0 313.0L652.0 313.0L652.0 62.0C652.0 60.89543 652.89545 60.0 654.0 60.0L661.0 60.0C662.10455 60.0 663.0 60.89543 663.0 62.0Z" fill-rule="nonzero"/><path fill="#ff0000" fill-opacity="0.5019608" clip-path="url(#id_0)" d="M663.0 313.0L652.0 313.0L652.0 62.0C652.0 60.89543 652.89545 60.0 654.0 60.0L661.0 60.0C662.10455 60.0 663.0 60.89543 663.0 62.0Z" fill-rule="nonzero"/><path stroke="#000000" stroke-width="2.0" stroke-linecap="butt" stroke-opacity="0.0" clip-path="url(#id_0)" d="M539.0 313.0L528.0 313.0L528.0 106.0C528.0 104.89543 528.89545 104.0 530.0 104.0L537.0 104.0C538.10455 104.0 539.0 104.89543 539.0 106.0Z" fill-rule="nonzero"/><path fill="#ff0000" fill-opacity="0.5019608" clip-path="url(#id_0)" d="M539.0 313.0L528.0 313.0L528.0 106.0C528.0 104.89543 528.89545 104.0 530.0 104.0L537.0 104.0C538.10455 104.0 539.0 104.89543 539.0 106.0Z" fill-rule="nonzero"/><path stroke="#000000" stroke-width="2.0" stroke-linecap="butt" stroke-opacity="0.0" clip-path="url(#id_0)" d="M416.0 313.0L405.0 313.0L405.0 97.0C405.0 95.89543 405.89542 95.0 407.0 95.0L414.0 95.0C415.10458 95.0 416.0 95.89543 416.0 97.0Z" fill-rule="nonzero"/><path fill="#ff0000" fill-opacity="0.5019608" clip-path="url(#id_0)" d="M416.0 313.0L405.0 313.0L405.0 97.0C405.0 95.89543 405.89542 95.0 407.0 95.0L414.0 95.0C415.10458 95.0 416.0 95.89543 416.0 97.0Z" fill-rule="nonzero"/><path stroke="#000000" stroke-width="2.0" stroke-linecap="butt" stroke-opacity="0.0" clip-path="url(#id_0)" d="M292.0 313.0L281.0 313.0L281.0 146.0C281.0 144.89543 281.89542 144.0 283.0 144.0L290.0 144.0C291.10458 144.0 292.0 144.89543 292.0 146.0Z" fill-rule="nonzero"/><path fill="#ff0000" fill-opacity="0.5019608" clip-path="url(#id_0)" d="M292.0 313.0L281.0 313.0L281.0 146.0C281.0 144.89543 281.89542 144.0 283.0 144.0L290.0 144.0C291.10458 144.0 292.0 144.89543 292.0 146.0Z" fill-rule="nonzero"/><path stroke="#000000" stroke-width="2.0" stroke-linecap="butt" stroke-opacity="0.0" clip-path="url(#id_0)" d="M168.0 313.0L157.0 313.0L157.0 208.0C157.0 206.89543 157.89543 206.0 159.0 206.0L166.0 206.0C167.10457 206.0 168.0 206.89543 168.0 208.0Z" fill-rule="nonzero"/><path fill="#ff0000" fill-opacity="0.5019608" clip-path="url(#id_0)" d="M168.0 313.0L157.0 313.0L157.0 208.0C157.0 206.89543 157.89543 206.0 159.0 206.0L166.0 206.0C167.10457 206.0 168.0 206.89543 168.0 208.0Z" fill-rule="nonzero"/><path fill="#000000" d="M33.4 312.86563Q33.4 311.33438 33.7125 310.4125Q34.025 309.475 34.634377 308.975Q35.259377 308.475 36.196877 308.475Q36.884377 308.475 37.4 308.75626Q37.93125 309.0375 38.275 309.56876Q38.61875 310.08438 38.80625 310.83438Q38.99375 311.58438 38.99375 312.86563Q38.99375 314.38126 38.68125 315.30313Q38.384377 316.225 37.759377 316.74063Q37.15 317.24063 36.196877 317.24063Q34.9625 317.24063 34.24375 316.35Q33.4 315.2875 33.4 312.86563ZM34.478127 312.86563Q34.478127 314.975 34.978127 315.67813Q35.478127 316.38126 36.196877 316.38126Q36.93125 316.38126 37.415627 315.67813Q37.915627 314.975 37.915627 312.86563Q37.915627 310.74063 37.415627 310.05313Q36.93125 309.35 36.18125 309.35Q35.4625 309.35 35.025 309.95938Q34.478127 310.74063 34.478127 312.86563Z" fill-rule="nonzero"/><path fill="#000000" d="M33.4 229.65L34.509377 229.55624Q34.634377 230.36874 35.071877 230.775Q35.525 231.18124 36.165627 231.18124Q36.915627 231.18124 37.446877 230.60312Q37.978127 230.025 37.978127 229.0875Q37.978127 228.18124 37.4625 227.66562Q36.9625 227.13437 36.134377 227.13437Q35.634377 227.13437 35.2125 227.36874Q34.80625 227.60312 34.571877 227.9625L33.5875 227.8375L34.415627 223.43124L38.696877 223.43124L38.696877 224.43124L35.259377 224.43124L34.80625 226.74374Q35.571877 226.19687 36.415627 226.19687Q37.540627 226.19687 38.30625 226.97812Q39.0875 227.75937 39.0875 228.99374Q39.0875 230.15 38.415627 231.00937Q37.5875 232.04062 36.165627 232.04062Q34.99375 232.04062 34.24375 231.38437Q33.509377 230.72812 33.4 229.65Z" fill-rule="nonzero"/><path fill="#000000" d="M30.36875 146.7L29.321875 146.7L29.321875 139.98125Q28.93125 140.34062 28.30625 140.71562Q27.696875 141.075 27.2125 141.24687L27.2125 140.23125Q28.0875 139.80937 28.74375 139.23125Q29.415625 138.6375 29.696875 138.075L30.36875 138.075L30.36875 146.7ZM33.4 142.46562Q33.4 140.93437 33.7125 140.0125Q34.025 139.075 34.634377 138.575Q35.259377 138.075 36.196877 138.075Q36.884377 138.075 37.4 138.35625Q37.93125 138.6375 38.275 139.16875Q38.61875 139.68437 38.80625 140.43437Q38.99375 141.18437 38.99375 142.46562Q38.99375 143.98125 38.68125 144.90312Q38.384377 145.825 37.759377 146.34062Q37.15 146.84062 36.196877 146.84062Q34.9625 146.84062 34.24375 145.95Q33.4 144.8875 33.4 142.46562ZM34.478127 142.46562Q34.478127 144.575 34.978127 145.27812Q35.478127 145.98125 36.196877 145.98125Q36.93125 145.98125 37.415627 145.27812Q37.915627 144.575 37.915627 142.46562Q37.915627 140.34062 37.415627 139.65312Q36.93125 138.95 36.18125 138.95Q35.4625 138.95 35.025 139.55937Q34.478127 140.34062 34.478127 142.46562Z" fill-rule="nonzero"/><path fill="#000000" d="M30.36875 61.5L29.321875 61.5L29.321875 54.78125Q28.93125 55.140625 28.30625 55.515625Q27.696875 55.875 27.2125 56.046875L27.2125 55.03125Q28.0875 54.609375 28.74375 54.03125Q29.415625 53.4375 29.696875 52.875L30.36875 52.875L30.36875 61.5ZM33.4 59.25L34.509377 59.15625Q34.634377 59.96875 35.071877 60.375Q35.525 60.78125 36.165627 60.78125Q36.915627 60.78125 37.446877 60.203125Q37.978127 59.625 37.978127 58.6875Q37.978127 57.78125 37.4625 57.265625Q36.9625 56.734375 36.134377 56.734375Q35.634377 56.734375 35.2125 56.96875Q34.80625 57.203125 34.571877 57.5625L33.5875 57.4375L34.415627 53.03125L38.696877 53.03125L38.696877 54.03125L35.259377 54.03125L34.80625 56.34375Q35.571877 55.796875 36.415627 55.796875Q37.540627 55.796875 38.30625 56.578125Q39.0875 57.359375 39.0875 58.59375Q39.0875 59.75 38.415627 60.609375Q37.5875 61.640625 36.165627 61.640625Q34.99375 61.640625 34.24375 60.984375Q33.509377 60.328125 33.4 59.25Z" fill-rule="nonzero"/><path fill="#000000" d="M588.7065 330.52188Q588.7065 327.6625 590.23773 326.05313Q591.769 324.44376 594.19086 324.44376Q595.769 324.44376 597.0346 325.20938Q598.31586 325.95938 598.98773 327.31876Q599.6596 328.6625 599.6596 330.38126Q599.6596 332.13126 598.9565 333.50626Q598.25336 334.88126 596.9565 335.6Q595.67523 336.30313 594.17523 336.30313Q592.56586 336.30313 591.2846 335.52188Q590.019 334.725 589.36273 333.38126Q588.7065 332.02188 588.7065 330.52188ZM590.269 330.5375Q590.269 332.61563 591.37836 333.80313Q592.48773 334.99063 594.17523 334.99063Q595.87836 334.99063 596.98773 333.7875Q598.0971 332.58438 598.0971 330.38126Q598.0971 328.975 597.61273 327.94376Q597.144 326.89688 596.23773 326.31876Q595.3315 325.74063 594.19086 325.74063Q592.5815 325.74063 591.42523 326.85Q590.269 327.95938 590.269 330.5375ZM601.19086 336.1L601.19086 324.64688L606.269 324.64688Q607.80023 324.64688 608.5971 324.95938Q609.394 325.25626 609.86273 326.0375Q610.3471 326.81876 610.3471 327.77188Q610.3471 328.99063 609.55023 329.83438Q608.769 330.6625 607.11273 330.88126Q607.7221 331.17813 608.0346 331.45938Q608.69086 332.06876 609.2846 332.975L611.2846 336.1L609.37836 336.1L607.86273 333.70938Q607.19086 332.67813 606.75336 332.13126Q606.3315 331.58438 605.98773 331.36563Q605.6596 331.14688 605.30023 331.06876Q605.05023 331.00626 604.4565 331.00626L602.7065 331.00626L602.7065 336.1L601.19086 336.1ZM602.7065 329.69376L605.9565 329.69376Q607.00336 329.69376 607.5815 329.49063Q608.17523 329.27188 608.4721 328.80313Q608.7846 328.31876 608.7846 327.77188Q608.7846 326.95938 608.19086 326.44376Q607.5971 325.9125 606.3315 325.9125L602.7065 325.9125L602.7065 329.69376ZM612.42523 336.1L612.42523 324.64688L613.94086 324.64688L613.94086 336.1L612.42523 336.1ZM615.144 336.1L615.144 324.64688L616.7065 324.64688L622.7221 333.63126L622.7221 324.64688L624.17523 324.64688L624.17523 336.1L622.61273 336.1L616.5971 327.1L616.5971 336.1L615.144 336.1ZM628.894 336.1L633.30023 324.64688L634.94086 324.64688L639.62836 336.1L637.894 336.1L636.56586 332.63126L631.769 332.63126L630.519 336.1L628.894 336.1ZM632.2065 331.39688L636.0971 331.39688L634.894 328.225Q634.3471 326.77188 634.0815 325.85Q633.86273 326.94376 633.4721 328.0375L632.2065 331.39688ZM646.519 331.6L646.519 330.25626L651.37836 330.25626L651.37836 334.50626Q650.25336 335.39688 649.06586 335.85Q647.87836 336.30313 646.62836 336.30313Q644.94086 336.30313 643.56586 335.58438Q642.19086 334.85 641.48773 333.49063Q640.7846 332.11563 640.7846 330.42813Q640.7846 328.75626 641.4721 327.30313Q642.17523 325.85 643.48773 325.14688Q644.80023 324.44376 646.519 324.44376Q647.75336 324.44376 648.75336 324.85Q649.769 325.25626 650.3315 325.975Q650.9096 326.69376 651.2065 327.85L649.8315 328.225Q649.5815 327.35 649.19086 326.85Q648.81586 326.35 648.0971 326.05313Q647.394 325.74063 646.519 325.74063Q645.48773 325.74063 644.7221 326.06876Q643.9721 326.38126 643.50336 326.89688Q643.0346 327.4125 642.7846 328.02188Q642.3471 329.08438 642.3471 330.33438Q642.3471 331.86563 642.86273 332.89688Q643.394 333.92813 644.394 334.42813Q645.4096 334.92813 646.55023 334.92813Q647.5346 334.92813 648.4721 334.55313Q649.4096 334.1625 649.894 333.74063L649.894 331.6L646.519 331.6ZM652.00336 336.1L656.42523 330.13126L652.519 324.64688L654.3315 324.64688L656.4096 327.58438Q657.05023 328.49063 657.3315 328.99063Q657.7065 328.36563 658.23773 327.67813L660.5346 324.64688L662.19086 324.64688L658.1596 330.0375L662.50336 336.1L660.62836 336.1L657.73773 332.00626Q657.50336 331.6625 657.23773 331.24063Q656.86273 331.86563 656.69086 332.1L653.81586 336.1L652.00336 336.1Z" fill-rule="nonzero"/><path fill="#000000" d="M612.894 346.44376L611.48773 346.55313Q611.30023 345.725 610.9565 345.35Q610.394 344.75626 609.55023 344.75626Q608.87836 344.75626 608.37836 345.13126Q607.7065 345.61563 607.31586 346.55313Q606.94086 347.475 606.92523 349.19376Q607.44086 348.4125 608.17523 348.0375Q608.9096 347.6625 609.7065 347.6625Q611.11273 347.6625 612.0971 348.70938Q613.0971 349.74063 613.0971 351.38126Q613.0971 352.45938 612.62836 353.38126Q612.1596 354.30313 611.3471 354.80313Q610.5346 355.30313 609.50336 355.30313Q607.75336 355.30313 606.644 354.00626Q605.5346 352.70938 605.5346 349.74063Q605.5346 346.4125 606.75336 344.9125Q607.8315 343.6 609.644 343.6Q610.98773 343.6 611.8471 344.36563Q612.7221 345.11563 612.894 346.44376ZM607.144 351.38126Q607.144 352.11563 607.4565 352.7875Q607.769 353.44376 608.31586 353.7875Q608.87836 354.13126 609.48773 354.13126Q610.37836 354.13126 611.019 353.4125Q611.6596 352.69376 611.6596 351.45938Q611.6596 350.27188 611.019 349.6Q610.394 348.9125 609.42523 348.9125Q608.4721 348.9125 607.80023 349.6Q607.144 350.27188 607.144 351.38126ZM619.0971 355.1L619.0971 352.35L614.12836 352.35L614.12836 351.06876L619.36273 343.64688L620.50336 343.64688L620.50336 351.06876L622.05023 351.06876L622.05023 352.35L620.50336 352.35L620.50336 355.1L619.0971 355.1ZM619.0971 351.06876L619.0971 345.89688L615.519 351.06876L619.0971 351.06876ZM629.519 350.6L629.519 349.25626L634.37836 349.25626L634.37836 353.50626Q633.25336 354.39688 632.06586 354.85Q630.87836 355.30313 629.62836 355.30313Q627.94086 355.30313 626.56586 354.58438Q625.19086 353.85 624.48773 352.49063Q623.7846 351.11563 623.7846 349.42813Q623.7846 347.75626 624.4721 346.30313Q625.17523 344.85 626.48773 344.14688Q627.80023 343.44376 629.519 343.44376Q630.75336 343.44376 631.75336 343.85Q632.769 344.25626 633.3315 344.975Q633.9096 345.69376 634.2065 346.85L632.8315 347.225Q632.5815 346.35 632.19086 345.85Q631.81586 345.35 631.0971 345.05313Q630.394 344.74063 629.519 344.74063Q628.48773 344.74063 627.7221 345.06876Q626.9721 345.38126 626.50336 345.89688Q626.0346 346.4125 625.7846 347.02188Q625.3471 348.08438 625.3471 349.33438Q625.3471 350.86563 625.86273 351.89688Q626.394 352.92813 627.394 353.42813Q628.4096 353.92813 629.55023 353.92813Q630.5346 353.92813 631.4721 353.55313Q632.4096 353.1625 632.894 352.74063L632.894 350.6L629.519 350.6ZM636.0971 355.1L636.0971 343.64688L640.394 343.64688Q641.7065 343.64688 642.50336 343.99063Q643.30023 344.33438 643.73773 345.06876Q644.19086 345.7875 644.19086 346.56876Q644.19086 347.30313 643.7846 347.95938Q643.394 348.6 642.5971 349.00626Q643.62836 349.30313 644.19086 350.0375Q644.75336 350.77188 644.75336 351.77188Q644.75336 352.58438 644.4096 353.27188Q644.06586 353.95938 643.56586 354.33438Q643.06586 354.70938 642.31586 354.9125Q641.56586 355.1 640.4721 355.1L636.0971 355.1ZM637.61273 348.45938L640.0971 348.45938Q641.0971 348.45938 641.5346 348.31876Q642.11273 348.14688 642.4096 347.75626Q642.7065 347.35 642.7065 346.75626Q642.7065 346.17813 642.42523 345.75626Q642.1596 345.31876 641.644 345.1625Q641.144 344.99063 639.9096 344.99063L637.61273 344.99063L637.61273 348.45938ZM637.61273 353.74063L640.4721 353.74063Q641.2065 353.74063 641.50336 353.69376Q642.019 353.6 642.36273 353.38126Q642.7221 353.1625 642.94086 352.74063Q643.17523 352.31876 643.17523 351.77188Q643.17523 351.13126 642.8471 350.6625Q642.519 350.19376 641.94086 350.00626Q641.36273 349.80313 640.269 349.80313L637.61273 349.80313L637.61273 353.74063Z" fill-rule="nonzero"/><path fill="#000000" d="M453.54074 336.1L457.96262 330.13126L454.05637 324.64688L455.86887 324.64688L457.947 327.58438Q458.58762 328.49063 458.86887 328.99063Q459.24387 328.36563 459.77512 327.67813L462.072 324.64688L463.72824 324.64688L459.697 330.0375L464.04074 336.1L462.16574 336.1L459.27512 332.00626Q459.04074 331.6625 458.77512 331.24063Q458.40012 331.86563 458.22824 332.1L455.35324 336.1L453.54074 336.1ZM464.43137 336.1L468.83762 324.64688L470.47824 324.64688L475.16574 336.1L473.43137 336.1L472.10324 332.63126L467.30637 332.63126L466.05637 336.1L464.43137 336.1ZM467.74387 331.39688L471.6345 331.39688L470.43137 328.225Q469.8845 326.77188 469.61887 325.85Q469.40012 326.94376 469.0095 328.0375L467.74387 331.39688ZM479.97824 336.1L475.54074 324.64688L477.18137 324.64688L480.15012 332.95938Q480.5095 333.95938 480.7595 334.83438Q481.02512 333.89688 481.36887 332.95938L484.46262 324.64688L486.0095 324.64688L481.52512 336.1L479.97824 336.1ZM487.96262 336.1L487.96262 324.64688L489.47824 324.64688L489.47824 336.1L487.96262 336.1ZM490.72824 336.1L490.72824 324.64688L499.0095 324.64688L499.0095 325.99063L492.24387 325.99063L492.24387 329.50626L498.58762 329.50626L498.58762 330.85L492.24387 330.85L492.24387 334.74063L499.27512 334.74063L499.27512 336.1L490.72824 336.1ZM501.72824 336.1L501.72824 324.64688L506.80637 324.64688Q508.33762 324.64688 509.1345 324.95938Q509.93137 325.25626 510.40012 326.0375Q510.8845 326.81876 510.8845 327.77188Q510.8845 328.99063 510.08762 329.83438Q509.30637 330.6625 507.65012 330.88126Q508.2595 331.17813 508.572 331.45938Q509.22824 332.06876 509.822 332.975L511.822 336.1L509.91574 336.1L508.40012 333.70938Q507.72824 332.67813 507.29074 332.13126Q506.86887 331.58438 506.52512 331.36563Q506.197 331.14688 505.83762 331.06876Q505.58762 331.00626 504.99387 331.00626L503.24387 331.00626L503.24387 336.1L501.72824 336.1ZM503.24387 329.69376L506.49387 329.69376Q507.54074 329.69376 508.11887 329.49063Q508.71262 329.27188 509.0095 328.80313Q509.322 328.31876 509.322 327.77188Q509.322 326.95938 508.72824 326.44376Q508.1345 325.9125 506.86887 325.9125L503.24387 325.9125L503.24387 329.69376ZM515.4314 336.1L519.83765 324.64688L521.4783 324.64688L526.1658 336.1L524.4314 336.1L523.1033 332.63126L518.3064 332.63126L517.0564 336.1L515.4314 336.1ZM518.7439 331.39688L522.6345 331.39688L521.4314 328.225Q520.8845 326.77188 520.6189 325.85Q520.40015 326.94376 520.0095 328.0375L518.7439 331.39688ZM533.0564 331.6L533.0564 330.25626L537.9158 330.25626L537.9158 334.50626Q536.7908 335.39688 535.6033 335.85Q534.4158 336.30313 533.1658 336.30313Q531.4783 336.30313 530.1033 335.58438Q528.7283 334.85 528.02515 333.49063Q527.322 332.11563 527.322 330.42813Q527.322 328.75626 528.0095 327.30313Q528.71265 325.85 530.02515 325.14688Q531.33765 324.44376 533.0564 324.44376Q534.2908 324.44376 535.2908 324.85Q536.3064 325.25626 536.8689 325.975Q537.447 326.69376 537.7439 327.85L536.3689 328.225Q536.1189 327.35 535.7283 326.85Q535.3533 326.35 534.6345 326.05313Q533.9314 325.74063 533.0564 325.74063Q532.02515 325.74063 531.2595 326.06876Q530.5095 326.38126 530.0408 326.89688Q529.572 327.4125 529.322 328.02188Q528.8845 329.08438 528.8845 330.33438Q528.8845 331.86563 529.40015 332.89688Q529.9314 333.92813 530.9314 334.42813Q531.947 334.92813 533.08765 334.92813Q534.072 334.92813 535.0095 334.55313Q535.947 334.1625 536.4314 333.74063L536.4314 331.6L533.0564 331.6ZM538.5408 336.1L542.96265 330.13126L539.0564 324.64688L540.8689 324.64688L542.947 327.58438Q543.58765 328.49063 543.8689 328.99063Q544.2439 328.36563 544.77515 327.67813L547.072 324.64688L548.7283 324.64688L544.697 330.0375L549.0408 336.1L547.1658 336.1L544.27515 332.00626Q544.0408 331.6625 543.77515 331.24063Q543.40015 331.86563 543.2283 332.1L540.3533 336.1L538.5408 336.1Z" fill-rule="nonzero"/><path fill="#000000" d="M481.6345 352.06876L483.04074 351.88126Q483.29074 353.08438 483.86887 353.61563Q484.447 354.13126 485.29074 354.13126Q486.27512 354.13126 486.96262 353.44376Q487.65012 352.75626 487.65012 351.74063Q487.65012 350.77188 487.0095 350.14688Q486.3845 349.52188 485.40012 349.52188Q485.0095 349.52188 484.41574 349.67813L484.572 348.44376Q484.71262 348.45938 484.79074 348.45938Q485.697 348.45938 486.41574 347.99063Q487.1345 347.52188 487.1345 346.5375Q487.1345 345.77188 486.60324 345.27188Q486.08762 344.75626 485.2595 344.75626Q484.43137 344.75626 483.8845 345.27188Q483.33762 345.7875 483.18137 346.81876L481.77512 346.56876Q482.04074 345.14688 482.947 344.38126Q483.86887 343.6 485.22824 343.6Q486.16574 343.6 486.947 344.00626Q487.74387 344.39688 488.15012 345.1Q488.572 345.7875 488.572 346.56876Q488.572 347.31876 488.16574 347.92813Q487.77512 348.5375 486.99387 348.89688Q488.0095 349.13126 488.572 349.86563Q489.1345 350.6 489.1345 351.70938Q489.1345 353.20938 488.04074 354.25626Q486.947 355.30313 485.27512 355.30313Q483.77512 355.30313 482.77512 354.4125Q481.77512 353.50626 481.6345 352.06876ZM498.02512 353.74063L498.02512 355.1L490.447 355.1Q490.43137 354.58438 490.61887 354.11563Q490.90012 353.35 491.54074 352.6Q492.18137 351.85 493.3845 350.86563Q495.24387 349.33438 495.90012 348.44376Q496.55637 347.5375 496.55637 346.74063Q496.55637 345.9125 495.96262 345.33438Q495.36887 344.75626 494.40012 344.75626Q493.3845 344.75626 492.77512 345.36563Q492.16574 345.975 492.16574 347.05313L490.71262 346.9125Q490.86887 345.2875 491.83762 344.44376Q492.80637 343.6 494.43137 343.6Q496.08762 343.6 497.04074 344.52188Q498.0095 345.42813 498.0095 346.77188Q498.0095 347.45938 497.72824 348.13126Q497.447 348.7875 496.79074 349.52188Q496.1345 350.25626 494.61887 351.5375Q493.35324 352.6 492.99387 352.99063Q492.6345 353.36563 492.40012 353.74063L498.02512 353.74063ZM505.55637 350.6L505.55637 349.25626L510.41574 349.25626L510.41574 353.50626Q509.29074 354.39688 508.10324 354.85Q506.91574 355.30313 505.66574 355.30313Q503.97824 355.30313 502.60324 354.58438Q501.22824 353.85 500.52512 352.49063Q499.822 351.11563 499.822 349.42813Q499.822 347.75626 500.5095 346.30313Q501.21262 344.85 502.52512 344.14688Q503.83762 343.44376 505.55637 343.44376Q506.79074 343.44376 507.79074 343.85Q508.80637 344.25626 509.36887 344.975Q509.947 345.69376 510.24387 346.85L508.86887 347.225Q508.61887 346.35 508.22824 345.85Q507.85324 345.35 507.1345 345.05313Q506.43137 344.74063 505.55637 344.74063Q504.52512 344.74063 503.7595 345.06876Q503.0095 345.38126 502.54074 345.89688Q502.072 346.4125 501.822 347.02188Q501.3845 348.08438 501.3845 349.33438Q501.3845 350.86563 501.90012 351.89688Q502.43137 352.92813 503.43137 353.42813Q504.447 353.92813 505.58762 353.92813Q506.572 353.92813 507.5095 353.55313Q508.447 353.1625 508.93137 352.74063L508.93137 350.6L505.55637 350.6ZM512.1345 355.1L512.1345 343.64688L516.4314 343.64688Q517.7439 343.64688 518.5408 343.99063Q519.33765 344.33438 519.77515 345.06876Q520.2283 345.7875 520.2283 346.56876Q520.2283 347.30313 519.822 347.95938Q519.4314 348.6 518.6345 349.00626Q519.6658 349.30313 520.2283 350.0375Q520.7908 350.77188 520.7908 351.77188Q520.7908 352.58438 520.447 353.27188Q520.1033 353.95938 519.6033 354.33438Q519.1033 354.70938 518.3533 354.9125Q517.6033 355.1 516.5095 355.1L512.1345 355.1ZM513.65015 348.45938L516.1345 348.45938Q517.1345 348.45938 517.572 348.31876Q518.15015 348.14688 518.447 347.75626Q518.7439 347.35 518.7439 346.75626Q518.7439 346.17813 518.46265 345.75626Q518.197 345.31876 517.6814 345.1625Q517.1814 344.99063 515.947 344.99063L513.65015 344.99063L513.65015 348.45938ZM513.65015 353.74063L516.5095 353.74063Q517.2439 353.74063 517.5408 353.69376Q518.0564 353.6 518.40015 353.38126Q518.7595 353.1625 518.9783 352.74063Q519.21265 352.31876 519.21265 351.77188Q519.21265 351.13126 518.8845 350.6625Q518.5564 350.19376 517.9783 350.00626Q517.40015 349.80313 516.3064 349.80313L513.65015 349.80313L513.65015 353.74063Z" fill-rule="nonzero"/><path fill="#000000" d="M329.57812 336.1L334.0 330.13126L330.09375 324.64688L331.90625 324.64688L333.98438 327.58438Q334.625 328.49063 334.90625 328.99063Q335.28125 328.36563 335.8125 327.67813L338.10938 324.64688L339.76562 324.64688L335.73438 330.0375L340.07812 336.1L338.20312 336.1L335.3125 332.00626Q335.07812 331.6625 334.8125 331.24063Q334.4375 331.86563 334.26562 332.1L331.39062 336.1L329.57812 336.1ZM340.46875 336.1L344.875 324.64688L346.51562 324.64688L351.20312 336.1L349.46875 336.1L348.14062 332.63126L343.34375 332.63126L342.09375 336.1L340.46875 336.1ZM343.78125 331.39688L347.67188 331.39688L346.46875 328.225Q345.92188 326.77188 345.65625 325.85Q345.4375 326.94376 345.04688 328.0375L343.78125 331.39688ZM356.01562 336.1L351.57812 324.64688L353.21875 324.64688L356.1875 332.95938Q356.54688 333.95938 356.79688 334.83438Q357.0625 333.89688 357.40625 332.95938L360.5 324.64688L362.04688 324.64688L357.5625 336.1L356.01562 336.1ZM364.0 336.1L364.0 324.64688L365.51562 324.64688L365.51562 336.1L364.0 336.1ZM366.76562 336.1L366.76562 324.64688L375.04688 324.64688L375.04688 325.99063L368.28125 325.99063L368.28125 329.50626L374.625 329.50626L374.625 330.85L368.28125 330.85L368.28125 334.74063L375.3125 334.74063L375.3125 336.1L366.76562 336.1ZM377.76562 336.1L377.76562 324.64688L382.84375 324.64688Q384.375 324.64688 385.17188 324.95938Q385.96875 325.25626 386.4375 326.0375Q386.92188 326.81876 386.92188 327.77188Q386.92188 328.99063 386.125 329.83438Q385.34375 330.6625 383.6875 330.88126Q384.29688 331.17813 384.60938 331.45938Q385.26562 332.06876 385.85938 332.975L387.85938 336.1L385.95312 336.1L384.4375 333.70938Q383.76562 332.67813 383.32812 332.13126Q382.90625 331.58438 382.5625 331.36563Q382.23438 331.14688 381.875 331.06876Q381.625 331.00626 381.03125 331.00626L379.28125 331.00626L379.28125 336.1L377.76562 336.1ZM379.28125 329.69376L382.53125 329.69376Q383.57812 329.69376 384.15625 329.49063Q384.75 329.27188 385.04688 328.80313Q385.35938 328.31876 385.35938 327.77188Q385.35938 326.95938 384.76562 326.44376Q384.17188 325.9125 382.90625 325.9125L379.28125 325.9125L379.28125 329.69376ZM391.46875 336.1L395.875 324.64688L397.51562 324.64688L402.20312 336.1L400.46875 336.1L399.14062 332.63126L394.34375 332.63126L393.09375 336.1L391.46875 336.1ZM394.78125 331.39688L398.67188 331.39688L397.46875 328.225Q396.92188 326.77188 396.65625 325.85Q396.4375 326.94376 396.04688 328.0375L394.78125 331.39688ZM409.09375 331.6L409.09375 330.25626L413.95312 330.25626L413.95312 334.50626Q412.82812 335.39688 411.64062 335.85Q410.45312 336.30313 409.20312 336.30313Q407.51562 336.30313 406.14062 335.58438Q404.76562 334.85 404.0625 333.49063Q403.35938 332.11563 403.35938 330.42813Q403.35938 328.75626 404.04688 327.30313Q404.75 325.85 406.0625 325.14688Q407.375 324.44376 409.09375 324.44376Q410.32812 324.44376 411.32812 324.85Q412.34375 325.25626 412.90625 325.975Q413.48438 326.69376 413.78125 327.85L412.40625 328.225Q412.15625 327.35 411.76562 326.85Q411.39062 326.35 410.67188 326.05313Q409.96875 325.74063 409.09375 325.74063Q408.0625 325.74063 407.29688 326.06876Q406.54688 326.38126 406.07812 326.89688Q405.60938 327.4125 405.35938 328.02188Q404.92188 329.08438 404.92188 330.33438Q404.92188 331.86563 405.4375 332.89688Q405.96875 333.92813 406.96875 334.42813Q407.98438 334.92813 409.125 334.92813Q410.10938 334.92813 411.04688 334.55313Q411.98438 334.1625 412.46875 333.74063L412.46875 331.6L409.09375 331.6ZM414.57812 336.1L419.0 330.13126L415.09375 324.64688L416.90625 324.64688L418.98438 327.58438Q419.625 328.49063 419.90625 328.99063Q420.28125 328.36563 420.8125 327.67813L423.10938 324.64688L424.76562 324.64688L420.73438 330.0375L425.07812 336.1L423.20312 336.1L420.3125 332.00626Q420.07812 331.6625 419.8125 331.24063Q419.4375 331.86563 419.26562 332.1L416.39062 336.1L414.57812 336.1Z" fill-rule="nonzero"/><path fill="#000000" d="M362.96875 355.1L361.5625 355.1L361.5625 346.13126Q361.04688 346.61563 360.21875 347.1Q359.40625 347.58438 358.75 347.83438L358.75 346.475Q359.92188 345.9125 360.79688 345.13126Q361.6875 344.33438 362.0625 343.6L362.96875 343.6L362.96875 355.1ZM373.96875 346.44376L372.5625 346.55313Q372.375 345.725 372.03125 345.35Q371.46875 344.75626 370.625 344.75626Q369.95312 344.75626 369.45312 345.13126Q368.78125 345.61563 368.39062 346.55313Q368.01562 347.475 368.0 349.19376Q368.51562 348.4125 369.25 348.0375Q369.98438 347.6625 370.78125 347.6625Q372.1875 347.6625 373.17188 348.70938Q374.17188 349.74063 374.17188 351.38126Q374.17188 352.45938 373.70312 353.38126Q373.23438 354.30313 372.42188 354.80313Q371.60938 355.30313 370.57812 355.30313Q368.82812 355.30313 367.71875 354.00626Q366.60938 352.70938 366.60938 349.74063Q366.60938 346.4125 367.82812 344.9125Q368.90625 343.6 370.71875 343.6Q372.0625 343.6 372.92188 344.36563Q373.79688 345.11563 373.96875 346.44376ZM368.21875 351.38126Q368.21875 352.11563 368.53125 352.7875Q368.84375 353.44376 369.39062 353.7875Q369.95312 354.13126 370.5625 354.13126Q371.45312 354.13126 372.09375 353.4125Q372.73438 352.69376 372.73438 351.45938Q372.73438 350.27188 372.09375 349.6Q371.46875 348.9125 370.5 348.9125Q369.54688 348.9125 368.875 349.6Q368.21875 350.27188 368.21875 351.38126ZM381.59375 350.6L381.59375 349.25626L386.45312 349.25626L386.45312 353.50626Q385.32812 354.39688 384.14062 354.85Q382.95312 355.30313 381.70312 355.30313Q380.01562 355.30313 378.64062 354.58438Q377.26562 353.85 376.5625 352.49063Q375.85938 351.11563 375.85938 349.42813Q375.85938 347.75626 376.54688 346.30313Q377.25 344.85 378.5625 344.14688Q379.875 343.44376 381.59375 343.44376Q382.82812 343.44376 383.82812 343.85Q384.84375 344.25626 385.40625 344.975Q385.98438 345.69376 386.28125 346.85L384.90625 347.225Q384.65625 346.35 384.26562 345.85Q383.89062 345.35 383.17188 345.05313Q382.46875 344.74063 381.59375 344.74063Q380.5625 344.74063 379.79688 345.06876Q379.04688 345.38126 378.57812 345.89688Q378.10938 346.4125 377.85938 347.02188Q377.42188 348.08438 377.42188 349.33438Q377.42188 350.86563 377.9375 351.89688Q378.46875 352.92813 379.46875 353.42813Q380.48438 353.92813 381.625 353.92813Q382.60938 353.92813 383.54688 353.55313Q384.48438 353.1625 384.96875 352.74063L384.96875 350.6L381.59375 350.6ZM388.17188 355.1L388.17188 343.64688L392.46875 343.64688Q393.78125 343.64688 394.57812 343.99063Q395.375 344.33438 395.8125 345.06876Q396.26562 345.7875 396.26562 346.56876Q396.26562 347.30313 395.85938 347.95938Q395.46875 348.6 394.67188 349.00626Q395.70312 349.30313 396.26562 350.0375Q396.82812 350.77188 396.82812 351.77188Q396.82812 352.58438 396.48438 353.27188Q396.14062 353.95938 395.64062 354.33438Q395.14062 354.70938 394.39062 354.9125Q393.64062 355.1 392.54688 355.1L388.17188 355.1ZM389.6875 348.45938L392.17188 348.45938Q393.17188 348.45938 393.60938 348.31876Q394.1875 348.14688 394.48438 347.75626Q394.78125 347.35 394.78125 346.75626Q394.78125 346.17813 394.5 345.75626Q394.23438 345.31876 393.71875 345.1625Q393.21875 344.99063 391.98438 344.99063L389.6875 344.99063L389.6875 348.45938ZM389.6875 353.74063L392.54688 353.74063Q393.28125 353.74063 393.57812 353.69376Q394.09375 353.6 394.4375 353.38126Q394.79688 353.1625 395.01562 352.74063Q395.25 352.31876 395.25 351.77188Q395.25 351.13126 394.92188 350.6625Q394.59375 350.19376 394.01562 350.00626Q393.4375 349.80313 392.34375 349.80313L389.6875 349.80313L389.6875 353.74063Z" fill-rule="nonzero"/><path fill="#000000" d="M222.81863 330.52188Q222.81863 327.6625 224.34988 326.05313Q225.88113 324.44376 228.30301 324.44376Q229.88113 324.44376 231.14676 325.20938Q232.42801 325.95938 233.09988 327.31876Q233.77176 328.6625 233.77176 330.38126Q233.77176 332.13126 233.06863 333.50626Q232.36551 334.88126 231.06863 335.6Q229.78738 336.30313 228.28738 336.30313Q226.67801 336.30313 225.39676 335.52188Q224.13113 334.725 223.47488 333.38126Q222.81863 332.02188 222.81863 330.52188ZM224.38113 330.5375Q224.38113 332.61563 225.49051 333.80313Q226.59988 334.99063 228.28738 334.99063Q229.99051 334.99063 231.09988 333.7875Q232.20926 332.58438 232.20926 330.38126Q232.20926 328.975 231.72488 327.94376Q231.25613 326.89688 230.34988 326.31876Q229.44363 325.74063 228.30301 325.74063Q226.69363 325.74063 225.53738 326.85Q224.38113 327.95938 224.38113 330.5375ZM235.30301 336.1L235.30301 324.64688L240.38113 324.64688Q241.91238 324.64688 242.70926 324.95938Q243.50613 325.25626 243.97488 326.0375Q244.45926 326.81876 244.45926 327.77188Q244.45926 328.99063 243.66238 329.83438Q242.88113 330.6625 241.22488 330.88126Q241.83426 331.17813 242.14676 331.45938Q242.80301 332.06876 243.39676 332.975L245.39676 336.1L243.49051 336.1L241.97488 333.70938Q241.30301 332.67813 240.86551 332.13126Q240.44363 331.58438 240.09988 331.36563Q239.77176 331.14688 239.41238 331.06876Q239.16238 331.00626 238.56863 331.00626L236.81863 331.00626L236.81863 336.1L235.30301 336.1ZM236.81863 329.69376L240.06863 329.69376Q241.11551 329.69376 241.69363 329.49063Q242.28738 329.27188 242.58426 328.80313Q242.89676 328.31876 242.89676 327.77188Q242.89676 326.95938 242.30301 326.44376Q241.70926 325.9125 240.44363 325.9125L236.81863 325.9125L236.81863 329.69376ZM246.53738 336.1L246.53738 324.64688L248.05301 324.64688L248.05301 336.1L246.53738 336.1ZM249.25613 336.1L249.25613 324.64688L250.81863 324.64688L256.83426 333.63126L256.83426 324.64688L258.28738 324.64688L258.28738 336.1L256.72488 336.1L250.70926 327.1L250.70926 336.1L249.25613 336.1ZM264.25613 336.1L264.25613 324.64688L265.81863 324.64688L271.83426 333.63126L271.83426 324.64688L273.28738 324.64688L273.28738 336.1L271.72488 336.1L265.70926 327.1L265.70926 336.1L264.25613 336.1ZM274.1155 336.1L278.53738 330.13126L274.63113 324.64688L276.44363 324.64688L278.52176 327.58438Q279.16238 328.49063 279.44363 328.99063Q279.81863 328.36563 280.34988 327.67813L282.64676 324.64688L284.303 324.64688L280.27176 330.0375L284.6155 336.1L282.7405 336.1L279.84988 332.00626Q279.6155 331.6625 279.34988 331.24063Q278.97488 331.86563 278.803 332.1L275.928 336.1L274.1155 336.1Z" fill-rule="nonzero"/><path fill="#000000" d="M237.00613 355.1L235.59988 355.1L235.59988 346.13126Q235.08426 346.61563 234.25613 347.1Q233.44363 347.58438 232.78738 347.83438L232.78738 346.475Q233.95926 345.9125 234.83426 345.13126Q235.72488 344.33438 236.09988 343.6L237.00613 343.6L237.00613 355.1ZM248.00613 346.44376L246.59988 346.55313Q246.41238 345.725 246.06863 345.35Q245.50613 344.75626 244.66238 344.75626Q243.99051 344.75626 243.49051 345.13126Q242.81863 345.61563 242.42801 346.55313Q242.05301 347.475 242.03738 349.19376Q242.55301 348.4125 243.28738 348.0375Q244.02176 347.6625 244.81863 347.6625Q246.22488 347.6625 247.20926 348.70938Q248.20926 349.74063 248.20926 351.38126Q248.20926 352.45938 247.74051 353.38126Q247.27176 354.30313 246.45926 354.80313Q245.64676 355.30313 244.61551 355.30313Q242.86551 355.30313 241.75613 354.00626Q240.64676 352.70938 240.64676 349.74063Q240.64676 346.4125 241.86551 344.9125Q242.94363 343.6 244.75613 343.6Q246.09988 343.6 246.95926 344.36563Q247.83426 345.11563 248.00613 346.44376ZM242.25613 351.38126Q242.25613 352.11563 242.56863 352.7875Q242.88113 353.44376 243.42801 353.7875Q243.99051 354.13126 244.59988 354.13126Q245.49051 354.13126 246.13113 353.4125Q246.77176 352.69376 246.77176 351.45938Q246.77176 350.27188 246.13113 349.6Q245.50613 348.9125 244.53738 348.9125Q243.58426 348.9125 242.91238 349.6Q242.25613 350.27188 242.25613 351.38126ZM259.63113 350.6L259.63113 349.25626L264.4905 349.25626L264.4905 353.50626Q263.3655 354.39688 262.178 354.85Q260.9905 355.30313 259.7405 355.30313Q258.053 355.30313 256.678 354.58438Q255.30301 353.85 254.59988 352.49063Q253.89676 351.11563 253.89676 349.42813Q253.89676 347.75626 254.58426 346.30313Q255.28738 344.85 256.59988 344.14688Q257.91238 343.44376 259.63113 343.44376Q260.8655 343.44376 261.8655 343.85Q262.88113 344.25626 263.44363 344.975Q264.02176 345.69376 264.31863 346.85L262.94363 347.225Q262.69363 346.35 262.303 345.85Q261.928 345.35 261.20926 345.05313Q260.50613 344.74063 259.63113 344.74063Q258.59988 344.74063 257.83426 345.06876Q257.08426 345.38126 256.6155 345.89688Q256.14676 346.4125 255.89676 347.02188Q255.45926 348.08438 255.45926 349.33438Q255.45926 350.86563 255.97488 351.89688Q256.50613 352.92813 257.50613 353.42813Q258.52176 353.92813 259.66238 353.92813Q260.64676 353.92813 261.58426 353.55313Q262.52176 353.1625 263.00613 352.74063L263.00613 350.6L259.63113 350.6ZM266.20926 355.1L266.20926 343.64688L270.50613 343.64688Q271.81863 343.64688 272.6155 343.99063Q273.41238 344.33438 273.84988 345.06876Q274.303 345.7875 274.303 346.56876Q274.303 347.30313 273.89676 347.95938Q273.50613 348.6 272.70926 349.00626Q273.7405 349.30313 274.303 350.0375Q274.8655 350.77188 274.8655 351.77188Q274.8655 352.58438 274.52176 353.27188Q274.178 353.95938 273.678 354.33438Q273.178 354.70938 272.428 354.9125Q271.678 355.1 270.58426 355.1L266.20926 355.1ZM267.72488 348.45938L270.20926 348.45938Q271.20926 348.45938 271.64676 348.31876Q272.22488 348.14688 272.52176 347.75626Q272.81863 347.35 272.81863 346.75626Q272.81863 346.17813 272.53738 345.75626Q272.27176 345.31876 271.75613 345.1625Q271.25613 344.99063 270.02176 344.99063L267.72488 344.99063L267.72488 348.45938ZM267.72488 353.74063L270.58426 353.74063Q271.31863 353.74063 271.6155 353.69376Q272.13113 353.6 272.47488 353.38126Q272.83426 353.1625 273.053 352.74063Q273.28738 352.31876 273.28738 351.77188Q273.28738 351.13126 272.95926 350.6625Q272.63113 350.19376 272.053 350.00626Q271.47488 349.80313 270.38113 349.80313L267.72488 349.80313L267.72488 353.74063Z" fill-rule="nonzero"/><path fill="#000000" d="M87.65289 336.1L92.07477 330.13126L88.16852 324.64688L89.98102 324.64688L92.05914 327.58438Q92.69977 328.49063 92.98102 328.99063Q93.35602 328.36563 93.88727 327.67813L96.18414 324.64688L97.84039 324.64688L93.80914 330.0375L98.15289 336.1L96.27789 336.1L93.38727 332.00626Q93.15289 331.6625 92.88727 331.24063Q92.51227 331.86563 92.34039 332.1L89.46539 336.1L87.65289 336.1ZM98.54352 336.1L102.94977 324.64688L104.59039 324.64688L109.27789 336.1L107.54352 336.1L106.21539 332.63126L101.41852 332.63126L100.16852 336.1L98.54352 336.1ZM101.85602 331.39688L105.74664 331.39688L104.54352 328.225Q103.99664 326.77188 103.73102 325.85Q103.51227 326.94376 103.12164 328.0375L101.85602 331.39688ZM114.09039 336.1L109.65289 324.64688L111.29352 324.64688L114.26227 332.95938Q114.62164 333.95938 114.87164 334.83438Q115.13727 333.89688 115.48102 332.95938L118.57477 324.64688L120.12164 324.64688L115.63727 336.1L114.09039 336.1ZM122.07477 336.1L122.07477 324.64688L123.59039 324.64688L123.59039 336.1L122.07477 336.1ZM124.84039 336.1L124.84039 324.64688L133.12164 324.64688L133.12164 325.99063L126.35602 325.99063L126.35602 329.50626L132.69977 329.50626L132.69977 330.85L126.35602 330.85L126.35602 334.74063L133.38727 334.74063L133.38727 336.1L124.84039 336.1ZM135.8404 336.1L135.8404 324.64688L140.91852 324.64688Q142.44977 324.64688 143.24664 324.95938Q144.04352 325.25626 144.51227 326.0375Q144.99664 326.81876 144.99664 327.77188Q144.99664 328.99063 144.19977 329.83438Q143.41852 330.6625 141.76227 330.88126Q142.37164 331.17813 142.68414 331.45938Q143.3404 332.06876 143.93414 332.975L145.93414 336.1L144.0279 336.1L142.51227 333.70938Q141.8404 332.67813 141.4029 332.13126Q140.98102 331.58438 140.63727 331.36563Q140.30914 331.14688 139.94977 331.06876Q139.69977 331.00626 139.10602 331.00626L137.35602 331.00626L137.35602 336.1L135.8404 336.1ZM137.35602 329.69376L140.60602 329.69376Q141.6529 329.69376 142.23102 329.49063Q142.82477 329.27188 143.12164 328.80313Q143.43414 328.31876 143.43414 327.77188Q143.43414 326.95938 142.8404 326.44376Q142.24664 325.9125 140.98102 325.9125L137.35602 325.9125L137.35602 329.69376ZM150.79352 336.1L150.79352 324.64688L152.35602 324.64688L158.37164 333.63126L158.37164 324.64688L159.82477 324.64688L159.82477 336.1L158.26227 336.1L152.24664 327.1L152.24664 336.1L150.79352 336.1ZM160.6529 336.1L165.07477 330.13126L161.16852 324.64688L162.98102 324.64688L165.05914 327.58438Q165.69977 328.49063 165.98102 328.99063Q166.35602 328.36563 166.88727 327.67813L169.18414 324.64688L170.8404 324.64688L166.80914 330.0375L171.1529 336.1L169.2779 336.1L166.38727 332.00626Q166.1529 331.6625 165.88727 331.24063Q165.51227 331.86563 165.3404 332.1L162.4654 336.1L160.6529 336.1Z" fill-rule="nonzero"/><path fill="#000000" d="M116.40289 348.88126Q115.52789 348.56876 115.10602 347.975Q114.68414 347.38126 114.68414 346.55313Q114.68414 345.30313 115.57477 344.45938Q116.48102 343.6 117.98102 343.6Q119.48102 343.6 120.38727 344.475Q121.30914 345.33438 121.30914 346.58438Q121.30914 347.38126 120.88727 347.975Q120.46539 348.56876 119.62164 348.88126Q120.66852 349.225 121.21539 349.99063Q121.77789 350.75626 121.77789 351.81876Q121.77789 353.2875 120.73102 354.30313Q119.69977 355.30313 117.99664 355.30313Q116.30914 355.30313 115.26227 354.30313Q114.23102 353.2875 114.23102 351.7875Q114.23102 350.6625 114.79352 349.9125Q115.35602 349.1625 116.40289 348.88126ZM116.12164 346.50626Q116.12164 347.31876 116.63727 347.83438Q117.16852 348.35 118.01227 348.35Q118.82477 348.35 119.34039 347.83438Q119.85602 347.31876 119.85602 346.58438Q119.85602 345.80313 119.32477 345.2875Q118.79352 344.75626 117.99664 344.75626Q117.18414 344.75626 116.65289 345.27188Q116.12164 345.7875 116.12164 346.50626ZM115.66852 351.7875Q115.66852 352.39688 115.94977 352.95938Q116.24664 353.52188 116.80914 353.83438Q117.37164 354.13126 118.01227 354.13126Q119.02789 354.13126 119.68414 353.49063Q120.34039 352.83438 120.34039 351.83438Q120.34039 350.81876 119.65289 350.1625Q118.98102 349.49063 117.96539 349.49063Q116.98102 349.49063 116.32477 350.14688Q115.66852 350.80313 115.66852 351.7875ZM129.16852 350.6L129.16852 349.25626L134.0279 349.25626L134.0279 353.50626Q132.9029 354.39688 131.7154 354.85Q130.5279 355.30313 129.2779 355.30313Q127.59039 355.30313 126.21539 354.58438Q124.84039 353.85 124.13727 352.49063Q123.43414 351.11563 123.43414 349.42813Q123.43414 347.75626 124.12164 346.30313Q124.82477 344.85 126.13727 344.14688Q127.44977 343.44376 129.16852 343.44376Q130.4029 343.44376 131.4029 343.85Q132.41852 344.25626 132.98102 344.975Q133.55914 345.69376 133.85602 346.85L132.48102 347.225Q132.23102 346.35 131.8404 345.85Q131.4654 345.35 130.74664 345.05313Q130.04352 344.74063 129.16852 344.74063Q128.13727 344.74063 127.37164 345.06876Q126.62164 345.38126 126.15289 345.89688Q125.68414 346.4125 125.43414 347.02188Q124.99664 348.08438 124.99664 349.33438Q124.99664 350.86563 125.51227 351.89688Q126.04352 352.92813 127.04352 353.42813Q128.05914 353.92813 129.19977 353.92813Q130.18414 353.92813 131.12164 353.55313Q132.05914 353.1625 132.54352 352.74063L132.54352 350.6L129.16852 350.6ZM135.74664 355.1L135.74664 343.64688L140.04352 343.64688Q141.35602 343.64688 142.1529 343.99063Q142.94977 344.33438 143.38727 345.06876Q143.8404 345.7875 143.8404 346.56876Q143.8404 347.30313 143.43414 347.95938Q143.04352 348.6 142.24664 349.00626Q143.2779 349.30313 143.8404 350.0375Q144.4029 350.77188 144.4029 351.77188Q144.4029 352.58438 144.05914 353.27188Q143.7154 353.95938 143.2154 354.33438Q142.7154 354.70938 141.9654 354.9125Q141.2154 355.1 140.12164 355.1L135.74664 355.1ZM137.26227 348.45938L139.74664 348.45938Q140.74664 348.45938 141.18414 348.31876Q141.76227 348.14688 142.05914 347.75626Q142.35602 347.35 142.35602 346.75626Q142.35602 346.17813 142.07477 345.75626Q141.80914 345.31876 141.29352 345.1625Q140.79352 344.99063 139.55914 344.99063L137.26227 344.99063L137.26227 348.45938ZM137.26227 353.74063L140.12164 353.74063Q140.85602 353.74063 141.1529 353.69376Q141.66852 353.6 142.01227 353.38126Q142.37164 353.1625 142.5904 352.74063Q142.82477 352.31876 142.82477 351.77188Q142.82477 351.13126 142.49664 350.6625Q142.16852 350.19376 141.5904 350.00626Q141.01227 349.80313 139.91852 349.80313L137.26227 349.80313L137.26227 353.74063Z" fill-rule="nonzero"/><path fill="#3c78d8" d="M29.0 23.4C29.0 22.847715 29.447716 22.4 30.0 22.4L40.0 22.4C40.552284 22.4 41.0 22.847715 41.0 23.4L41.0 33.4C41.0 33.952286 40.552284 34.4 40.0 34.4L30.0 34.4C29.447716 34.4 29.0 33.952286 29.0 33.4Z" fill-rule="nonzero"/><path fill="#1a1a1a" d="M50.265625 33.9L50.265625 22.446877L55.34375 22.446877Q56.875 22.446877 57.671875 22.759377Q58.46875 23.056252 58.9375 23.837502Q59.421875 24.618752 59.421875 25.571877Q59.421875 26.790627 58.625 27.634377Q57.84375 28.462502 56.1875 28.681252Q56.796875 28.978127 57.109375 29.259377Q57.765625 29.868752 58.359375 30.775002L60.359375 33.9L58.453125 33.9L56.9375 31.509377Q56.265625 30.478127 55.828125 29.931252Q55.40625 29.384377 55.0625 29.165627Q54.734375 28.946877 54.375 28.868752Q54.125 28.806252 53.53125 28.806252L51.78125 28.806252L51.78125 33.9L50.265625 33.9ZM51.78125 27.493752L55.03125 27.493752Q56.078125 27.493752 56.65625 27.290627Q57.25 27.071877 57.546875 26.603127Q57.859375 26.118752 57.859375 25.571877Q57.859375 24.759377 57.265625 24.243752Q56.671875 23.712502 55.40625 23.712502L51.78125 23.712502L51.78125 27.493752ZM61.234375 33.9L61.234375 22.446877L65.1875 22.446877Q66.515625 22.446877 67.21875 22.603127Q68.203125 22.837502 68.90625 23.431252Q69.8125 24.196877 70.25 25.384377Q70.703125 26.571877 70.703125 28.103127Q70.703125 29.415627 70.390625 30.431252Q70.09375 31.431252 69.609375 32.0875Q69.140625 32.74375 68.578125 33.134377Q68.015625 33.509377 67.203125 33.7125Q66.40625 33.9 65.375 33.9L61.234375 33.9ZM62.75 32.540627L65.203125 32.540627Q66.328125 32.540627 66.96875 32.3375Q67.625 32.11875 68.0 31.743752Q68.546875 31.196877 68.84375 30.290627Q69.140625 29.384377 69.140625 28.087502Q69.140625 26.290627 68.546875 25.321877Q67.96875 24.353127 67.125 24.025002Q66.515625 23.790627 65.15625 23.790627L62.75 23.790627L62.75 32.540627ZM73.1875 33.9L73.1875 22.446877L75.46875 22.446877L78.1875 30.556252Q78.5625 31.681252 78.734375 32.24375Q78.921875 31.618752 79.34375 30.415627L82.078125 22.446877L84.125 22.446877L84.125 33.9L82.65625 33.9L82.65625 24.306252L79.328125 33.9L77.96875 33.9L74.65625 24.150002L74.65625 33.9L73.1875 33.9ZM86.1875 33.9L86.1875 22.446877L88.46875 22.446877L91.1875 30.556252Q91.5625 31.681252 91.734375 32.24375Q91.921875 31.618752 92.34375 30.415627L95.078125 22.446877L97.125 22.446877L97.125 33.9L95.65625 33.9L95.65625 24.306252L92.328125 33.9L90.96875 33.9L87.65625 24.150002L87.65625 33.9L86.1875 33.9ZM98.515625 30.462502L98.515625 29.040627L102.828125 29.040627L102.828125 30.462502L98.515625 30.462502ZM105.828125 27.681252Q104.953125 27.368752 104.53125 26.775002Q104.109375 26.181252 104.109375 25.353127Q104.109375 24.103127 105.0 23.259377Q105.90625 22.400002 107.40625 22.400002Q108.90625 22.400002 109.8125 23.275002Q110.734375 24.134377 110.734375 25.384377Q110.734375 26.181252 110.3125 26.775002Q109.890625 27.368752 109.046875 27.681252Q110.09375 28.025002 110.640625 28.790627Q111.203125 29.556252 111.203125 30.618752Q111.203125 32.0875 110.15625 33.103127Q109.125 34.103127 107.421875 34.103127Q105.734375 34.103127 104.6875 33.103127Q103.65625 32.0875 103.65625 30.587502Q103.65625 29.462502 104.21875 28.712502Q104.78125 27.962502 105.828125 27.681252ZM105.546875 25.306252Q105.546875 26.118752 106.0625 26.634377Q106.59375 27.150002 107.4375 27.150002Q108.25 27.150002 108.765625 26.634377Q109.28125 26.118752 109.28125 25.384377Q109.28125 24.603127 108.75 24.087502Q108.21875 23.556252 107.421875 23.556252Q106.609375 23.556252 106.078125 24.071877Q105.546875 24.587502 105.546875 25.306252ZM105.09375 30.587502Q105.09375 31.196877 105.375 31.759377Q105.671875 32.321877 106.234375 32.634377Q106.796875 32.93125 107.4375 32.93125Q108.453125 32.93125 109.109375 32.290627Q109.765625 31.634377 109.765625 30.634377Q109.765625 29.618752 109.078125 28.962502Q108.40625 28.290627 107.390625 28.290627Q106.40625 28.290627 105.75 28.946877Q105.09375 29.603127 105.09375 30.587502ZM113.171875 33.9L113.171875 22.446877L117.46875 22.446877Q118.78125 22.446877 119.578125 22.790627Q120.375 23.134377 120.8125 23.868752Q121.265625 24.587502 121.265625 25.368752Q121.265625 26.103127 120.859375 26.759377Q120.46875 27.400002 119.671875 27.806252Q120.703125 28.103127 121.265625 28.837502Q121.828125 29.571877 121.828125 30.571877Q121.828125 31.384377 121.484375 32.071877Q121.140625 32.759377 120.640625 33.134377Q120.140625 33.509377 119.390625 33.7125Q118.640625 33.9 117.546875 33.9L113.171875 33.9ZM114.6875 27.259377L117.171875 27.259377Q118.171875 27.259377 118.609375 27.118752Q119.1875 26.946877 119.484375 26.556252Q119.78125 26.150002 119.78125 25.556252Q119.78125 24.978127 119.5 24.556252Q119.234375 24.118752 118.71875 23.962502Q118.21875 23.790627 116.984375 23.790627L114.6875 23.790627L114.6875 27.259377ZM114.6875 32.540627L117.546875 32.540627Q118.28125 32.540627 118.578125 32.49375Q119.09375 32.4 119.4375 32.18125Q119.796875 31.962502 120.015625 31.540627Q120.25 31.118752 120.25 30.571877Q120.25 29.931252 119.921875 29.462502Q119.59375 28.993752 119.015625 28.806252Q118.4375 28.603127 117.34375 28.603127L114.6875 28.603127L114.6875 32.540627Z" fill-rule="nonzero"/><path fill="#3c78d8" fill-opacity="0.5019608" d="M139.0 23.4C139.0 22.847715 139.44771 22.4 140.0 22.4L150.0 22.4C150.55229 22.4 151.0 22.847715 151.0 23.4L151.0 33.4C151.0 33.952286 150.55229 34.4 150.0 34.4L140.0 34.4C139.44771 34.4 139.0 33.952286 139.0 33.4Z" fill-rule="nonzero"/><path fill="#1a1a1a" d="M160.17188 33.9L160.17188 22.446877L161.6875 22.446877L161.6875 32.540627L167.32812 32.540627L167.32812 33.9L160.17188 33.9ZM169.03125 33.9L169.03125 22.446877L170.4375 22.446877L170.4375 33.9L169.03125 33.9ZM177.46875 32.86875Q176.6875 33.540627 175.96875 33.821877Q175.25 34.0875 174.42188 34.0875Q173.04688 34.0875 172.3125 33.415627Q171.57812 32.74375 171.57812 31.712502Q171.57812 31.103127 171.85938 30.603127Q172.14062 30.087502 172.57812 29.790627Q173.03125 29.478127 173.59375 29.321877Q174.01562 29.212502 174.84375 29.118752Q176.54688 28.915627 177.35938 28.634377Q177.35938 28.337502 177.35938 28.259377Q177.35938 27.400002 176.96875 27.056252Q176.42188 26.571877 175.35938 26.571877Q174.375 26.571877 173.89062 26.931252Q173.42188 27.275002 173.20312 28.150002L171.82812 27.962502Q172.01562 27.087502 172.4375 26.540627Q172.875 25.993752 173.6875 25.712502Q174.5 25.415627 175.5625 25.415627Q176.625 25.415627 177.28125 25.665627Q177.95312 25.915627 178.26562 26.290627Q178.57812 26.665627 178.70312 27.243752Q178.78125 27.603127 178.78125 28.540627L178.78125 30.415627Q178.78125 32.384377 178.85938 32.9Q178.95312 33.415627 179.21875 33.9L177.75 33.9Q177.53125 33.4625 177.46875 32.86875ZM177.35938 29.728127Q176.59375 30.040627 175.0625 30.259377Q174.1875 30.384377 173.82812 30.540627Q173.46875 30.696877 173.26562 31.009377Q173.07812 31.306252 173.07812 31.665627Q173.07812 32.228127 173.5 32.603127Q173.9375 32.978127 174.75 32.978127Q175.5625 32.978127 176.1875 32.634377Q176.82812 32.275 177.125 31.650002Q177.35938 31.181252 177.35938 30.243752L177.35938 29.728127ZM181.0625 33.9L181.0625 25.603127L182.3125 25.603127L182.3125 26.759377Q182.70312 26.150002 183.34375 25.790627Q184.0 25.415627 184.82812 25.415627Q185.75 25.415627 186.34375 25.806252Q186.9375 26.181252 187.17188 26.868752Q188.15625 25.415627 189.73438 25.415627Q190.96875 25.415627 191.625 26.103127Q192.29688 26.775002 192.29688 28.196877L192.29688 33.9L190.90625 33.9L190.90625 28.665627Q190.90625 27.821877 190.76562 27.462502Q190.625 27.087502 190.26562 26.868752Q189.90625 26.634377 189.42188 26.634377Q188.54688 26.634377 187.96875 27.212502Q187.39062 27.790627 187.39062 29.071877L187.39062 33.9L185.98438 33.9L185.98438 28.509377Q185.98438 27.571877 185.64062 27.103127Q185.29688 26.634377 184.51562 26.634377Q183.92188 26.634377 183.42188 26.946877Q182.92188 27.259377 182.6875 27.868752Q182.46875 28.462502 182.46875 29.587502L182.46875 33.9L181.0625 33.9ZM199.46875 32.86875Q198.6875 33.540627 197.96875 33.821877Q197.25 34.0875 196.42188 34.0875Q195.04688 34.0875 194.3125 33.415627Q193.57812 32.74375 193.57812 31.712502Q193.57812 31.103127 193.85938 30.603127Q194.14062 30.087502 194.57812 29.790627Q195.03125 29.478127 195.59375 29.321877Q196.01562 29.212502 196.84375 29.118752Q198.54688 28.915627 199.35938 28.634377Q199.35938 28.337502 199.35938 28.259377Q199.35938 27.400002 198.96875 27.056252Q198.42188 26.571877 197.35938 26.571877Q196.375 26.571877 195.89062 26.931252Q195.42188 27.275002 195.20312 28.150002L193.82812 27.962502Q194.01562 27.087502 194.4375 26.540627Q194.875 25.993752 195.6875 25.712502Q196.5 25.415627 197.5625 25.415627Q198.625 25.415627 199.28125 25.665627Q199.95312 25.915627 200.26562 26.290627Q200.57812 26.665627 200.70312 27.243752Q200.78125 27.603127 200.78125 28.540627L200.78125 30.415627Q200.78125 32.384377 200.85938 32.9Q200.95312 33.415627 201.21875 33.9L199.75 33.9Q199.53125 33.4625 199.46875 32.86875ZM199.35938 29.728127Q198.59375 30.040627 197.0625 30.259377Q196.1875 30.384377 195.82812 30.540627Q195.46875 30.696877 195.26562 31.009377Q195.07812 31.306252 195.07812 31.665627Q195.07812 32.228127 195.5 32.603127Q195.9375 32.978127 196.75 32.978127Q197.5625 32.978127 198.1875 32.634377Q198.82812 32.275 199.125 31.650002Q199.35938 31.181252 199.35938 30.243752L199.35938 29.728127ZM202.67188 30.868752L204.07812 30.681252Q204.32812 31.884377 204.90625 32.415627Q205.48438 32.93125 206.32812 32.93125Q207.3125 32.93125 208.0 32.24375Q208.6875 31.556252 208.6875 30.540627Q208.6875 29.571877 208.04688 28.946877Q207.42188 28.321877 206.4375 28.321877Q206.04688 28.321877 205.45312 28.478127L205.60938 27.243752Q205.75 27.259377 205.82812 27.259377Q206.73438 27.259377 207.45312 26.790627Q208.17188 26.321877 208.17188 25.337502Q208.17188 24.571877 207.64062 24.071877Q207.125 23.556252 206.29688 23.556252Q205.46875 23.556252 204.92188 24.071877Q204.375 24.587502 204.21875 25.618752L202.8125 25.368752Q203.07812 23.946877 203.98438 23.181252Q204.90625 22.400002 206.26562 22.400002Q207.20312 22.400002 207.98438 22.806252Q208.78125 23.196877 209.1875 23.900002Q209.60938 24.587502 209.60938 25.368752Q209.60938 26.118752 209.20312 26.728127Q208.8125 27.337502 208.03125 27.696877Q209.04688 27.931252 209.60938 28.665627Q210.17188 29.400002 210.17188 30.509377Q210.17188 32.009377 209.07812 33.05625Q207.98438 34.103127 206.3125 34.103127Q204.8125 34.103127 203.8125 33.2125Q202.8125 32.30625 202.67188 30.868752ZM211.51562 30.462502L211.51562 29.040627L215.82812 29.040627L215.82812 30.462502L211.51562 30.462502ZM218.82812 27.681252Q217.95312 27.368752 217.53125 26.775002Q217.10938 26.181252 217.10938 25.353127Q217.10938 24.103127 218.0 23.259377Q218.90625 22.400002 220.40625 22.400002Q221.90625 22.400002 222.8125 23.275002Q223.73438 24.134377 223.73438 25.384377Q223.73438 26.181252 223.3125 26.775002Q222.89062 27.368752 222.04688 27.681252Q223.09375 28.025002 223.64062 28.790627Q224.20312 29.556252 224.20312 30.618752Q224.20312 32.0875 223.15625 33.103127Q222.125 34.103127 220.42188 34.103127Q218.73438 34.103127 217.6875 33.103127Q216.65625 32.0875 216.65625 30.587502Q216.65625 29.462502 217.21875 28.712502Q217.78125 27.962502 218.82812 27.681252ZM218.54688 25.306252Q218.54688 26.118752 219.0625 26.634377Q219.59375 27.150002 220.4375 27.150002Q221.25 27.150002 221.76562 26.634377Q222.28125 26.118752 222.28125 25.384377Q222.28125 24.603127 221.75 24.087502Q221.21875 23.556252 220.42188 23.556252Q219.60938 23.556252 219.07812 24.071877Q218.54688 24.587502 218.54688 25.306252ZM218.09375 30.587502Q218.09375 31.196877 218.375 31.759377Q218.67188 32.321877 219.23438 32.634377Q219.79688 32.93125 220.4375 32.93125Q221.45312 32.93125 222.10938 32.290627Q222.76562 31.634377 222.76562 30.634377Q222.76562 29.618752 222.07812 28.962502Q221.40625 28.290627 220.39062 28.290627Q219.40625 28.290627 218.75 28.946877Q218.09375 29.603127 218.09375 30.587502ZM226.17188 33.9L226.17188 22.446877L230.46875 22.446877Q231.78125 22.446877 232.57812 22.790627Q233.375 23.134377 233.8125 23.868752Q234.26562 24.587502 234.26562 25.368752Q234.26562 26.103127 233.85938 26.759377Q233.46875 27.400002 232.67188 27.806252Q233.70312 28.103127 234.26562 28.837502Q234.82812 29.571877 234.82812 30.571877Q234.82812 31.384377 234.48438 32.071877Q234.14062 32.759377 233.64062 33.134377Q233.14062 33.509377 232.39062 33.7125Q231.64062 33.9 230.54688 33.9L226.17188 33.9ZM227.6875 27.259377L230.17188 27.259377Q231.17188 27.259377 231.60938 27.118752Q232.1875 26.946877 232.48438 26.556252Q232.78125 26.150002 232.78125 25.556252Q232.78125 24.978127 232.5 24.556252Q232.23438 24.118752 231.71875 23.962502Q231.21875 23.790627 229.98438 23.790627L227.6875 23.790627L227.6875 27.259377ZM227.6875 32.540627L230.54688 32.540627Q231.28125 32.540627 231.57812 32.49375Q232.09375 32.4 232.4375 32.18125Q232.79688 31.962502 233.01562 31.540627Q233.25 31.118752 233.25 30.571877Q233.25 29.931252 232.92188 29.462502Q232.59375 28.993752 232.01562 28.806252Q231.4375 28.603127 230.34375 28.603127L227.6875 28.603127L227.6875 32.540627Z" fill-rule="nonzero"/><path fill="#fbbc04" d="M252.0 23.4C252.0 22.847715 252.44771 22.4 253.0 22.4L263.0 22.4C263.55228 22.4 264.0 22.847715 264.0 23.4L264.0 33.4C264.0 33.952286 263.55228 34.4 263.0 34.4L253.0 34.4C252.44771 34.4 252.0 33.952286 252.0 33.4Z" fill-rule="nonzero"/><path fill="#1a1a1a" d="M273.26562 33.9L273.26562 22.446877L278.34375 22.446877Q279.875 22.446877 280.67188 22.759377Q281.46875 23.056252 281.9375 23.837502Q282.42188 24.618752 282.42188 25.571877Q282.42188 26.790627 281.625 27.634377Q280.84375 28.462502 279.1875 28.681252Q279.79688 28.978127 280.10938 29.259377Q280.76562 29.868752 281.35938 30.775002L283.35938 33.9L281.45312 33.9L279.9375 31.509377Q279.26562 30.478127 278.82812 29.931252Q278.40625 29.384377 278.0625 29.165627Q277.73438 28.946877 277.375 28.868752Q277.125 28.806252 276.53125 28.806252L274.78125 28.806252L274.78125 33.9L273.26562 33.9ZM274.78125 27.493752L278.03125 27.493752Q279.07812 27.493752 279.65625 27.290627Q280.25 27.071877 280.54688 26.603127Q280.85938 26.118752 280.85938 25.571877Q280.85938 24.759377 280.26562 24.243752Q279.67188 23.712502 278.40625 23.712502L274.78125 23.712502L274.78125 27.493752ZM284.23438 33.9L284.23438 22.446877L288.1875 22.446877Q289.51562 22.446877 290.21875 22.603127Q291.20312 22.837502 291.90625 23.431252Q292.8125 24.196877 293.25 25.384377Q293.70312 26.571877 293.70312 28.103127Q293.70312 29.415627 293.39062 30.431252Q293.09375 31.431252 292.60938 32.0875Q292.14062 32.74375 291.57812 33.134377Q291.01562 33.509377 290.20312 33.7125Q289.40625 33.9 288.375 33.9L284.23438 33.9ZM285.75 32.540627L288.20312 32.540627Q289.32812 32.540627 289.96875 32.3375Q290.625 32.11875 291.0 31.743752Q291.54688 31.196877 291.84375 30.290627Q292.14062 29.384377 292.14062 28.087502Q292.14062 26.290627 291.54688 25.321877Q290.96875 24.353127 290.125 24.025002Q289.51562 23.790627 288.15625 23.790627L285.75 23.790627L285.75 32.540627ZM296.1875 33.9L296.1875 22.446877L298.46875 22.446877L301.1875 30.556252Q301.5625 31.681252 301.73438 32.24375Q301.92188 31.618752 302.34375 30.415627L305.07812 22.446877L307.125 22.446877L307.125 33.9L305.65625 33.9L305.65625 24.306252L302.32812 33.9L300.96875 33.9L297.65625 24.150002L297.65625 33.9L296.1875 33.9ZM309.1875 33.9L309.1875 22.446877L311.46875 22.446877L314.1875 30.556252Q314.5625 31.681252 314.73438 32.24375Q314.92188 31.618752 315.34375 30.415627L318.07812 22.446877L320.125 22.446877L320.125 33.9L318.65625 33.9L318.65625 24.306252L315.32812 33.9L313.96875 33.9L310.65625 24.150002L310.65625 33.9L309.1875 33.9ZM321.51562 30.462502L321.51562 29.040627L325.82812 29.040627L325.82812 30.462502L321.51562 30.462502ZM326.76562 23.946877L326.76562 22.587502L334.17188 22.587502L334.17188 23.681252Q333.07812 24.853127 332.0 26.790627Q330.9375 28.712502 330.34375 30.743752Q329.92188 32.18125 329.8125 33.9L328.35938 33.9Q328.39062 32.540627 328.89062 30.634377Q329.40625 28.712502 330.34375 26.946877Q331.29688 25.165627 332.375 23.946877L326.76562 23.946877ZM336.17188 33.9L336.17188 22.446877L340.46875 22.446877Q341.78125 22.446877 342.57812 22.790627Q343.375 23.134377 343.8125 23.868752Q344.26562 24.587502 344.26562 25.368752Q344.26562 26.103127 343.85938 26.759377Q343.46875 27.400002 342.67188 27.806252Q343.70312 28.103127 344.26562 28.837502Q344.82812 29.571877 344.82812 30.571877Q344.82812 31.384377 344.48438 32.071877Q344.14062 32.759377 343.64062 33.134377Q343.14062 33.509377 342.39062 33.7125Q341.64062 33.9 340.54688 33.9L336.17188 33.9ZM337.6875 27.259377L340.17188 27.259377Q341.17188 27.259377 341.60938 27.118752Q342.1875 26.946877 342.48438 26.556252Q342.78125 26.150002 342.78125 25.556252Q342.78125 24.978127 342.5 24.556252Q342.23438 24.118752 341.71875 23.962502Q341.21875 23.790627 339.98438 23.790627L337.6875 23.790627L337.6875 27.259377ZM337.6875 32.540627L340.54688 32.540627Q341.28125 32.540627 341.57812 32.49375Q342.09375 32.4 342.4375 32.18125Q342.79688 31.962502 343.01562 31.540627Q343.25 31.118752 343.25 30.571877Q343.25 29.931252 342.92188 29.462502Q342.59375 28.993752 342.01562 28.806252Q341.4375 28.603127 340.34375 28.603127L337.6875 28.603127L337.6875 32.540627Z" fill-rule="nonzero"/><path fill="#f1c232" fill-opacity="0.5019608" d="M362.0 23.4C362.0 22.847715 362.44772 22.4 363.0 22.4L373.0 22.4C373.55228 22.4 374.0 22.847715 374.0 23.4L374.0 33.4C374.0 33.952286 373.55228 34.4 373.0 34.4L363.0 34.4C362.44772 34.4 362.0 33.952286 362.0 33.4Z" fill-rule="nonzero"/><path fill="#1a1a1a" d="M383.1875 33.9L383.1875 22.446877L385.46875 22.446877L388.1875 30.556252Q388.5625 31.681252 388.73438 32.24375Q388.92188 31.618752 389.34375 30.415627L392.07812 22.446877L394.125 22.446877L394.125 33.9L392.65625 33.9L392.65625 24.306252L389.32812 33.9L387.96875 33.9L384.65625 24.150002L384.65625 33.9L383.1875 33.9ZM396.0625 24.056252L396.0625 22.446877L397.46875 22.446877L397.46875 24.056252L396.0625 24.056252ZM396.0625 33.9L396.0625 25.603127L397.46875 25.603127L397.46875 33.9L396.0625 33.9ZM399.5 31.415627L400.89062 31.196877Q401.0 32.040627 401.53125 32.49375Q402.07812 32.93125 403.03125 32.93125Q404.0 32.93125 404.46875 32.540627Q404.9375 32.134377 404.9375 31.603127Q404.9375 31.134377 404.53125 30.853127Q404.23438 30.665627 403.09375 30.384377Q401.54688 29.993752 400.9375 29.712502Q400.34375 29.415627 400.03125 28.915627Q399.73438 28.415627 399.73438 27.806252Q399.73438 27.243752 399.98438 26.775002Q400.23438 26.306252 400.67188 25.993752Q401.0 25.743752 401.5625 25.587502Q402.14062 25.415627 402.78125 25.415627Q403.76562 25.415627 404.5 25.696877Q405.23438 25.978127 405.57812 26.462502Q405.9375 26.931252 406.07812 27.743752L404.70312 27.931252Q404.60938 27.290627 404.15625 26.931252Q403.70312 26.571877 402.89062 26.571877Q401.92188 26.571877 401.5 26.900002Q401.09375 27.212502 401.09375 27.634377Q401.09375 27.915627 401.26562 28.134377Q401.4375 28.353127 401.79688 28.509377Q402.01562 28.587502 403.04688 28.868752Q404.53125 29.259377 405.125 29.525002Q405.71875 29.775002 406.04688 30.259377Q406.39062 30.743752 406.39062 31.462502Q406.39062 32.165627 405.96875 32.790627Q405.5625 33.4 404.78125 33.74375Q404.01562 34.0875 403.04688 34.0875Q401.42188 34.0875 400.57812 33.415627Q399.73438 32.74375 399.5 31.415627ZM411.125 32.634377L411.32812 33.884377Q410.73438 34.009377 410.26562 34.009377Q409.5 34.009377 409.07812 33.775Q408.65625 33.525 408.48438 33.134377Q408.3125 32.728127 408.3125 31.462502L408.3125 26.696877L407.28125 26.696877L407.28125 25.603127L408.3125 25.603127L408.3125 23.540627L409.71875 22.696877L409.71875 25.603127L411.125 25.603127L411.125 26.696877L409.71875 26.696877L409.71875 31.540627Q409.71875 32.15 409.78125 32.321877Q409.85938 32.49375 410.03125 32.603127Q410.20312 32.696877 410.51562 32.696877Q410.75 32.696877 411.125 32.634377ZM412.04688 33.9L412.04688 25.603127L413.3125 25.603127L413.3125 26.853127Q413.79688 25.978127 414.20312 25.696877Q414.60938 25.415627 415.10938 25.415627Q415.8125 25.415627 416.54688 25.868752L416.0625 27.165627Q415.54688 26.868752 415.03125 26.868752Q414.57812 26.868752 414.20312 27.150002Q413.84375 27.415627 413.6875 27.915627Q413.45312 28.665627 413.45312 29.556252L413.45312 33.9L412.04688 33.9ZM422.46875 32.86875Q421.6875 33.540627 420.96875 33.821877Q420.25 34.0875 419.42188 34.0875Q418.04688 34.0875 417.3125 33.415627Q416.57812 32.74375 416.57812 31.712502Q416.57812 31.103127 416.85938 30.603127Q417.14062 30.087502 417.57812 29.790627Q418.03125 29.478127 418.59375 29.321877Q419.01562 29.212502 419.84375 29.118752Q421.54688 28.915627 422.35938 28.634377Q422.35938 28.337502 422.35938 28.259377Q422.35938 27.400002 421.96875 27.056252Q421.42188 26.571877 420.35938 26.571877Q419.375 26.571877 418.89062 26.931252Q418.42188 27.275002 418.20312 28.150002L416.82812 27.962502Q417.01562 27.087502 417.4375 26.540627Q417.875 25.993752 418.6875 25.712502Q419.5 25.415627 420.5625 25.415627Q421.625 25.415627 422.28125 25.665627Q422.95312 25.915627 423.26562 26.290627Q423.57812 26.665627 423.70312 27.243752Q423.78125 27.603127 423.78125 28.540627L423.78125 30.415627Q423.78125 32.384377 423.85938 32.9Q423.95312 33.415627 424.21875 33.9L422.75 33.9Q422.53125 33.4625 422.46875 32.86875ZM422.35938 29.728127Q421.59375 30.040627 420.0625 30.259377Q419.1875 30.384377 418.82812 30.540627Q418.46875 30.696877 418.26562 31.009377Q418.07812 31.306252 418.07812 31.665627Q418.07812 32.228127 418.5 32.603127Q418.9375 32.978127 419.75 32.978127Q420.5625 32.978127 421.1875 32.634377Q421.82812 32.275 422.125 31.650002Q422.35938 31.181252 422.35938 30.243752L422.35938 29.728127ZM426.03125 33.9L426.03125 22.446877L427.4375 22.446877L427.4375 33.9L426.03125 33.9ZM428.51562 30.462502L428.51562 29.040627L432.82812 29.040627L432.82812 30.462502L428.51562 30.462502ZM433.76562 23.946877L433.76562 22.587502L441.17188 22.587502L441.17188 23.681252Q440.07812 24.853127 439.0 26.790627Q437.9375 28.712502 437.34375 30.743752Q436.92188 32.18125 436.8125 33.9L435.35938 33.9Q435.39062 32.540627 435.89062 30.634377Q436.40625 28.712502 437.34375 26.946877Q438.29688 25.165627 439.375 23.946877L433.76562 23.946877ZM443.17188 33.9L443.17188 22.446877L447.46875 22.446877Q448.78125 22.446877 449.57812 22.790627Q450.375 23.134377 450.8125 23.868752Q451.26562 24.587502 451.26562 25.368752Q451.26562 26.103127 450.85938 26.759377Q450.46875 27.400002 449.67188 27.806252Q450.70312 28.103127 451.26562 28.837502Q451.82812 29.571877 451.82812 30.571877Q451.82812 31.384377 451.48438 32.071877Q451.14062 32.759377 450.64062 33.134377Q450.14062 33.509377 449.39062 33.7125Q448.64062 33.9 447.54688 33.9L443.17188 33.9ZM444.6875 27.259377L447.17188 27.259377Q448.17188 27.259377 448.60938 27.118752Q449.1875 26.946877 449.48438 26.556252Q449.78125 26.150002 449.78125 25.556252Q449.78125 24.978127 449.5 24.556252Q449.23438 24.118752 448.71875 23.962502Q448.21875 23.790627 446.98438 23.790627L444.6875 23.790627L444.6875 27.259377ZM444.6875 32.540627L447.54688 32.540627Q448.28125 32.540627 448.57812 32.49375Q449.09375 32.4 449.4375 32.18125Q449.79688 31.962502 450.01562 31.540627Q450.25 31.118752 450.25 30.571877Q450.25 29.931252 449.92188 29.462502Q449.59375 28.993752 449.01562 28.806252Q448.4375 28.603127 447.34375 28.603127L444.6875 28.603127L444.6875 32.540627Z" fill-rule="nonzero"/><path fill="#ff0000" d="M469.0 23.4C469.0 22.847715 469.44772 22.4 470.0 22.4L480.0 22.4C480.55228 22.4 481.0 22.847715 481.0 23.4L481.0 33.4C481.0 33.952286 480.55228 34.4 480.0 34.4L470.0 34.4C469.44772 34.4 469.0 33.952286 469.0 33.4Z" fill-rule="nonzero"/><path fill="#1a1a1a" d="M490.26562 33.9L490.26562 22.446877L495.34375 22.446877Q496.875 22.446877 497.67188 22.759377Q498.46875 23.056252 498.9375 23.837502Q499.42188 24.618752 499.42188 25.571877Q499.42188 26.790627 498.625 27.634377Q497.84375 28.462502 496.1875 28.681252Q496.79688 28.978127 497.10938 29.259377Q497.76562 29.868752 498.35938 30.775002L500.35938 33.9L498.45312 33.9L496.9375 31.509377Q496.26562 30.478127 495.82812 29.931252Q495.40625 29.384377 495.0625 29.165627Q494.73438 28.946877 494.375 28.868752Q494.125 28.806252 493.53125 28.806252L491.78125 28.806252L491.78125 33.9L490.26562 33.9ZM491.78125 27.493752L495.03125 27.493752Q496.07812 27.493752 496.65625 27.290627Q497.25 27.071877 497.54688 26.603127Q497.85938 26.118752 497.85938 25.571877Q497.85938 24.759377 497.26562 24.243752Q496.67188 23.712502 495.40625 23.712502L491.78125 23.712502L491.78125 27.493752ZM501.23438 33.9L501.23438 22.446877L505.1875 22.446877Q506.51562 22.446877 507.21875 22.603127Q508.20312 22.837502 508.90625 23.431252Q509.8125 24.196877 510.25 25.384377Q510.70312 26.571877 510.70312 28.103127Q510.70312 29.415627 510.39062 30.431252Q510.09375 31.431252 509.60938 32.0875Q509.14062 32.74375 508.57812 33.134377Q508.01562 33.509377 507.20312 33.7125Q506.40625 33.9 505.375 33.9L501.23438 33.9ZM502.75 32.540627L505.20312 32.540627Q506.32812 32.540627 506.96875 32.3375Q507.625 32.11875 508.0 31.743752Q508.54688 31.196877 508.84375 30.290627Q509.14062 29.384377 509.14062 28.087502Q509.14062 26.290627 508.54688 25.321877Q507.96875 24.353127 507.125 24.025002Q506.51562 23.790627 505.15625 23.790627L502.75 23.790627L502.75 32.540627ZM513.1875 33.9L513.1875 22.446877L515.46875 22.446877L518.1875 30.556252Q518.5625 31.681252 518.7344 32.24375Q518.9219 31.618752 519.34375 30.415627L522.0781 22.446877L524.125 22.446877L524.125 33.9L522.65625 33.9L522.65625 24.306252L519.3281 33.9L517.96875 33.9L514.65625 24.150002L514.65625 33.9L513.1875 33.9ZM526.1875 33.9L526.1875 22.446877L528.46875 22.446877L531.1875 30.556252Q531.5625 31.681252 531.7344 32.24375Q531.9219 31.618752 532.34375 30.415627L535.0781 22.446877L537.125 22.446877L537.125 33.9L535.65625 33.9L535.65625 24.306252L532.3281 33.9L530.96875 33.9L527.65625 24.150002L527.65625 33.9L526.1875 33.9ZM538.5156 30.462502L538.5156 29.040627L542.8281 29.040627L542.8281 30.462502L538.5156 30.462502ZM543.6719 28.243752Q543.6719 26.212502 544.0781 24.978127Q544.5 23.743752 545.3281 23.071877Q546.15625 22.400002 547.40625 22.400002Q548.3281 22.400002 549.0156 22.775002Q549.71875 23.134377 550.1719 23.837502Q550.625 24.540627 550.875 25.540627Q551.1406 26.540627 551.1406 28.243752Q551.1406 30.259377 550.71875 31.509377Q550.3125 32.74375 549.4844 33.43125Q548.65625 34.103127 547.40625 34.103127Q545.75 34.103127 544.7969 32.9Q543.6719 31.478127 543.6719 28.243752ZM545.1094 28.243752Q545.1094 31.071877 545.7656 32.009377Q546.4375 32.93125 547.40625 32.93125Q548.375 32.93125 549.03125 31.993752Q549.6875 31.056252 549.6875 28.243752Q549.6875 25.415627 549.03125 24.493752Q548.375 23.556252 547.3906 23.556252Q546.4219 23.556252 545.84375 24.384377Q545.1094 25.431252 545.1094 28.243752ZM553.4531 33.9L553.4531 32.290627L555.0625 32.290627L555.0625 33.9L553.4531 33.9ZM556.6719 30.900002L558.1406 30.775002Q558.3125 31.853127 558.90625 32.4Q559.5 32.93125 560.34375 32.93125Q561.3594 32.93125 562.0625 32.165627Q562.7656 31.400002 562.7656 30.134377Q562.7656 28.931252 562.09375 28.243752Q561.4219 27.540627 560.3281 27.540627Q559.6406 27.540627 559.09375 27.853127Q558.5469 28.165627 558.2344 28.650002L556.9219 28.478127L558.03125 22.603127L563.71875 22.603127L563.71875 23.946877L559.15625 23.946877L558.53125 27.025002Q559.5625 26.306252 560.7031 26.306252Q562.2031 26.306252 563.2344 27.353127Q564.2656 28.384377 564.2656 30.009377Q564.2656 31.571877 563.3594 32.696877Q562.25 34.103127 560.34375 34.103127Q558.78125 34.103127 557.7969 33.228127Q556.8125 32.3375 556.6719 30.900002ZM566.1719 33.9L566.1719 22.446877L570.46875 22.446877Q571.78125 22.446877 572.5781 22.790627Q573.375 23.134377 573.8125 23.868752Q574.2656 24.587502 574.2656 25.368752Q574.2656 26.103127 573.8594 26.759377Q573.46875 27.400002 572.6719 27.806252Q573.7031 28.103127 574.2656 28.837502Q574.8281 29.571877 574.8281 30.571877Q574.8281 31.384377 574.4844 32.071877Q574.1406 32.759377 573.6406 33.134377Q573.1406 33.509377 572.3906 33.7125Q571.6406 33.9 570.5469 33.9L566.1719 33.9ZM567.6875 27.259377L570.1719 27.259377Q571.1719 27.259377 571.6094 27.118752Q572.1875 26.946877 572.4844 26.556252Q572.78125 26.150002 572.78125 25.556252Q572.78125 24.978127 572.5 24.556252Q572.2344 24.118752 571.71875 23.962502Q571.21875 23.790627 569.9844 23.790627L567.6875 23.790627L567.6875 27.259377ZM567.6875 32.540627L570.5469 32.540627Q571.28125 32.540627 571.5781 32.49375Q572.09375 32.4 572.4375 32.18125Q572.7969 31.962502 573.0156 31.540627Q573.25 31.118752 573.25 30.571877Q573.25 29.931252 572.9219 29.462502Q572.59375 28.993752 572.0156 28.806252Q571.4375 28.603127 570.34375 28.603127L567.6875 28.603127L567.6875 32.540627Z" fill-rule="nonzero"/><path fill="#ff0000" fill-opacity="0.5019608" d="M592.0 23.4C592.0 22.847715 592.4477 22.4 593.0 22.4L603.0 22.4C603.5523 22.4 604.0 22.847715 604.0 23.4L604.0 33.4C604.0 33.952286 603.5523 34.4 603.0 34.4L593.0 34.4C592.4477 34.4 592.0 33.952286 592.0 33.4Z" fill-rule="nonzero"/><path fill="#1a1a1a" d="M621.9219 32.665627Q622.96875 33.4 623.8594 33.728127L623.4219 34.790627Q622.1875 34.353127 620.9531 33.384377Q619.6875 34.103127 618.1406 34.103127Q616.59375 34.103127 615.3281 33.353127Q614.0625 32.5875 613.375 31.228127Q612.6875 29.868752 612.6875 28.165627Q612.6875 26.478127 613.375 25.087502Q614.0625 23.696877 615.3281 22.978127Q616.6094 22.243752 618.1719 22.243752Q619.7656 22.243752 621.03125 22.993752Q622.3125 23.743752 622.96875 25.103127Q623.6406 26.462502 623.6406 28.165627Q623.6406 29.571877 623.2031 30.712502Q622.78125 31.837502 621.9219 32.665627ZM618.5781 30.728127Q619.8906 31.103127 620.75 31.821877Q622.0781 30.603127 622.0781 28.165627Q622.0781 26.775002 621.6094 25.743752Q621.1406 24.696877 620.21875 24.118752Q619.3125 23.540627 618.1875 23.540627Q616.4844 23.540627 615.3594 24.712502Q614.25 25.868752 614.25 28.165627Q614.25 30.400002 615.3594 31.603127Q616.46875 32.790627 618.1875 32.790627Q619.0 32.790627 619.71875 32.49375Q619.0 32.025 618.21875 31.837502L618.5781 30.728127ZM626.59375 33.9L624.0469 25.603127L625.5 25.603127L626.8281 30.384377L627.3125 32.165627Q627.34375 32.040627 627.75 30.462502L629.0625 25.603127L630.5156 25.603127L631.75 30.415627L632.1719 31.993752L632.6406 30.400002L634.0625 25.603127L635.4375 25.603127L632.84375 33.9L631.375 33.9L630.0625 28.931252L629.7344 27.509377L628.0625 33.9L626.59375 33.9ZM641.7344 31.228127L643.1875 31.400002Q642.84375 32.68125 641.90625 33.384377Q640.9844 34.0875 639.5469 34.0875Q637.71875 34.0875 636.65625 32.9625Q635.59375 31.837502 635.59375 29.821877Q635.59375 27.728127 636.6719 26.571877Q637.75 25.415627 639.46875 25.415627Q641.125 25.415627 642.1719 26.556252Q643.2344 27.681252 643.2344 29.728127Q643.2344 29.853127 643.2344 30.103127L637.0469 30.103127Q637.125 31.478127 637.8125 32.2125Q638.5156 32.93125 639.5469 32.93125Q640.3281 32.93125 640.875 32.525Q641.4219 32.11875 641.7344 31.228127ZM637.125 28.946877L641.75 28.946877Q641.65625 27.900002 641.21875 27.384377Q640.5469 26.571877 639.4844 26.571877Q638.5156 26.571877 637.84375 27.228127Q637.1875 27.868752 637.125 28.946877ZM645.0625 33.9L645.0625 25.603127L646.3281 25.603127L646.3281 26.775002Q647.2344 25.415627 648.96875 25.415627Q649.71875 25.415627 650.34375 25.681252Q650.96875 25.946877 651.28125 26.384377Q651.59375 26.821877 651.71875 27.431252Q651.7969 27.821877 651.7969 28.790627L651.7969 33.9L650.3906 33.9L650.3906 28.853127Q650.3906 27.993752 650.21875 27.571877Q650.0625 27.134377 649.6406 26.884377Q649.2344 26.634377 648.6719 26.634377Q647.7656 26.634377 647.1094 27.212502Q646.46875 27.775002 646.46875 29.368752L646.46875 33.9L645.0625 33.9ZM660.0625 32.540627L660.0625 33.9L652.4844 33.9Q652.46875 33.384377 652.65625 32.915627Q652.9375 32.15 653.5781 31.400002Q654.21875 30.650002 655.4219 29.665627Q657.28125 28.134377 657.9375 27.243752Q658.59375 26.337502 658.59375 25.540627Q658.59375 24.712502 658.0 24.134377Q657.40625 23.556252 656.4375 23.556252Q655.4219 23.556252 654.8125 24.165627Q654.2031 24.775002 654.2031 25.853127L652.75 25.712502Q652.90625 24.087502 653.875 23.243752Q654.84375 22.400002 656.46875 22.400002Q658.125 22.400002 659.0781 23.321877Q660.0469 24.228127 660.0469 25.571877Q660.0469 26.259377 659.7656 26.931252Q659.4844 27.587502 658.8281 28.321877Q658.1719 29.056252 656.65625 30.337502Q655.3906 31.400002 655.03125 31.790627Q654.6719 32.165627 654.4375 32.540627L660.0625 32.540627ZM661.5156 30.462502L661.5156 29.040627L665.8281 29.040627L665.8281 30.462502L661.5156 30.462502ZM666.6719 28.243752Q666.6719 26.212502 667.0781 24.978127Q667.5 23.743752 668.3281 23.071877Q669.15625 22.400002 670.40625 22.400002Q671.3281 22.400002 672.0156 22.775002Q672.71875 23.134377 673.1719 23.837502Q673.625 24.540627 673.875 25.540627Q674.1406 26.540627 674.1406 28.243752Q674.1406 30.259377 673.71875 31.509377Q673.3125 32.74375 672.4844 33.43125Q671.65625 34.103127 670.40625 34.103127Q668.75 34.103127 667.7969 32.9Q666.6719 31.478127 666.6719 28.243752ZM668.1094 28.243752Q668.1094 31.071877 668.7656 32.009377Q669.4375 32.93125 670.40625 32.93125Q671.375 32.93125 672.03125 31.993752Q672.6875 31.056252 672.6875 28.243752Q672.6875 25.415627 672.03125 24.493752Q671.375 23.556252 670.3906 23.556252Q669.4219 23.556252 668.84375 24.384377Q668.1094 25.431252 668.1094 28.243752ZM676.4531 33.9L676.4531 32.290627L678.0625 32.290627L678.0625 33.9L676.4531 33.9ZM679.6719 30.900002L681.1406 30.775002Q681.3125 31.853127 681.90625 32.4Q682.5 32.93125 683.34375 32.93125Q684.3594 32.93125 685.0625 32.165627Q685.7656 31.400002 685.7656 30.134377Q685.7656 28.931252 685.09375 28.243752Q684.4219 27.540627 683.3281 27.540627Q682.6406 27.540627 682.09375 27.853127Q681.5469 28.165627 681.2344 28.650002L679.9219 28.478127L681.03125 22.603127L686.71875 22.603127L686.71875 23.946877L682.15625 23.946877L681.53125 27.025002Q682.5625 26.306252 683.7031 26.306252Q685.2031 26.306252 686.2344 27.353127Q687.2656 28.384377 687.2656 30.009377Q687.2656 31.571877 686.3594 32.696877Q685.25 34.103127 683.34375 34.103127Q681.78125 34.103127 680.7969 33.228127Q679.8125 32.3375 679.6719 30.900002ZM689.1719 33.9L689.1719 22.446877L693.46875 22.446877Q694.78125 22.446877 695.5781 22.790627Q696.375 23.134377 696.8125 23.868752Q697.2656 24.587502 697.2656 25.368752Q697.2656 26.103127 696.8594 26.759377Q696.46875 27.400002 695.6719 27.806252Q696.7031 28.103127 697.2656 28.837502Q697.8281 29.571877 697.8281 30.571877Q697.8281 31.384377 697.4844 32.071877Q697.1406 32.759377 696.6406 33.134377Q696.1406 33.509377 695.3906 33.7125Q694.6406 33.9 693.5469 33.9L689.1719 33.9ZM690.6875 27.259377L693.1719 27.259377Q694.1719 27.259377 694.6094 27.118752Q695.1875 26.946877 695.4844 26.556252Q695.78125 26.150002 695.78125 25.556252Q695.78125 24.978127 695.5 24.556252Q695.2344 24.118752 694.71875 23.962502Q694.21875 23.790627 692.9844 23.790627L690.6875 23.790627L690.6875 27.259377ZM690.6875 32.540627L693.5469 32.540627Q694.28125 32.540627 694.5781 32.49375Q695.09375 32.4 695.4375 32.18125Q695.7969 31.962502 696.0156 31.540627Q696.25 31.118752 696.25 30.571877Q696.25 29.931252 695.9219 29.462502Q695.59375 28.993752 695.0156 28.806252Q694.4375 28.603127 693.34375 28.603127L690.6875 28.603127L690.6875 32.540627Z" fill-rule="nonzero"/></svg>